<svg
    width="1024"
    height="1024"
    viewBox="0 0 1024 1024"
    fill="none"
    xmlns="http://www.w3.org/2000/svg">

    <path
        d="M10.1676 973.506H1013.13V53.5103H10.1676V973.506Z"
        fill="#F7D6D6"
        stroke="black"
        stroke-width="2.01185" />
    <path
        d="M953.283 697.974H1013.13V649.354H953.283V697.974Z"
        fill="#DA3636"
        stroke="black"
        stroke-width="2.01185" />
    <path
        d="M953.283 649.354H1013.13V604.243H953.283V649.354Z"
        fill="#DA3636"
        stroke="black"
        stroke-width="2.01185" />
    <path
        d="M929.644 604.243H1013.13V489.46H929.644V604.243Z"
        fill="#DA3636"
        stroke="black"
        stroke-width="2.01185" />
    <path
        d="M871.802 565.648H929.644V510.01H871.802V565.648Z"
        fill="#DA3636"
        stroke="black"
        stroke-width="2.01185" />
    <path
        d="M871.802 604.243H929.644V565.648H871.802V604.243Z"
        fill="#DA3636"
        stroke="black"
        stroke-width="2.01185" />
    <path
        d="M872.305 489.46H1013.13V377.684H872.305V489.46Z"
        fill="#DA3636"
        stroke="black"
        stroke-width="2.01185" />
    <path
        d="M872.305 377.684H1013.13V285.958H872.305V377.684Z"
        fill="#DA3636"
        stroke="black"
        stroke-width="2.01185" />
    <path
        d="M872.305 285.958H1013.13V194.231H872.305V285.958Z"
        fill="#DA3636"
        stroke="black"
        stroke-width="2.01185" />
    <path
        d="M872.305 194.231H1013.13V53.5103H872.305V194.231Z"
        fill="#DA3636"
        stroke="black"
        stroke-width="2.01185" />
    <path
        d="M689.727 194.231H785.291V53.5103H689.727V194.231Z"
        fill="#DA3636"
        stroke="black"
        stroke-width="2.01185" />
    <path
        d="M600.199 194.231H689.727V53.5103H600.199V194.231Z"
        fill="#DA3636"
        stroke="black"
        stroke-width="2.01185" />
    <path
        d="M509.161 194.231H600.199V53.5103H509.161V194.231Z"
        fill="#DA3636"
        stroke="black"
        stroke-width="2.01185" />
    <path
        d="M420.136 201.75H509.161V53.5104H420.136V201.75Z"
        fill="#DA3636"
        stroke="black"
        stroke-width="2.01185" />
    <path
        d="M445.284 201.75H509.161V149.12H445.284V201.75Z"
        fill="#DA3636"
        stroke="black"
        stroke-width="2.01185" />
    <path
        d="M240.575 201.75H420.135V53.5104H240.575V201.75Z"
        fill="#DA3636"
        stroke="black"
        stroke-width="2.01185" />
    <path
        d="M174.686 194.231H240.575V159.646H174.686V194.231Z"
        fill="#DA3636"
        stroke="black"
        stroke-width="2.01185" />
    <path
        d="M10.1677 286.96H150.041V53.5103H10.1677V286.96Z"
        fill="#DA3636"
        stroke="black"
        stroke-width="2.01185" />
    <path
        d="M10.1677 379.689H150.041V286.96H10.1677V379.689Z"
        fill="#DA3636"
        stroke="black"
        stroke-width="2.01185" />
    <path
        d="M10.1677 537.077H70.5715V490.963H10.1677V537.077Z"
        fill="#DA3636"
        stroke="black"
        stroke-width="2.01185" />
    <path
        d="M10.1677 625.796H70.5715V537.077H10.1677V625.796Z"
        fill="#DA3636"
        stroke="black"
        stroke-width="2.01185" />
    <path
        d="M10.1677 672.411H70.5715V625.796H10.1677V672.411Z"
        fill="#DA3636"
        stroke="black"
        stroke-width="2.01185" />
    <path
        d="M10.1677 717.021H70.5715V672.411H10.1677V717.021Z"
        fill="#DA3636"
        stroke="black"
        stroke-width="2.01185" />
    <path
        d="M10.1677 763.636H70.5715V717.021H10.1677V763.636Z"
        fill="#DA3636"
        stroke="black"
        stroke-width="2.01185" />
    <path
        d="M10.1676 807.244H65.0388V763.636H10.1676V807.244Z"
        fill="#DA3636"
        stroke="black"
        stroke-width="2.01185" />
    <path
        d="M10.1676 852.355H65.0388V807.244H10.1676V852.355Z"
        fill="#DA3636"
        stroke="black"
        stroke-width="2.01185" />
    <path
        d="M10.1676 898.469H65.0388V852.355H10.1676V898.469Z"
        fill="#DA3636"
        stroke="black"
        stroke-width="2.01185" />
    <path
        d="M57.9973 973.506H104.271V912.503H57.9973V973.506Z"
        fill="#DA3636"
        stroke="black"
        stroke-width="2.01185" />
    <path
        d="M104.27 973.506H151.55V912.503H104.27V973.506Z"
        fill="#DA3636"
        stroke="black"
        stroke-width="2.01185" />
    <path
        d="M151.55 973.506H195.811V912.503H151.55V973.506Z"
        fill="#DA3636"
        stroke="black"
        stroke-width="2.01185" />
    <path
        d="M195.811 973.506H240.072V912.503H195.811V973.506Z"
        fill="#DA3636"
        stroke="black"
        stroke-width="2.01185" />
    <path
        d="M240.072 973.506H284.333V912.503H240.072V973.506Z"
        fill="#DA3636"
        stroke="black"
        stroke-width="2.01185" />
    <path
        d="M284.334 973.506H329.601V912.503H284.334V973.506Z"
        fill="#DA3636"
        stroke="black"
        stroke-width="2.01185" />
    <path
        d="M93.7081 887.442H203.858V831.804H93.7081V887.442Z"
        fill="#DA3636"
        stroke="black"
        stroke-width="2.01185" />
    <path
        d="M93.7079 831.804H203.858V738.073H93.7079V831.804Z"
        fill="#DA3636"
        stroke="black"
        stroke-width="2.01185" />
    <path
        d="M93.7081 738.073H149.035V716.52H93.7081V738.073Z"
        fill="#DA3636"
        stroke="black"
        stroke-width="2.01185" />
    <path
        d="M93.708 716.52H149.035V673.414H93.708V716.52Z"
        fill="#DA3636"
        stroke="black"
        stroke-width="2.01185" />
    <path
        d="M203.858 826.291H388.448V775.666H203.858V826.291Z"
        fill="#DA3636"
        stroke="black"
        stroke-width="2.01185" />
    <path
        d="M203.858 775.666H274.777V679.428H203.858V775.666Z"
        fill="#DA3636"
        stroke="black"
        stroke-width="2.01185" />
    <path
        d="M274.777 775.666H328.092V679.428H274.777V775.666Z"
        fill="#DA3636"
        stroke="black"
        stroke-width="2.01185" />
    <path
        d="M328.092 775.666H388.448V739.076H328.092V775.666Z"
        fill="#DA3636"
        stroke="black"
        stroke-width="2.01185" />
    <path
        d="M328.092 739.076H388.448V679.428H328.092V739.076Z"
        fill="#DA3636"
        stroke="black"
        stroke-width="2.01185" />
    <path
        d="M328.092 701.984H354.246V679.428H328.092V701.984Z"
        fill="#DA3636"
        stroke="black"
        stroke-width="2.01185" />
    <path
        d="M203.858 887.442H242.587V826.291H203.858V887.442Z"
        fill="#DA3636"
        stroke="black"
        stroke-width="2.01185" />
    <path
        d="M242.587 887.442H284.333V826.291H242.587V887.442Z"
        fill="#DA3636"
        stroke="black"
        stroke-width="2.01185" />
    <path
        d="M372.353 887.442H284.334V826.291H388.448V856.866L372.353 887.442Z"
        fill="#DA3636"
        stroke="black"
        stroke-width="2.01185" />
    <path
        d="M372.842 973.504V927.544H362.791V912.503H329.586V973.504H372.842Z"
        fill="#DA3636"
        stroke="black"
        stroke-width="2.01185" />
    <path
        d="M1013.13 973.504V783.677H834.596V855.377L817.978 870.915V973.504H1013.13Z"
        fill="#DA3636"
        stroke="black"
        stroke-width="2.01185" />
    <path
        d="M872.808 866.891H843.643L834.093 855.847L834.596 804.738H872.808V866.891Z"
        fill="#DA3636"
        stroke="black"
        stroke-width="2.01185" />
    <path
        d="M728.073 925.193L700.125 937.557L659.602 937.39L644.645 905.259L706.576 877.524L728.073 925.193Z"
        fill="#DA3636"
        stroke="black"
        stroke-width="2.01185" />
    <path
        d="M706.576 877.524L595.042 927.474L595.017 885.773L606.522 885.86L692.97 847.352L706.576 877.524Z"
        fill="#DA3636"
        stroke="black"
        stroke-width="2.01185" />
    <path
        d="M687.212 973.506V937.504L659.602 937.39L644.645 905.259L595.042 927.474V973.506H687.212Z"
        fill="#DA3636"
        stroke="black"
        stroke-width="2.01185" />
    <path d="M595.017 885.773H498.599L485.018 915.01V973.506H595.042L595.017 885.773Z"
        fill="#DA3636"
        stroke="black"
        stroke-width="2.01185" />
    <path
        d="M362.79 912.503H386.939L416.112 848.345L498.599 885.773L485.018 915.01V973.506L372.842 973.504V927.544H362.79V912.503Z"
        fill="#DA3636"
        stroke="black"
        stroke-width="2.01185" />
    <path
        d="M817.978 870.915L800.37 853.368H695.683L728.073 925.193L700.125 937.557L687.212 937.504V973.506L817.978 973.504V870.915Z"
        fill="#DA3636"
        stroke="black"
        stroke-width="2.01185" />
    <path
        d="M692.97 847.352L667.094 796.217L615.791 735.567H491.557L439.751 795.214L416.112 848.345L498.599 885.773L595.017 885.775L606.522 885.86L692.97 847.352Z"
        fill="#DA3636"
        stroke="black"
        stroke-width="2.01185" />
    <path
        d="M603.719 735.567V687.448C571.026 674.917 534.357 677.496 503.628 687.448V735.567H603.719Z"
        fill="#DA3636"
        stroke="black"
        stroke-width="2.01185" />
    <path d="M450.314 735.567H503.628V690.456H450.314V735.567Z"
        fill="#DA3636"
        stroke="black"
        stroke-width="2.01185" />
    <path d="M478.456 750.651L462.888 735.567H421.644V752.609L453.565 779.309L478.456 750.651Z"
        fill="#DA3636"
        stroke="black"
        stroke-width="2.01185" />
    <path
        d="M421.644 752.609H416.187V808.399H433.885L439.751 795.214L453.565 779.309L421.644 752.609Z"
        fill="#DA3636"
        stroke="black"
        stroke-width="2.01185" />
    <path
        d="M416.187 808.399V848.175L433.885 808.399H416.187Z"
        fill="#DA3636"
        stroke="black"
        stroke-width="2.01185" />
    <path
        d="M615.791 735.567H644.711L627.974 749.97L615.791 735.567Z"
        fill="#DA3636"
        stroke="black"
        stroke-width="2.01185" />
    <path
        d="M711.202 853.368V870.601L704.901 873.807L695.683 853.368H711.202Z"
        fill="#DA3636"
        stroke="black"
        stroke-width="2.01185" />
    <path
        d="M813.63 827.892V775.082H763.483V833.917H807.94L813.63 827.892Z"
        fill="#DA3636"
        stroke="black"
        stroke-width="2.01185" />
    <path
        d="M718.67 833.917H763.483V775.082H718.67V833.917Z"
        fill="#DA3636"
        stroke="black"
        stroke-width="2.01185" />
    <path
        d="M689.151 775.082H741.432V679.387H689.151V775.082Z"
        fill="#DA3636"
        stroke="black"
        stroke-width="2.01185" />
    <path
        d="M741.432 775.082H813.63V679.387H741.432V775.082Z"
        fill="#DA3636"
        stroke="black"
        stroke-width="2.01185" />
    <path
        d="M718.67 833.917V775.082H689.151L718.67 833.917Z"
        fill="#DA3636"
        stroke="black"
        stroke-width="2.01185" />
    <path
        d="M932.063 693.555V627.282H953.286V604.239H834.253V693.555H932.063Z"
        fill="#DA3636"
        stroke="black"
        stroke-width="2.01185" />
    <path
        d="M834.596 783.677V710.931H851.329V693.555H932.062V627.282H953.283V697.974H1013.13L1013.13 783.677H834.596Z"
        fill="#DA3636"
        stroke="black"
        stroke-width="2.01185" />
    <path
        d="M785.291 194.231H844.927V163.694H872.305V53.5103H785.291V194.231Z"
        fill="#DA3636"
        stroke="black"
        stroke-width="2.01185" />
    <path
        d="M774.721 556.635V497.991H755.614V439.346H774.721V382.19H595.659V556.635H774.721Z"
        fill="#DA3636"
        stroke="black"
        stroke-width="2.01185" />
    <path
        d="M755.616 497.981H812.955V439.336H755.616V497.981Z"
        fill="#DA3636"
        stroke="black"
        stroke-width="2.01185" />
    <path
        d="M755.614 497.991L719.737 556.635Z"
        fill="#DA3636" />
    <path
        d="M755.614 497.991L719.737 556.635"
        stroke="black"
        stroke-width="2.01185" />
    <path
        d="M755.616 439.346L721.16 382.19Z"
        fill="#DA3636" />
    <path
        d="M755.616 439.346L721.16 382.19"
        stroke="black"
        stroke-width="2.01185" />
    <path
        d="M780.759 611.248V556.635H595.659V251.876H547.392V556.635V611.248H780.759Z"
        fill="#DA3636"
        stroke="black"
        stroke-width="2.01185" />
    <path
        d="M595.659 382.19H692.745V251.876H595.659V382.19Z"
        fill="#DA3636"
        stroke="black"
        stroke-width="2.01185" />
    <path
        d="M692.745 382.19H744.551V251.876H692.745V382.19Z"
        fill="#DA3636"
        stroke="black"
        stroke-width="2.01185" />
    <path
        d="M744.551 382.19H813.458V352.622H744.551V382.19Z"
        fill="#DA3636"
        stroke="black"
        stroke-width="2.01185" />
    <path
        d="M744.551 352.622H813.458V251.876H744.551V352.622Z"
        fill="#DA3636"
        stroke="black"
        stroke-width="2.01185" />
    <path
        d="M92.7208 652.096H149.625V625.868H92.7208V652.096Z"
        fill="#DA3636"
        stroke="black"
        stroke-width="2.01185" />
    <path
        d="M92.7207 625.868H149.625V580.502H92.7207V625.868Z"
        fill="#DA3636"
        stroke="black"
        stroke-width="2.01185" />
    <path
        d="M92.7207 580.501H149.625V536.552H92.7207V580.501Z"
        fill="#DA3636"
        stroke="black"
        stroke-width="2.01185" />
    <path
        d="M92.7208 536.552H149.625V490.951H92.7208V536.552Z"
        fill="#DA3636"
        stroke="black"
        stroke-width="2.01185" />
    <path
        d="M192.317 490.951V438.385H165.616V379.678H10.1738V490.951H165.616H192.317Z"
        fill="#DA3636"
        stroke="black"
        stroke-width="2.01185" />
    <path
        d="M203.863 738.058V698.176H186.249V679.413H149.03V738.058H203.863Z"
        fill="#DA3636"
        stroke="black"
        stroke-width="2.01185" />
    <path
        d="M149.625 652.096H306.469V560.654H149.625V652.096Z"
        fill="#DA3636"
        stroke="black"
        stroke-width="2.01185" />
    <path
        d="M149.625 560.654H238.539V508.907H149.625V560.654Z"
        fill="#DA3636"
        stroke="black"
        stroke-width="2.01185" />
    <path
        d="M149.625 508.907H192.317V490.951H149.625V508.907Z"
        fill="#DA3636"
        stroke="black"
        stroke-width="2.01185" />
    <path
        d="M192.317 508.907H238.539V466.376H192.317V508.907Z"
        fill="#DA3636"
        stroke="black"
        stroke-width="2.01185" />
    <path
        d="M192.317 466.376H245.652V422.781H192.317V466.376Z"
        fill="#DA3636"
        stroke="black"
        stroke-width="2.01185" />
    <path
        d="M306.468 652.096H417.621V560.654H306.468V652.096Z"
        fill="#DA3636"
        stroke="black"
        stroke-width="2.01185" />
    <path
        d="M417.621 652.096H466.912V606.248H417.621V652.096Z"
        fill="#DA3636"
        stroke="black"
        stroke-width="2.01185" />
    <path
        d="M417.621 606.248H466.912V560.654H417.621V606.248Z"
        fill="#DA3636"
        stroke="black"
        stroke-width="2.01185" />
    <path
        d="M417.62 560.654H456.349V509.008H417.62V560.654Z"
        fill="#DA3636"
        stroke="black"
        stroke-width="2.01185" />
    <path
        d="M417.62 509.008H456.349V422.795H417.62V509.008Z"
        fill="#DA3636"
        stroke="black"
        stroke-width="2.01185" />
    <path
        d="M332.619 560.654H417.621V422.795H332.619V560.654Z"
        fill="#DA3636"
        stroke="black"
        stroke-width="2.01185" />
    <path
        d="M332.619 422.795H245.652V466.376H238.539V560.654H332.619V422.795Z"
        fill="#DA3636"
        stroke="black"
        stroke-width="2.01185" />
    <path
        d="M201.344 382.195H294.393V246.36H201.344V382.195Z"
        fill="#DA3636"
        stroke="black"
        stroke-width="2.01185" />
    <path
        d="M240.575 382.195H294.393V286.459H240.575V382.195Z"
        fill="#DA3636"
        stroke="black"
        stroke-width="2.01185" />
    <path
        d="M294.393 382.195H329.098V344.101H294.393V382.195Z"
        fill="#DA3636"
        stroke="black"
        stroke-width="2.01185" />
    <path
        d="M329.098 372.763H389.454V344.101H329.098V372.763Z"
        fill="#DA3636"
        stroke="black"
        stroke-width="2.01185" />
    <path
        d="M389.454 382.195H457.858V344.101H389.454V382.195Z"
        fill="#DA3636"
        stroke="black"
        stroke-width="2.01185" />
    <path
        d="M457.858 382.195H512.179V274.93H457.858V382.195Z"
        fill="#DA3636"
        stroke="black"
        stroke-width="2.01185" />
    <path
        d="M457.861 330.555V274.918H444.293H424.158V246.356H294.39V330.555H457.861Z"
        fill="#DA3636"
        stroke="black"
        stroke-width="2.01185" />
    <path
        d="M369.838 298.489H424.159V246.36H369.838V298.489Z"
        fill="#DA3636"
        stroke="black"
        stroke-width="2.01185" />
    <path
        d="M444.293 274.93H512.179V246.356H444.293V274.93Z"
        fill="#DA3636"
        stroke="black"
        stroke-width="2.01185" />
    <path
        d="M240.575 53.5104H150.041V159.646H240.575V53.5104Z"
        fill="#DA3636"
        stroke="black"
        stroke-width="2" />
    <path
        d="M10.1562 898.469V973.5H58V912.5H65.0312V898.469H58H10.1562Z"
        fill="#DA3636"
        stroke="black"
        stroke-width="2" />
    <path
        d="M462.888 735.567L478.456 750.651L491.557 735.567H462.888Z"
        fill="#DA3636"
        stroke="black"
        stroke-width="2" />
    <path
        d="M715.037 693.761C716.29 694.978 717.777 695.587 719.5 695.587C721.223 695.587 722.671 694.978 723.846 693.761C725.098 692.463 725.725 690.921 725.725 689.136C725.725 687.351 725.098 685.85 723.846 684.632C722.671 683.334 721.223 682.685 719.5 682.685C717.777 682.685 716.29 683.334 715.037 684.632C713.862 685.85 713.275 687.351 713.275 689.136C713.275 690.921 713.862 692.463 715.037 693.761ZM707.05 676.356C710.496 672.785 714.645 671 719.5 671C724.355 671 728.465 672.785 731.832 676.356C735.277 679.845 737 684.105 737 689.136C737 691.651 736.374 694.532 735.121 697.778C733.946 701.024 732.498 704.067 730.775 706.907C729.053 709.747 727.33 712.425 725.607 714.94C723.963 717.375 722.554 719.322 721.379 720.783L719.5 722.852C719.03 722.284 718.404 721.554 717.621 720.661C716.838 719.687 715.428 717.821 713.393 715.062C711.357 712.222 709.556 709.503 707.99 706.907C706.502 704.229 705.132 701.227 703.879 697.9C702.626 694.573 702 691.651 702 689.136C702 684.105 703.683 679.845 707.05 676.356Z"
        fill="#666666" />
    <path
        d="M719.5 702.941C726.404 702.941 732 696.686 732 688.971C732 681.255 726.404 675 719.5 675C712.596 675 707 681.255 707 688.971C707 696.686 712.596 702.941 719.5 702.941Z"
        fill="#F7D6D6" />
    <path
        d="M728.219 681.305H723.609C723.178 681.305 722.828 681.654 722.828 682.086V685.914H719C718.569 685.914 718.219 686.264 718.219 686.695V690.523H714.391C713.959 690.523 713.609 690.873 713.609 691.305V695.133H709.781C709.35 695.133 709 695.483 709 695.914C709 696.345 709.35 696.695 709.781 696.695H714.391C714.598 696.695 714.797 696.613 714.943 696.466C715.09 696.32 715.172 696.121 715.172 695.914L715.172 692.086H719C719.207 692.086 719.406 692.004 719.552 691.857C719.699 691.711 719.781 691.512 719.781 691.305L719.781 687.477H723.609C723.817 687.477 724.015 687.394 724.162 687.248C724.308 687.101 724.391 686.902 724.391 686.695V682.867H728.219C728.65 682.867 729 682.517 729 682.086C729 681.654 728.65 681.305 728.219 681.305Z"
        fill="#DA3636" />
    <path
        d="M711.037 257.761C712.29 258.978 713.777 259.587 715.5 259.587C717.223 259.587 718.671 258.978 719.846 257.761C721.098 256.463 721.725 254.921 721.725 253.136C721.725 251.351 721.098 249.85 719.846 248.632C718.671 247.334 717.223 246.685 715.5 246.685C713.777 246.685 712.29 247.334 711.037 248.632C709.862 249.85 709.275 251.351 709.275 253.136C709.275 254.921 709.862 256.463 711.037 257.761ZM703.05 240.356C706.496 236.785 710.645 235 715.5 235C720.355 235 724.465 236.785 727.832 240.356C731.277 243.845 733 248.105 733 253.136C733 255.651 732.374 258.532 731.121 261.778C729.946 265.024 728.498 268.067 726.775 270.907C725.053 273.747 723.33 276.425 721.607 278.94C719.963 281.375 718.554 283.322 717.379 284.783L715.5 286.852C715.03 286.284 714.404 285.554 713.621 284.661C712.838 283.687 711.428 281.821 709.393 279.062C707.357 276.222 705.556 273.503 703.99 270.907C702.502 268.229 701.132 265.227 699.879 261.9C698.626 258.573 698 255.651 698 253.136C698 248.105 699.683 243.845 703.05 240.356Z"
        fill="#666666" />
    <path
        d="M715.5 266.941C722.404 266.941 728 260.686 728 252.971C728 245.255 722.404 239 715.5 239C708.596 239 703 245.255 703 252.971C703 260.686 708.596 266.941 715.5 266.941Z"
        fill="#F7D6D6" />
    <path
        d="M724.219 245.305H719.609C719.178 245.305 718.828 245.654 718.828 246.086V249.914H715C714.569 249.914 714.219 250.264 714.219 250.695V254.523H710.391C709.959 254.523 709.609 254.873 709.609 255.305V259.133H705.781C705.35 259.133 705 259.483 705 259.914C705 260.345 705.35 260.695 705.781 260.695H710.391C710.598 260.695 710.797 260.613 710.943 260.466C711.09 260.32 711.172 260.121 711.172 259.914L711.172 256.086H715C715.207 256.086 715.406 256.004 715.552 255.857C715.699 255.711 715.781 255.512 715.781 255.305L715.781 251.477H719.609C719.817 251.477 720.015 251.394 720.162 251.248C720.308 251.101 720.391 250.902 720.391 250.695V246.867H724.219C724.65 246.867 725 246.517 725 246.086C725 245.654 724.65 245.305 724.219 245.305Z"
        fill="#DA3636" />
    <path
        d="M264.037 351.761C265.29 352.978 266.777 353.587 268.5 353.587C270.223 353.587 271.671 352.978 272.846 351.761C274.098 350.463 274.725 348.921 274.725 347.136C274.725 345.351 274.098 343.85 272.846 342.632C271.671 341.334 270.223 340.685 268.5 340.685C266.777 340.685 265.29 341.334 264.037 342.632C262.862 343.85 262.275 345.351 262.275 347.136C262.275 348.921 262.862 350.463 264.037 351.761ZM256.05 334.356C259.496 330.785 263.645 329 268.5 329C273.355 329 277.465 330.785 280.832 334.356C284.277 337.845 286 342.105 286 347.136C286 349.651 285.374 352.532 284.121 355.778C282.946 359.024 281.498 362.067 279.775 364.907C278.053 367.747 276.33 370.425 274.607 372.94C272.963 375.375 271.554 377.322 270.379 378.783L268.5 380.852C268.03 380.284 267.404 379.554 266.621 378.661C265.838 377.687 264.428 375.821 262.393 373.062C260.357 370.222 258.556 367.503 256.99 364.907C255.502 362.229 254.132 359.227 252.879 355.9C251.626 352.573 251 349.651 251 347.136C251 342.105 252.683 337.845 256.05 334.356Z"
        fill="#666666" />
    <path
        d="M268.5 360.941C275.404 360.941 281 354.686 281 346.971C281 339.255 275.404 333 268.5 333C261.596 333 256 339.255 256 346.971C256 354.686 261.596 360.941 268.5 360.941Z"
        fill="#F7D6D6" />
    <path
        d="M277.219 339.305H272.609C272.178 339.305 271.828 339.654 271.828 340.086V343.914H268C267.569 343.914 267.219 344.264 267.219 344.695V348.523H263.391C262.959 348.523 262.609 348.873 262.609 349.305V353.133H258.781C258.35 353.133 258 353.483 258 353.914C258 354.345 258.35 354.695 258.781 354.695H263.391C263.598 354.695 263.797 354.613 263.943 354.466C264.09 354.32 264.172 354.121 264.172 353.914L264.172 350.086H268C268.207 350.086 268.406 350.004 268.552 349.857C268.699 349.711 268.781 349.512 268.781 349.305L268.781 345.477H272.609C272.817 345.477 273.015 345.394 273.162 345.248C273.308 345.101 273.391 344.902 273.391 344.695V340.867H277.219C277.65 340.867 278 340.517 278 340.086C278 339.654 277.65 339.305 277.219 339.305Z"
        fill="#DA3636" />
    <path
        d="M297.037 689.761C298.29 690.978 299.777 691.587 301.5 691.587C303.223 691.587 304.671 690.978 305.846 689.761C307.098 688.463 307.725 686.921 307.725 685.136C307.725 683.351 307.098 681.85 305.846 680.632C304.671 679.334 303.223 678.685 301.5 678.685C299.777 678.685 298.29 679.334 297.037 680.632C295.862 681.85 295.275 683.351 295.275 685.136C295.275 686.921 295.862 688.463 297.037 689.761ZM289.05 672.356C292.496 668.785 296.645 667 301.5 667C306.355 667 310.465 668.785 313.832 672.356C317.277 675.845 319 680.105 319 685.136C319 687.651 318.374 690.532 317.121 693.778C315.946 697.024 314.498 700.067 312.775 702.907C311.053 705.747 309.33 708.425 307.607 710.94C305.963 713.375 304.554 715.322 303.379 716.783L301.5 718.852C301.03 718.284 300.404 717.554 299.621 716.661C298.838 715.687 297.428 713.821 295.393 711.062C293.357 708.222 291.556 705.503 289.99 702.907C288.502 700.229 287.132 697.227 285.879 693.9C284.626 690.573 284 687.651 284 685.136C284 680.105 285.683 675.845 289.05 672.356Z"
        fill="#666666" />
    <path
        d="M301.5 698.941C308.404 698.941 314 692.686 314 684.971C314 677.255 308.404 671 301.5 671C294.596 671 289 677.255 289 684.971C289 692.686 294.596 698.941 301.5 698.941Z"
        fill="#F7D6D6" />
    <path
        d="M310.219 677.305H305.609C305.178 677.305 304.828 677.654 304.828 678.086V681.914H301C300.569 681.914 300.219 682.264 300.219 682.695V686.523H296.391C295.959 686.523 295.609 686.873 295.609 687.305V691.133H291.781C291.35 691.133 291 691.483 291 691.914C291 692.345 291.35 692.695 291.781 692.695H296.391C296.598 692.695 296.797 692.613 296.943 692.466C297.09 692.32 297.172 692.121 297.172 691.914L297.172 688.086H301C301.207 688.086 301.406 688.004 301.552 687.857C301.699 687.711 301.781 687.512 301.781 687.305L301.781 683.477H305.609C305.817 683.477 306.015 683.394 306.162 683.248C306.308 683.101 306.391 682.902 306.391 682.695V678.867H310.219C310.65 678.867 311 678.517 311 678.086C311 677.654 310.65 677.305 310.219 677.305Z"
        fill="#DA3636" />
    <path
        d="M355.037 343.761C356.29 344.978 357.777 345.587 359.5 345.587C361.223 345.587 362.671 344.978 363.846 343.761C365.098 342.463 365.725 340.921 365.725 339.136C365.725 337.351 365.098 335.85 363.846 334.632C362.671 333.334 361.223 332.685 359.5 332.685C357.777 332.685 356.29 333.334 355.037 334.632C353.862 335.85 353.275 337.351 353.275 339.136C353.275 340.921 353.862 342.463 355.037 343.761ZM347.05 326.356C350.496 322.785 354.645 321 359.5 321C364.355 321 368.465 322.785 371.832 326.356C375.277 329.845 377 334.105 377 339.136C377 341.651 376.374 344.532 375.121 347.778C373.946 351.024 372.498 354.067 370.775 356.907C369.053 359.747 367.33 362.425 365.607 364.94C363.963 367.375 362.554 369.322 361.379 370.783L359.5 372.852C359.03 372.284 358.404 371.554 357.621 370.661C356.838 369.687 355.428 367.821 353.393 365.062C351.357 362.222 349.556 359.503 347.99 356.907C346.502 354.229 345.132 351.227 343.879 347.9C342.626 344.573 342 341.651 342 339.136C342 334.105 343.683 329.845 347.05 326.356Z"
        fill="#666666" />
    <path
        d="M359.5 352.941C366.404 352.941 372 346.686 372 338.971C372 331.255 366.404 325 359.5 325C352.596 325 347 331.255 347 338.971C347 346.686 352.596 352.941 359.5 352.941Z"
        fill="#F7D6D6" />
    <path
        d="M366.632 331.002H352.365C351.612 331.002 351 331.614 351 332.367V346.637C351 347.386 351.612 347.999 352.365 347.999H366.635C367.388 347.999 368 347.386 368 346.634V332.367C367.997 331.614 367.384 331.002 366.632 331.002ZM359.027 347.055H352.365C352.134 347.055 351.947 346.868 351.947 346.637V332.367C351.947 332.136 352.134 331.949 352.365 331.949H359.027V347.055ZM366.635 347.052H359.97V331.945H366.632C366.862 331.945 367.05 332.133 367.05 332.364V346.634H367.053C367.053 346.864 366.866 347.052 366.635 347.052Z"
        fill="#DA3636" />
    <path
        d="M357.314 339.865C357.13 339.681 356.832 339.681 356.644 339.865L355.959 340.551V337.308C355.959 337.047 355.748 336.837 355.487 336.837C355.226 336.837 355.015 337.047 355.015 337.308V340.551L354.329 339.868C354.145 339.684 353.847 339.684 353.66 339.868C353.476 340.052 353.476 340.35 353.66 340.537L355.152 342.026C355.246 342.12 355.366 342.163 355.487 342.163C355.607 342.163 355.728 342.116 355.821 342.026L357.314 340.534C357.498 340.35 357.498 340.052 357.314 339.865Z"
        fill="#DA3636" />
    <path
        d="M365.337 338.466L363.845 336.974C363.751 336.88 363.63 336.837 363.51 336.837C363.39 336.837 363.269 336.884 363.175 336.974L361.683 338.466C361.499 338.65 361.499 338.948 361.683 339.135C361.867 339.319 362.165 339.319 362.352 339.135L363.038 338.449V341.691C363.038 341.952 363.249 342.163 363.51 342.163C363.771 342.163 363.982 341.952 363.982 341.691V338.449L364.668 339.135C364.852 339.319 365.149 339.319 365.337 339.135C365.521 338.951 365.521 338.653 365.337 338.466Z"
        fill="#DA3636" />
    <path
        d="M393.037 253.761C394.29 254.978 395.777 255.587 397.5 255.587C399.223 255.587 400.671 254.978 401.846 253.761C403.098 252.463 403.725 250.921 403.725 249.136C403.725 247.351 403.098 245.85 401.846 244.632C400.671 243.334 399.223 242.685 397.5 242.685C395.777 242.685 394.29 243.334 393.037 244.632C391.862 245.85 391.275 247.351 391.275 249.136C391.275 250.921 391.862 252.463 393.037 253.761ZM385.05 236.356C388.496 232.785 392.645 231 397.5 231C402.355 231 406.465 232.785 409.832 236.356C413.277 239.845 415 244.105 415 249.136C415 251.651 414.374 254.532 413.121 257.778C411.946 261.024 410.498 264.067 408.775 266.907C407.053 269.747 405.33 272.425 403.607 274.94C401.963 277.375 400.554 279.322 399.379 280.783L397.5 282.852C397.03 282.284 396.404 281.554 395.621 280.661C394.838 279.687 393.428 277.821 391.393 275.062C389.357 272.222 387.556 269.503 385.99 266.907C384.502 264.229 383.132 261.227 381.879 257.9C380.626 254.573 380 251.651 380 249.136C380 244.105 381.683 239.845 385.05 236.356Z"
        fill="#08648B" />
    <path
        d="M397.5 263.941C404.404 263.941 410 257.686 410 249.971C410 242.255 404.404 236 397.5 236C390.596 236 385 242.255 385 249.971C385 257.686 390.596 263.941 397.5 263.941Z"
        fill="#F7D6D6" />
    <path
        d="M397.84 238C396.382 238 395.2 239.182 395.2 240.64C395.201 242.097 396.383 243.279 397.84 243.28C399.298 243.28 400.48 242.098 400.48 240.64C400.48 239.182 399.298 238 397.84 238ZM397.84 242.4C396.868 242.4 396.08 241.612 396.08 240.64C396.08 239.668 396.868 238.88 397.84 238.88C398.812 238.88 399.6 239.668 399.6 240.64C399.6 241.612 398.812 242.4 397.84 242.4Z"
        fill="#DA3636" />
    <path
        d="M402.662 253.274L400.022 244.474C399.966 244.288 399.794 244.16 399.6 244.16H396.08C395.886 244.16 395.714 244.288 395.658 244.474L393.018 253.274C392.978 253.408 393.004 253.552 393.088 253.664C393.171 253.775 393.302 253.84 393.44 253.84H395.2V259.56C395.2 259.803 395.397 260 395.64 260H400.04C400.283 260 400.48 259.803 400.48 259.56V253.84H402.24C402.483 253.84 402.68 253.643 402.68 253.4C402.68 253.357 402.674 253.315 402.662 253.274ZM400.04 252.96C399.797 252.96 399.6 253.157 399.6 253.4V259.12H398.28V252.96H397.4V259.12H396.08V253.4C396.08 253.157 395.883 252.96 395.64 252.96H394.031L396.407 245.04H399.273L401.649 252.96H400.04Z"
        fill="#DA3636" />
    <path
        d="M642.037 253.761C643.29 254.978 644.777 255.587 646.5 255.587C648.223 255.587 649.671 254.978 650.846 253.761C652.098 252.463 652.725 250.921 652.725 249.136C652.725 247.351 652.098 245.85 650.846 244.632C649.671 243.334 648.223 242.685 646.5 242.685C644.777 242.685 643.29 243.334 642.037 244.632C640.862 245.85 640.275 247.351 640.275 249.136C640.275 250.921 640.862 252.463 642.037 253.761ZM634.05 236.356C637.496 232.785 641.645 231 646.5 231C651.355 231 655.465 232.785 658.832 236.356C662.277 239.845 664 244.105 664 249.136C664 251.651 663.374 254.532 662.121 257.778C660.946 261.024 659.498 264.067 657.775 266.907C656.053 269.747 654.33 272.425 652.607 274.94C650.963 277.375 649.554 279.322 648.379 280.783L646.5 282.852C646.03 282.284 645.404 281.554 644.621 280.661C643.838 279.687 642.428 277.821 640.393 275.062C638.357 272.222 636.556 269.503 634.99 266.907C633.502 264.229 632.132 261.227 630.879 257.9C629.626 254.573 629 251.651 629 249.136C629 244.105 630.683 239.845 634.05 236.356Z"
        fill="#08648B" />
    <path
        d="M646.5 263.941C653.404 263.941 659 257.686 659 249.971C659 242.255 653.404 236 646.5 236C639.596 236 634 242.255 634 249.971C634 257.686 639.596 263.941 646.5 263.941Z"
        fill="#F7D6D6" />
    <path
        d="M647 239C645.675 239 644.6 240.075 644.6 241.4C644.6 242.726 645.675 243.8 647 243.8C648.325 243.799 649.399 242.725 649.4 241.4C649.4 240.075 648.326 239 647 239ZM647 243C646.116 243 645.4 242.284 645.4 241.4C645.4 240.516 646.116 239.8 647 239.8C647.884 239.8 648.6 240.516 648.6 241.4C648.6 242.284 647.884 243 647 243Z"
        fill="#DA3636" />
    <path
        d="M648.2 244.6H645.8C644.254 244.602 643.002 245.854 643 247.4V253C643 253.221 643.179 253.4 643.4 253.4H644.6V258.6C644.6 258.821 644.779 259 645 259H649C649.221 259 649.4 258.821 649.4 258.6V253.4H650.6C650.821 253.4 651 253.221 651 253V247.4C650.998 245.854 649.746 244.602 648.2 244.6ZM650.2 252.6H649.4V247.8H648.6V258.2H647.4V252.6H646.6V258.2H645.4V247.8H644.6V252.6H643.8V247.4C643.801 246.296 644.696 245.401 645.8 245.4H648.2C649.304 245.401 650.199 246.296 650.2 247.4V252.6Z"
        fill="#DA3636" />
    <path
        d="M482.037 622.761C483.29 623.978 484.777 624.587 486.5 624.587C488.223 624.587 489.671 623.978 490.846 622.761C492.098 621.463 492.725 619.921 492.725 618.136C492.725 616.351 492.098 614.85 490.846 613.632C489.671 612.334 488.223 611.685 486.5 611.685C484.777 611.685 483.29 612.334 482.037 613.632C480.862 614.85 480.275 616.351 480.275 618.136C480.275 619.921 480.862 621.463 482.037 622.761ZM474.05 605.356C477.496 601.785 481.645 600 486.5 600C491.355 600 495.465 601.785 498.832 605.356C502.277 608.845 504 613.105 504 618.136C504 620.651 503.374 623.532 502.121 626.778C500.946 630.024 499.498 633.067 497.775 635.907C496.053 638.747 494.33 641.425 492.607 643.94C490.963 646.375 489.554 648.322 488.379 649.783L486.5 651.852C486.03 651.284 485.404 650.554 484.621 649.661C483.838 648.687 482.428 646.821 480.393 644.062C478.357 641.222 476.556 638.503 474.99 635.907C473.502 633.229 472.132 630.227 470.879 626.9C469.626 623.573 469 620.651 469 618.136C469 613.105 470.683 608.845 474.05 605.356Z"
        fill="#666666" />
    <path
        d="M486.5 631.941C493.404 631.941 499 625.686 499 617.971C499 610.255 493.404 604 486.5 604C479.596 604 474 610.255 474 617.971C474 625.686 479.596 631.941 486.5 631.941Z"
        fill="#F7D6D6" />
    <path
        d="M481.401 622.207C481.08 622.198 480.769 622.321 480.542 622.548C480.315 622.776 480.191 623.086 480.201 623.407C480.201 623.573 480.335 623.707 480.501 623.707C480.667 623.707 480.801 623.573 480.801 623.407C480.791 623.245 480.851 623.086 480.966 622.971C481.081 622.856 481.24 622.797 481.403 622.807C481.568 622.807 481.702 622.672 481.702 622.507C481.701 622.341 481.567 622.207 481.401 622.207Z"
        fill="#DA3636" />
    <path
        d="M494.601 615.907C494.763 615.897 494.922 615.957 495.037 616.072C495.151 616.186 495.211 616.345 495.201 616.507C495.201 616.673 495.335 616.807 495.501 616.807C495.666 616.807 495.801 616.673 495.801 616.507C495.81 616.186 495.687 615.876 495.46 615.648C495.233 615.421 494.922 615.298 494.601 615.307C494.435 615.307 494.301 615.442 494.301 615.607C494.301 615.773 494.435 615.907 494.601 615.907Z"
        fill="#DA3636" />
    <path
        d="M488.601 619.507C488.435 619.507 488.301 619.642 488.301 619.807V620.407H487.701C487.535 620.407 487.401 620.542 487.401 620.707V621.307H486.801C486.635 621.307 486.501 621.442 486.501 621.607V622.207H485.901C485.735 622.207 485.601 622.342 485.601 622.507V623.107H485.001C484.835 623.107 484.701 623.242 484.701 623.407V624.307C484.701 624.473 484.835 624.607 485.001 624.607C485.167 624.607 485.301 624.473 485.301 624.307V623.707H485.901C486.067 623.707 486.201 623.573 486.201 623.407V622.807H486.801C486.967 622.807 487.101 622.673 487.101 622.507V621.907H487.701C487.867 621.907 488.001 621.773 488.001 621.607V621.007H488.601C488.767 621.007 488.901 620.873 488.901 620.707V620.107H489.501C489.667 620.107 489.801 619.973 489.801 619.807V619.207H490.401C490.567 619.207 490.701 619.073 490.701 618.907V618.307H491.301C491.467 618.307 491.601 618.173 491.601 618.007V617.407H492.201C492.367 617.407 492.501 617.273 492.501 617.107C492.501 616.942 492.367 616.807 492.201 616.807H491.301C491.135 616.807 491.001 616.942 491.001 617.107V617.707H490.401C490.235 617.707 490.101 617.842 490.101 618.007V618.607H489.501C489.335 618.607 489.201 618.742 489.201 618.907V619.507H488.601Z"
        fill="#DA3636" />
    <path
        d="M483.201 618.007V621.007H481.401C480.105 621.007 479.043 622.035 479.001 623.33C478.983 623.967 479.227 624.584 479.676 625.037C480.152 625.527 480.805 625.805 481.488 625.807H484.822C485.38 625.809 485.914 625.587 486.307 625.192L492.504 618.995C492.561 618.939 492.637 618.908 492.716 618.907H494.514C495.197 618.905 495.85 618.627 496.326 618.137C496.775 617.684 497.018 617.067 497.001 616.43C496.959 615.135 495.897 614.107 494.601 614.107H491.481C490.924 614.106 490.389 614.327 489.996 614.722L488.901 615.817V615.007C488.902 614.689 488.775 614.384 488.549 614.159C488.53 614.14 488.507 614.125 488.486 614.107C488.865 613.779 489 613.251 488.825 612.781C488.65 612.311 488.202 612 487.701 612C487.2 612 486.751 612.311 486.576 612.781C486.401 613.251 486.537 613.779 486.916 614.107C486.653 614.333 486.502 614.661 486.501 615.007V618.217L485.601 619.117V618.007C485.602 617.689 485.475 617.384 485.249 617.159C485.23 617.14 485.207 617.125 485.186 617.107C485.565 616.779 485.7 616.251 485.525 615.781C485.35 615.311 484.902 615 484.401 615C483.9 615 483.451 615.311 483.276 615.781C483.101 616.251 483.237 616.779 483.615 617.107C483.353 617.333 483.202 617.661 483.201 618.007ZM490.419 615.147C490.7 614.864 491.082 614.706 491.481 614.707H494.601C495.573 614.707 496.369 615.478 496.401 616.449C496.413 616.924 496.23 617.382 495.896 617.719C495.533 618.093 495.035 618.305 494.514 618.307H492.716C492.478 618.307 492.248 618.402 492.08 618.571L485.883 624.768C485.602 625.05 485.22 625.208 484.822 625.207H481.488C480.967 625.205 480.47 624.993 480.108 624.619C479.772 624.283 479.589 623.824 479.601 623.349C479.632 622.378 480.429 621.607 481.401 621.607H483.585C483.824 621.608 484.053 621.513 484.222 621.344L490.419 615.147ZM487.101 613.207C487.101 612.876 487.37 612.607 487.701 612.607C488.032 612.607 488.301 612.876 488.301 613.207C488.301 613.539 488.032 613.807 487.701 613.807C487.37 613.807 487.101 613.539 487.101 613.207ZM487.101 615.007C487.101 614.676 487.37 614.407 487.701 614.407C488.032 614.407 488.301 614.676 488.301 615.007V616.417L487.101 617.617V615.007ZM483.801 616.207C483.801 615.876 484.07 615.607 484.401 615.607C484.732 615.607 485.001 615.876 485.001 616.207C485.001 616.539 484.732 616.807 484.401 616.807C484.07 616.807 483.801 616.539 483.801 616.207ZM484.825 617.583C484.938 617.696 485.001 617.848 485.001 618.007V619.717L483.801 620.917V618.007C483.801 617.765 483.947 617.547 484.171 617.454C484.395 617.361 484.653 617.412 484.825 617.583Z"
        fill="#DA3636" />
    <path
        d="M481.088 613.581C481.205 613.698 481.395 613.698 481.512 613.581L483.795 611.298C483.908 611.185 483.913 611.003 483.806 610.885L483.547 610.6H485.569V612.825L485.233 612.456C485.178 612.395 485.1 612.36 485.018 612.358C484.936 612.353 484.855 612.385 484.799 612.446L482.588 614.657C482.51 614.732 482.479 614.844 482.506 614.949C482.533 615.053 482.615 615.135 482.72 615.163C482.825 615.19 482.937 615.159 483.012 615.081L485.001 613.092L485.125 613.229C485.292 613.412 485.554 613.474 485.785 613.385C486.016 613.296 486.169 613.074 486.169 612.826V610.6C486.169 610.269 485.9 610 485.569 610H483.547C483.309 609.998 483.093 610.138 482.999 610.356C482.901 610.573 482.941 610.827 483.102 611.002L483.169 611.076L481.088 613.157C480.971 613.274 480.971 613.464 481.088 613.581Z"
        fill="#DA3636" />
    <path
        d="M471.037 425.761C472.29 426.978 473.777 427.587 475.5 427.587C477.223 427.587 478.671 426.978 479.846 425.761C481.098 424.463 481.725 422.921 481.725 421.136C481.725 419.351 481.098 417.85 479.846 416.632C478.671 415.334 477.223 414.685 475.5 414.685C473.777 414.685 472.29 415.334 471.037 416.632C469.862 417.85 469.275 419.351 469.275 421.136C469.275 422.921 469.862 424.463 471.037 425.761ZM463.05 408.356C466.496 404.785 470.645 403 475.5 403C480.355 403 484.465 404.785 487.832 408.356C491.277 411.845 493 416.105 493 421.136C493 423.651 492.374 426.532 491.121 429.778C489.946 433.024 488.498 436.067 486.775 438.907C485.053 441.747 483.33 444.425 481.607 446.94C479.963 449.375 478.554 451.322 477.379 452.783L475.5 454.852C475.03 454.284 474.404 453.554 473.621 452.661C472.838 451.687 471.428 449.821 469.393 447.062C467.357 444.222 465.556 441.503 463.99 438.907C462.502 436.229 461.132 433.227 459.879 429.9C458.626 426.573 458 423.651 458 421.136C458 416.105 459.683 411.845 463.05 408.356Z"
        fill="#666666" />
    <path
        d="M475.5 435.941C482.404 435.941 488 429.686 488 421.971C488 414.255 482.404 408 475.5 408C468.596 408 463 414.255 463 421.971C463 429.686 468.596 435.941 475.5 435.941Z"
        fill="#F7D6D6" />
    <path
        d="M469.401 424.207C469.08 424.198 468.769 424.321 468.542 424.548C468.315 424.776 468.191 425.086 468.201 425.407C468.201 425.573 468.335 425.707 468.501 425.707C468.667 425.707 468.801 425.573 468.801 425.407C468.791 425.245 468.851 425.086 468.966 424.971C469.081 424.856 469.24 424.797 469.403 424.807C469.568 424.807 469.702 424.672 469.702 424.506C469.701 424.341 469.567 424.207 469.401 424.207Z"
        fill="#DA3636" />
    <path
        d="M482.601 417.907C482.763 417.897 482.922 417.957 483.037 418.072C483.151 418.187 483.211 418.345 483.201 418.507C483.201 418.673 483.335 418.807 483.501 418.807C483.666 418.807 483.801 418.673 483.801 418.507C483.81 418.186 483.687 417.876 483.46 417.648C483.233 417.421 482.922 417.298 482.601 417.307C482.435 417.307 482.301 417.442 482.301 417.607C482.301 417.773 482.435 417.907 482.601 417.907Z"
        fill="#DA3636" />
    <path
        d="M476.601 421.507C476.435 421.507 476.301 421.642 476.301 421.807V422.407H475.701C475.535 422.407 475.401 422.542 475.401 422.707V423.307H474.801C474.635 423.307 474.501 423.442 474.501 423.607V424.207H473.901C473.735 424.207 473.601 424.342 473.601 424.507V425.107H473.001C472.835 425.107 472.701 425.242 472.701 425.407V426.307C472.701 426.473 472.835 426.607 473.001 426.607C473.167 426.607 473.301 426.473 473.301 426.307V425.707H473.901C474.067 425.707 474.201 425.573 474.201 425.407V424.807H474.801C474.967 424.807 475.101 424.673 475.101 424.507V423.907H475.701C475.867 423.907 476.001 423.773 476.001 423.607V423.007H476.601C476.767 423.007 476.901 422.873 476.901 422.707V422.107H477.501C477.667 422.107 477.801 421.973 477.801 421.807V421.207H478.401C478.567 421.207 478.701 421.073 478.701 420.907V420.307H479.301C479.467 420.307 479.601 420.173 479.601 420.007V419.407H480.201C480.367 419.407 480.501 419.273 480.501 419.107C480.501 418.942 480.367 418.807 480.201 418.807H479.301C479.135 418.807 479.001 418.942 479.001 419.107V419.707H478.401C478.235 419.707 478.101 419.842 478.101 420.007V420.607H477.501C477.335 420.607 477.201 420.742 477.201 420.907V421.507H476.601Z"
        fill="#DA3636" />
    <path
        d="M471.201 420.007V423.007H469.401C468.105 423.007 467.043 424.035 467.001 425.33C466.983 425.967 467.227 426.584 467.676 427.037C468.152 427.527 468.805 427.805 469.488 427.807H472.822C473.38 427.809 473.914 427.587 474.307 427.192L480.504 420.995C480.561 420.939 480.637 420.908 480.716 420.907H482.514C483.197 420.905 483.85 420.627 484.326 420.137C484.775 419.684 485.018 419.067 485.001 418.43C484.959 417.135 483.897 416.107 482.601 416.107H479.481C478.924 416.106 478.389 416.327 477.996 416.722L476.901 417.817V417.007C476.902 416.689 476.775 416.384 476.549 416.159C476.53 416.14 476.507 416.125 476.486 416.107C476.865 415.779 477 415.251 476.825 414.781C476.65 414.311 476.202 414 475.701 414C475.2 414 474.751 414.311 474.576 414.781C474.401 415.251 474.537 415.779 474.916 416.107C474.653 416.333 474.502 416.661 474.501 417.007V420.217L473.601 421.117V420.007C473.602 419.689 473.475 419.384 473.249 419.159C473.23 419.14 473.207 419.125 473.186 419.107C473.565 418.78 473.7 418.251 473.525 417.781C473.35 417.311 472.902 417 472.401 417C471.9 417 471.451 417.311 471.276 417.781C471.101 418.251 471.237 418.78 471.615 419.107C471.353 419.333 471.202 419.661 471.201 420.007ZM478.419 417.147C478.7 416.864 479.082 416.706 479.481 416.707H482.601C483.573 416.707 484.369 417.478 484.401 418.449C484.413 418.924 484.23 419.382 483.896 419.719C483.533 420.093 483.035 420.305 482.514 420.307H480.716C480.478 420.307 480.248 420.402 480.08 420.571L473.883 426.768C473.602 427.05 473.22 427.208 472.822 427.207H469.488C468.967 427.205 468.47 426.993 468.108 426.619C467.772 426.283 467.589 425.824 467.601 425.349C467.632 424.378 468.429 423.607 469.401 423.607H471.585C471.824 423.608 472.053 423.513 472.222 423.344L478.419 417.147ZM475.101 415.207C475.101 414.876 475.37 414.607 475.701 414.607C476.032 414.607 476.301 414.876 476.301 415.207C476.301 415.539 476.032 415.807 475.701 415.807C475.37 415.807 475.101 415.539 475.101 415.207ZM475.101 417.007C475.101 416.676 475.37 416.407 475.701 416.407C476.032 416.407 476.301 416.676 476.301 417.007V418.417L475.101 419.617V417.007ZM471.801 418.207C471.801 417.876 472.07 417.607 472.401 417.607C472.732 417.607 473.001 417.876 473.001 418.207C473.001 418.539 472.732 418.807 472.401 418.807C472.07 418.807 471.801 418.539 471.801 418.207ZM472.825 419.583C472.938 419.696 473.001 419.848 473.001 420.007V421.717L471.801 422.917V420.007C471.801 419.765 471.947 419.547 472.171 419.454C472.395 419.361 472.653 419.412 472.825 419.583Z"
        fill="#DA3636" />
    <path
        d="M482.081 424.592C481.964 424.475 481.774 424.475 481.657 424.592L479.374 426.875C479.261 426.988 479.256 427.169 479.363 427.288L479.622 427.573H477.6V425.348L477.936 425.717C477.991 425.777 478.069 425.813 478.151 425.815C478.233 425.82 478.314 425.787 478.37 425.727L480.581 423.516C480.659 423.441 480.69 423.329 480.663 423.224C480.635 423.119 480.554 423.037 480.449 423.01C480.344 422.982 480.232 423.014 480.157 423.092L478.168 425.08L478.044 424.944C477.877 424.76 477.615 424.698 477.384 424.788C477.153 424.877 477 425.099 477 425.347V427.573C477 427.904 477.269 428.173 477.6 428.173H479.622C479.86 428.175 480.075 428.034 480.17 427.816C480.268 427.6 480.228 427.345 480.067 427.17L480 427.097L482.081 425.016C482.198 424.899 482.198 424.709 482.081 424.592Z"
        fill="#DA3636" />
</svg>