<svg width="35" height="52" viewBox="0 0 35 52" fill="none" xmlns="http://www.w3.org/2000/svg" id="stairfire">
    <path
        d="M13.0369 22.7613C14.2897 23.9784 15.7774 24.587 17.5 24.587C19.2226 24.587 20.6711 23.9784 21.8456 22.7613C23.0984 21.4629 23.7248 19.9212 23.7248 18.136C23.7248 16.3508 23.0984 14.8496 21.8456 13.6324C20.6711 12.3341 19.2226 11.6849 17.5 11.6849C15.7774 11.6849 14.2897 12.3341 13.0369 13.6324C11.8624 14.8496 11.2752 16.3508 11.2752 18.136C11.2752 19.9212 11.8624 21.4629 13.0369 22.7613ZM5.05034 5.35559C8.49553 1.7852 12.6454 0 17.5 0C22.3546 0 26.4653 1.7852 29.8322 5.35559C33.2774 8.84484 35 13.105 35 18.136C35 20.6515 34.3736 23.5321 33.1208 26.778C31.9463 30.0238 30.4978 33.0667 28.7752 35.9068C27.0526 38.7469 25.33 41.4247 23.6074 43.9402C21.9631 46.3745 20.5537 48.322 19.3792 49.7826L17.5 51.8519C17.0302 51.2838 16.4038 50.5535 15.6208 49.6609C14.8378 48.6872 13.4284 46.8208 11.3926 44.0619C9.35682 41.2218 7.55593 38.5034 5.98993 35.9068C4.50224 33.229 3.13199 30.2266 1.87919 26.8997C0.626398 23.5727 0 20.6515 0 18.136C0 13.105 1.68344 8.84484 5.05034 5.35559Z"
        fill="#666666"
        stroke-width="0"/>
    <path
        d="M17.5 32.9412C24.4036 32.9412 30 26.6863 30 18.9706C30 11.2549 24.4036 5 17.5 5C10.5964 5 5 11.2549 5 18.9706C5 26.6863 10.5964 32.9412 17.5 32.9412Z"
        fill="#F7D6D6"
        stroke-width="0"/>
    <path
        d="M29.2188 15H24.6094C24.1779 15 23.8282 15.3498 23.8282 15.7812V19.6094H20C19.5686 19.6094 19.2188 19.9591 19.2188 20.3906V24.2187H15.3907C14.9592 24.2187 14.6094 24.5685 14.6094 25V28.8281H10.7812C10.3498 28.8281 10 29.1779 10 29.6094C10 30.0408 10.3498 30.3906 10.7812 30.3906H15.3907C15.5978 30.3906 15.7966 30.3083 15.9431 30.1618C16.0896 30.0153 16.1719 29.8165 16.1719 29.6094L16.1719 25.7812H20C20.2072 25.7812 20.406 25.6989 20.5525 25.5524C20.699 25.4059 20.7813 25.2072 20.7813 25L20.7812 21.1719H24.6094C24.8166 21.1719 25.0153 21.0896 25.1618 20.943C25.3083 20.7965 25.3906 20.5978 25.3906 20.3906V16.5625H29.2188C29.6502 16.5625 30 16.2127 30 15.7812C30 15.3498 29.6502 15 29.2188 15Z"
        fill="#DA3636"
        stroke-width="0"/>
    <path
        d="M14.3264 14.6278C14.041 14.3505 13.702 14.2118 13.3096 14.2118C12.9171 14.2118 12.5871 14.3505 12.3195 14.6278C12.0341 14.9236 11.8913 15.2748 11.8913 15.6816C11.8913 16.0883 12.0341 16.4303 12.3195 16.7076C12.5871 17.0034 12.9171 17.1513 13.3096 17.1513C13.702 17.1513 14.041 17.0034 14.3264 16.7076C14.594 16.4303 14.7278 16.0883 14.7278 15.6816C14.7278 15.2748 14.594 14.9236 14.3264 14.6278ZM16.146 18.5934C15.3611 19.4068 14.4156 19.8135 13.3096 19.8135C12.2035 19.8135 11.267 19.4068 10.4999 18.5934C9.71496 17.7984 9.32249 16.8278 9.32249 15.6816C9.32249 15.1085 9.46521 14.4522 9.75063 13.7126C10.0182 12.9731 10.3482 12.2799 10.7407 11.6328C11.1332 10.9857 11.5256 10.3756 11.9181 9.80253C12.2927 9.24791 12.6138 8.80421 12.8814 8.47143L13.3096 8C13.4166 8.12941 13.5593 8.2958 13.7377 8.49916C13.9161 8.72101 14.2372 9.14623 14.701 9.7748C15.1648 10.4219 15.5751 11.0412 15.9319 11.6328C16.2709 12.2429 16.5831 12.9269 16.8685 13.6849C17.1539 14.4429 17.2966 15.1085 17.2966 15.6816C17.2966 16.8278 16.9131 17.7984 16.146 18.5934Z"
        fill="#DA3636"
        stroke-width="0"/>
    <path
        d="M13.3098 18.6947C14.8827 18.6947 16.1577 17.2697 16.1577 15.5118C16.1577 13.7539 14.8827 12.3288 13.3098 12.3288C11.737 12.3288 10.4619 13.7539 10.4619 15.5118C10.4619 17.2697 11.737 18.6947 13.3098 18.6947Z"
        fill="#DA3636"
        stroke-width="0"/>
    <path
        d="M11.2734 16.5879C10.9909 16.4142 10.69 16.363 10.3708 16.4342C10.0517 16.5055 9.80843 16.6782 9.64116 16.9523C9.46274 17.2448 9.41046 17.5564 9.48432 17.8871C9.55819 18.2179 9.73637 18.4702 10.0189 18.6439C10.2902 18.8359 10.5855 18.8962 10.9047 18.8249C11.2239 18.7537 11.4727 18.5718 11.6511 18.2794C11.8184 18.0053 11.8651 17.7028 11.7912 17.372C11.7173 17.0412 11.5447 16.7799 11.2734 16.5879ZM13.4735 19.4826C12.9828 20.2868 12.2877 20.7893 11.3882 20.9901C10.4886 21.191 9.65305 21.0303 8.88144 20.508C8.09869 20.004 7.60323 19.2859 7.39507 18.3537C7.29099 17.8875 7.28787 17.3279 7.38571 16.6746C7.46904 16.0245 7.61155 15.4008 7.81323 14.8032C8.01491 14.2057 8.2233 13.6382 8.43841 13.1008C8.64237 12.5817 8.82295 12.1625 8.98015 11.8433L9.24274 11.3821C9.3533 11.4679 9.49958 11.5774 9.6816 11.7104C9.86698 11.8584 10.2054 12.1459 10.6967 12.5729C11.1915 13.0149 11.6377 13.4441 12.0353 13.8605C12.4217 14.2951 12.7999 14.7947 13.1697 15.3594C13.5394 15.924 13.7764 16.4394 13.8805 16.9055C14.0886 17.8377 13.953 18.6968 13.4735 19.4826Z"
        fill="#DA3636"
        stroke-width="0"/>
    <path
        d="M11.185 20.0802C12.4642 19.7946 13.2424 18.404 12.9231 16.9743C12.6039 15.5446 11.3081 14.6171 10.0289 14.9028C8.74965 15.1884 7.97145 16.579 8.29069 18.0087C8.60994 19.4384 9.90574 20.3658 11.185 20.0802Z"
        fill="#DA3636"
        stroke-width="0"/>
    <path
        d="M16.8739 16.2564C16.6903 15.9488 16.428 15.7493 16.0868 15.6579C15.7456 15.5665 15.4264 15.6102 15.1292 15.7889C14.8122 15.9796 14.6063 16.2517 14.5115 16.6053C14.4168 16.9589 14.4612 17.2894 14.6447 17.597C14.8084 17.9165 15.0609 18.1219 15.4021 18.2133C15.7433 18.3048 16.0724 18.2551 16.3894 18.0645C16.6866 17.8857 16.8826 17.6196 16.9773 17.266C17.0721 16.9124 17.0376 16.5759 16.8739 16.2564ZM17.532 20.1277C16.6601 20.652 15.7435 20.7853 14.782 20.5277C13.8204 20.27 13.101 19.6983 12.6236 18.8125C12.1264 17.9385 12.0114 17.0033 12.2784 16.0069C12.4119 15.5087 12.6888 14.9714 13.1092 14.395C13.5141 13.8144 13.9625 13.2886 14.4544 12.8175C14.9463 12.3464 15.4296 11.9075 15.9042 11.5007C16.3591 11.1058 16.7416 10.7948 17.0518 10.5679L17.5338 10.2578C17.5967 10.3952 17.682 10.5731 17.7897 10.7915C17.8931 11.0259 18.0732 11.4703 18.33 12.1248C18.5825 12.7954 18.7949 13.4293 18.9673 14.0267C19.1198 14.6361 19.2319 15.3034 19.3034 16.0289C19.375 16.7543 19.344 17.3661 19.2105 17.8644C18.9435 18.8608 18.384 19.6152 17.532 20.1277Z"
        fill="#DA3636"
        stroke-width="0"/>
    <path
        d="M15.0427 19.5551C16.4101 19.9214 17.8505 18.9796 18.2599 17.4514C18.6694 15.9232 17.8929 14.3873 16.5256 14.021C15.1582 13.6546 13.7179 14.5964 13.3084 16.1246C12.8989 17.6528 13.6754 19.1887 15.0427 19.5551Z"
        fill="#DA3636"
        stroke-width="0"/>
    <path
        d="M12.6238 18.939C12.4825 18.8522 12.3321 18.8266 12.1725 18.8622C12.0129 18.8979 11.8913 18.9842 11.8076 19.1213C11.7184 19.2675 11.6923 19.4233 11.7292 19.5887C11.7662 19.7541 11.8552 19.8802 11.9965 19.9671C12.1322 20.063 12.2798 20.0932 12.4394 20.0576C12.599 20.0219 12.7234 19.931 12.8126 19.7848C12.8962 19.6478 12.9196 19.4965 12.8827 19.3311C12.8457 19.1657 12.7594 19.035 12.6238 18.939ZM13.7238 20.3864C13.4785 20.7885 13.1309 21.0397 12.6811 21.1402C12.2314 21.2406 11.8136 21.1603 11.4278 20.8991C11.0364 20.6471 10.7887 20.2881 10.6846 19.8219C10.6326 19.5889 10.631 19.309 10.6799 18.9824C10.7216 18.6574 10.7928 18.3455 10.8937 18.0467C10.9945 17.748 11.0987 17.4642 11.2063 17.1955C11.3082 16.936 11.3985 16.7264 11.4771 16.5668L11.6084 16.3362C11.6637 16.3791 11.7369 16.4338 11.8279 16.5003C11.9206 16.5743 12.0897 16.7181 12.3354 16.9316C12.5828 17.1526 12.8059 17.3672 13.0047 17.5753C13.1979 17.7927 13.387 18.0425 13.5719 18.3248C13.7568 18.6071 13.8753 18.8648 13.9273 19.0979C14.0314 19.564 13.9635 19.9935 13.7238 20.3864Z"
        fill="#DA6736"
        stroke-width="0"/>
    <path
        d="M12.5794 20.6852C13.219 20.5424 13.6081 19.8471 13.4485 19.1323C13.2889 18.4174 12.641 17.9537 12.0014 18.0965C11.3618 18.2393 10.9727 18.9346 11.1323 19.6495C11.2919 20.3643 11.9398 20.828 12.5794 20.6852Z"
        fill="#DA6736"
        stroke-width="0"/>
    <path
        d="M15.5827 18.4705C15.4638 18.2711 15.2937 18.1418 15.0726 18.0826C14.8514 18.0233 14.6446 18.0516 14.4519 18.1675C14.2464 18.2911 14.113 18.4674 14.0516 18.6966C13.9902 18.9258 14.0189 19.1401 14.1379 19.3394C14.244 19.5465 14.4076 19.6796 14.6288 19.7389C14.8499 19.7981 15.0632 19.766 15.2687 19.6424C15.4614 19.5265 15.5884 19.354 15.6498 19.1249C15.7112 18.8957 15.6888 18.6776 15.5827 18.4705ZM16.0093 20.9796C15.4442 21.3195 14.85 21.4059 14.2268 21.2389C13.6036 21.0719 13.1373 20.7014 12.8279 20.1272C12.5057 19.5608 12.4311 18.9546 12.6041 18.3088C12.6907 17.9859 12.8702 17.6376 13.1426 17.264C13.4051 16.8877 13.6957 16.5469 14.0145 16.2416C14.3333 15.9363 14.6466 15.6517 14.9543 15.3881C15.2491 15.1321 15.497 14.9306 15.698 14.7835L16.0104 14.5825C16.0512 14.6716 16.1065 14.7869 16.1763 14.9284C16.2433 15.0803 16.3601 15.3684 16.5265 15.7926C16.6902 16.2272 16.8278 16.6381 16.9395 17.0254C17.0384 17.4203 17.111 17.8528 17.1574 18.323C17.2038 18.7932 17.1838 19.1898 17.0972 19.5127C16.9242 20.1585 16.5615 20.6475 16.0093 20.9796Z"
        fill="#DA6736"
        stroke-width="0"/>
    <path
        d="M14.396 20.6085C15.2822 20.846 16.2158 20.2355 16.4812 19.245C16.7466 18.2545 16.2433 17.2591 15.3571 17.0216C14.4709 16.7841 13.5373 17.3946 13.2719 18.3851C13.0065 19.3756 13.5098 20.3711 14.396 20.6085Z"
        fill="#DA6736"
        stroke-width="0"/>
    <path
        d="M13.6419 17.9677C15.2934 17.9677 16.6322 18.7114 16.6322 19.6289C16.6322 20.5464 15.2934 21.2902 13.6419 21.2902C11.9904 21.2902 10.6516 20.5464 10.6516 19.6289C10.6516 18.7114 11.9904 17.9677 13.6419 17.9677Z"
        fill="#DA6736"
        stroke-width="0"/>
</svg>
