<svg width="35" height="52" viewBox="0 0 35 52" fill="none" xmlns="http://www.w3.org/2000/svg" id="escalator_up1" x="500" y="500">
    <path
        d="M13.0369 22.7613C14.2897 23.9784 15.7774 24.587 17.5 24.587C19.2226 24.587 20.6711 23.9784 21.8456 22.7613C23.0984 21.4629 23.7248 19.9212 23.7248 18.136C23.7248 16.3508 23.0984 14.8496 21.8456 13.6324C20.6711 12.3341 19.2226 11.6849 17.5 11.6849C15.7774 11.6849 14.2897 12.3341 13.0369 13.6324C11.8624 14.8496 11.2752 16.3508 11.2752 18.136C11.2752 19.9212 11.8624 21.4629 13.0369 22.7613ZM5.05034 5.35559C8.49553 1.7852 12.6454 0 17.5 0C22.3546 0 26.4653 1.7852 29.8322 5.35559C33.2774 8.84484 35 13.105 35 18.136C35 20.6515 34.3736 23.5321 33.1208 26.778C31.9463 30.0238 30.4978 33.0667 28.7752 35.9068C27.0526 38.7469 25.33 41.4247 23.6074 43.9402C21.9631 46.3745 20.5537 48.322 19.3792 49.7826L17.5 51.8519C17.0302 51.2838 16.4038 50.5535 15.6208 49.6609C14.8378 48.6872 13.4284 46.8208 11.3926 44.0619C9.35682 41.2218 7.55593 38.5034 5.98993 35.9068C4.50224 33.229 3.13199 30.2266 1.87919 26.8997C0.626398 23.5727 0 20.6515 0 18.136C0 13.105 1.68344 8.84484 5.05034 5.35559Z"
        fill="#666666"
        stroke-width="0"/>
    <path
        d="M17.5 31.9412C24.4036 31.9412 30 25.6863 30 17.9706C30 10.2548 24.4036 4 17.5 4C10.5964 4 5 10.2548 5 17.9706C5 25.6863 10.5964 31.9412 17.5 31.9412Z"
        fill="#F7D6D6"
        stroke-width="0"/>
    <path
        d="M12.4009 22.2074C12.0799 22.1979 11.7691 22.3213 11.542 22.5484C11.3148 22.7756 11.1915 23.0863 11.2009 23.4074C11.2009 23.5731 11.3353 23.7074 11.5009 23.7074C11.6666 23.7074 11.8009 23.5731 11.8009 23.4074C11.7907 23.245 11.8508 23.0861 11.966 22.9712C12.0813 22.8563 12.2404 22.7966 12.4027 22.8074C12.5684 22.8069 12.7023 22.6722 12.7018 22.5065C12.7013 22.3408 12.5666 22.2069 12.4009 22.2074Z"
        fill="#DA3636"
        stroke-width="0"/>
    <path
        d="M25.6008 15.9074C25.7629 15.8969 25.9217 15.9567 26.0366 16.0716C26.1515 16.1865 26.2113 16.3453 26.2008 16.5074C26.2008 16.6731 26.3351 16.8074 26.5008 16.8074C26.6665 16.8074 26.8008 16.6731 26.8008 16.5074C26.8103 16.1863 26.6869 15.8756 26.4598 15.6484C26.2326 15.4213 25.9219 15.2979 25.6008 15.3074C25.4351 15.3074 25.3008 15.4417 25.3008 15.6074C25.3008 15.7731 25.4351 15.9074 25.6008 15.9074Z"
        fill="#DA3636"
        stroke-width="0"/>
    <path
        d="M19.6009 19.5074C19.4352 19.5074 19.3009 19.6417 19.3009 19.8074V20.4074H18.7009C18.5352 20.4074 18.4009 20.5417 18.4009 20.7074V21.3074H17.8009C17.6352 21.3074 17.5009 21.4417 17.5009 21.6074V22.2074H16.9009C16.7352 22.2074 16.6009 22.3417 16.6009 22.5074V23.1074H16.0009C15.8352 23.1074 15.7009 23.2417 15.7009 23.4074V24.3074C15.7009 24.4731 15.8352 24.6074 16.0009 24.6074C16.1666 24.6074 16.3009 24.4731 16.3009 24.3074V23.7074H16.9009C17.0666 23.7074 17.2009 23.5731 17.2009 23.4074V22.8074H17.8009C17.9666 22.8074 18.1009 22.6731 18.1009 22.5074V21.9074H18.7009C18.8666 21.9074 19.0009 21.7731 19.0009 21.6074V21.0074H19.6009C19.7666 21.0074 19.9009 20.8731 19.9009 20.7074V20.1074H20.5009C20.6666 20.1074 20.8009 19.9731 20.8009 19.8074V19.2074H21.4009C21.5666 19.2074 21.7009 19.0731 21.7009 18.9074V18.3074H22.3009C22.4666 18.3074 22.6009 18.1731 22.6009 18.0074V17.4074H23.2009C23.3666 17.4074 23.5009 17.2731 23.5009 17.1074C23.5009 16.9417 23.3666 16.8074 23.2009 16.8074H22.3009C22.1352 16.8074 22.0009 16.9417 22.0009 17.1074V17.7074H21.4009C21.2352 17.7074 21.1009 17.8417 21.1009 18.0074V18.6074H20.5009C20.3352 18.6074 20.2009 18.7417 20.2009 18.9074V19.5074H19.6009Z"
        fill="#DA3636"
        stroke-width="0"/>
    <path
        d="M14.2009 18.0074V21.0074H12.4009C11.1051 21.0067 10.0427 22.0348 10.0009 23.33C9.98328 23.9672 10.2272 24.5839 10.6759 25.0367C11.1515 25.5269 11.8046 25.8047 12.4876 25.8074H15.8224C16.3796 25.8089 16.9142 25.5874 17.3071 25.1924L23.5042 18.9953C23.5606 18.9393 23.6368 18.9077 23.7163 18.9074H25.5142C26.1972 18.9047 26.8502 18.6269 27.3259 18.1367C27.7745 17.6837 28.0184 17.067 28.0009 16.4297C27.9589 15.1347 26.8966 14.1067 25.6009 14.1074H22.4809C21.9237 14.1059 21.3891 14.3274 20.9962 14.7224L19.9009 15.8174V15.0074C19.9015 14.689 19.7748 14.3837 19.549 14.1593C19.5295 14.1398 19.5067 14.1254 19.486 14.1074C19.8649 13.7795 20.0002 13.2506 19.8252 12.781C19.6502 12.3114 19.2019 12 18.7007 12C18.1996 12 17.7512 12.3114 17.5763 12.781C17.4013 13.2506 17.5365 13.7795 17.9155 14.1074C17.6533 14.3331 17.502 14.6615 17.5009 15.0074V18.2174L16.6009 19.1174V18.0074C16.6016 17.689 16.4748 17.3837 16.249 17.1593C16.2295 17.1398 16.2067 17.1254 16.186 17.1074C16.5649 16.7795 16.7002 16.2506 16.5252 15.781C16.3502 15.3114 15.9019 15 15.4007 15C14.8996 15 14.4512 15.3114 14.2763 15.781C14.1013 16.2506 14.2365 16.7795 14.6155 17.1074C14.3533 17.3331 14.202 17.6615 14.2009 18.0074ZM21.4189 15.1466C21.6999 14.8641 22.0824 14.7059 22.4809 14.7074H25.6009C26.5726 14.7069 27.3693 15.4777 27.4009 16.4489C27.4128 16.9235 27.2303 17.3823 26.8957 17.7191C26.5331 18.0932 26.0351 18.3053 25.5142 18.3074H23.7163C23.4775 18.3068 23.2483 18.4017 23.08 18.5711L16.8829 24.7682C16.6022 25.0503 16.2203 25.2085 15.8224 25.2074H12.4876C11.9672 25.2049 11.4698 24.9928 11.1076 24.6191C10.7724 24.2826 10.5894 23.8237 10.6009 23.3489C10.6325 22.3777 11.4292 21.6069 12.4009 21.6074H14.5855C14.8243 21.608 15.0534 21.5131 15.2218 21.3437L21.4189 15.1466ZM18.1009 13.2074C18.1009 12.876 18.3695 12.6074 18.7009 12.6074C19.0322 12.6074 19.3009 12.876 19.3009 13.2074C19.3009 13.5388 19.0322 13.8074 18.7009 13.8074C18.3695 13.8074 18.1009 13.5388 18.1009 13.2074ZM18.1009 15.0074C18.1009 14.676 18.3695 14.4074 18.7009 14.4074C19.0322 14.4074 19.3009 14.676 19.3009 15.0074V16.4174L18.1009 17.6174V15.0074ZM14.8009 16.2074C14.8009 15.876 15.0695 15.6074 15.4009 15.6074C15.7323 15.6074 16.0009 15.876 16.0009 16.2074C16.0009 16.5388 15.7323 16.8074 15.4009 16.8074C15.0695 16.8074 14.8009 16.5388 14.8009 16.2074ZM15.8248 17.5835C15.9378 17.6956 16.0013 17.8482 16.0009 18.0074V19.7174L14.8009 20.9174V18.0074C14.8012 17.7649 14.9474 17.5465 15.1714 17.4538C15.3954 17.361 15.6532 17.4122 15.8248 17.5835Z"
        fill="#DA3636"
        stroke-width="0"/>
    <path
        d="M12.0878 13.5811C12.2049 13.6982 12.3948 13.6982 12.512 13.5811L14.795 11.2981C14.9081 11.1851 14.9127 11.0033 14.8055 10.8847L14.5469 10.6H16.5689V12.8251L16.2326 12.4561C16.1775 12.3955 16.1 12.3601 16.0181 12.358C15.9356 12.3532 15.8552 12.3854 15.7988 12.4459L13.5878 14.6569C13.5098 14.7322 13.4785 14.8438 13.506 14.9487C13.5334 15.0535 13.6154 15.1354 13.7202 15.1629C13.8251 15.1904 13.9367 15.1591 14.012 15.0811L16.0007 13.0924L16.1252 13.2292C16.2919 13.4124 16.5541 13.4743 16.7851 13.385C17.0162 13.2958 17.1686 13.0737 17.1689 12.826V10.6C17.1689 10.2686 16.9003 10 16.5689 10H14.5469C14.3092 9.99807 14.0934 10.1384 13.9988 10.3564C13.9006 10.573 13.9413 10.8273 14.1023 11.0023L14.1689 11.0758L12.0878 13.1569C11.9707 13.2741 11.9707 13.464 12.0878 13.5811Z"
        fill="#DA3636"
        stroke-width="0"/>
</svg>
