<svg width="35" height="52" viewBox="0 0 35 52" fill="none" xmlns="http://www.w3.org/2000/svg" id="fire_exit">
    <path
        d="M13.0369 22.7613C14.2897 23.9784 15.7774 24.587 17.5 24.587C19.2226 24.587 20.6711 23.9784 21.8456 22.7613C23.0984 21.4629 23.7248 19.9212 23.7248 18.136C23.7248 16.3508 23.0984 14.8496 21.8456 13.6324C20.6711 12.3341 19.2226 11.6849 17.5 11.6849C15.7774 11.6849 14.2897 12.3341 13.0369 13.6324C11.8624 14.8496 11.2752 16.3508 11.2752 18.136C11.2752 19.9212 11.8624 21.4629 13.0369 22.7613ZM5.05034 5.35559C8.49553 1.7852 12.6454 0 17.5 0C22.3546 0 26.4653 1.7852 29.8322 5.35559C33.2774 8.84484 35 13.105 35 18.136C35 20.6515 34.3736 23.5321 33.1208 26.778C31.9463 30.0238 30.4978 33.0667 28.7752 35.9068C27.0526 38.7469 25.33 41.4247 23.6074 43.9402C21.9631 46.3745 20.5537 48.322 19.3792 49.7826L17.5 51.8519C17.0302 51.2838 16.4038 50.5535 15.6208 49.6609C14.8378 48.6872 13.4284 46.8208 11.3926 44.0619C9.35682 41.2218 7.55593 38.5034 5.98993 35.9068C4.50224 33.229 3.13199 30.2266 1.87919 26.8997C0.626398 23.5727 0 20.6515 0 18.136C0 13.105 1.68344 8.84484 5.05034 5.35559Z"
        fill="#666666"
        stroke-width="0"/>
    <path
        d="M17.5 32.9412C24.4036 32.9412 30 26.6863 30 18.9706C30 11.2549 24.4036 5 17.5 5C10.5964 5 5 11.2549 5 18.9706C5 26.6863 10.5964 32.9412 17.5 32.9412Z"
        fill="#F7D6D6"
        stroke-width="0"/>
    <path
        d="M19.5302 18.9739C19.1007 18.5566 18.5906 18.3479 18 18.3479C17.4094 18.3479 16.9128 18.5566 16.5101 18.9739C16.0805 19.4191 15.8658 19.9477 15.8658 20.5597C15.8658 21.1718 16.0805 21.6865 16.5101 22.1038C16.9128 22.5489 17.4094 22.7715 18 22.7715C18.5906 22.7715 19.1007 22.5489 19.5302 22.1038C19.9329 21.6865 20.1342 21.1718 20.1342 20.5597C20.1342 19.9477 19.9329 19.4191 19.5302 18.9739ZM22.2685 24.9416C21.0872 26.1657 19.6644 26.7778 18 26.7778C16.3356 26.7778 14.9262 26.1657 13.7718 24.9416C12.5906 23.7453 12 22.2846 12 20.5597C12 19.6973 12.2148 18.7096 12.6443 17.5968C13.047 16.4839 13.5436 15.4406 14.1342 14.4669C14.7248 13.4931 15.3154 12.575 15.906 11.7126C16.4698 10.8779 16.953 10.2102 17.3557 9.70944L18 8.99999C18.1611 9.19474 18.3758 9.44513 18.6443 9.75117C18.9128 10.085 19.396 10.7249 20.094 11.6708C20.7919 12.6446 21.4094 13.5766 21.9463 14.4669C22.4564 15.385 22.9262 16.4144 23.3557 17.555C23.7852 18.6957 24 19.6973 24 20.5597C24 22.2846 23.4228 23.7453 22.2685 24.9416Z"
        fill="#DA3636"
        stroke-width="0"/>
    <path
        d="M18.0001 25.0941C20.367 25.0941 22.2858 22.9496 22.2858 20.3042C22.2858 17.6588 20.367 15.5143 18.0001 15.5143C15.6331 15.5143 13.7144 17.6588 13.7144 20.3042C13.7144 22.9496 15.6331 25.0941 18.0001 25.0941Z"
        fill="#DA3636"
        stroke-width="0"/>
    <path
        d="M14.9357 21.9236C14.5106 21.6622 14.0579 21.5851 13.5775 21.6924C13.0972 21.7996 12.7312 22.0595 12.4795 22.4721C12.211 22.9121 12.1323 23.381 12.2434 23.8788C12.3546 24.3766 12.6227 24.7562 13.0479 25.0176C13.4562 25.3065 13.9006 25.3973 14.3809 25.2901C14.8612 25.1828 15.2357 24.9092 15.5042 24.4691C15.7559 24.0566 15.8261 23.6014 15.715 23.1036C15.6038 22.6058 15.3441 22.2125 14.9357 21.9236ZM18.2465 26.2798C17.5082 27.4899 16.4621 28.2461 15.1085 28.5484C13.7548 28.8507 12.4973 28.6088 11.3362 27.8229C10.1582 27.0644 9.41265 25.9837 9.09939 24.5809C8.94276 23.8794 8.93807 23.0371 9.08531 22.0541C9.21071 21.0758 9.42516 20.1371 9.72867 19.2379C10.0322 18.3387 10.3458 17.4848 10.6695 16.6761C10.9764 15.8949 11.2482 15.2641 11.4847 14.7836L11.8799 14.0896C12.0463 14.2188 12.2664 14.3834 12.5403 14.5836C12.8193 14.8063 13.3285 15.239 14.068 15.8816C14.8125 16.5468 15.4839 17.1926 16.0823 17.8192C16.6638 18.4733 17.2329 19.2251 17.7894 20.0749C18.3459 20.9246 18.7024 21.7001 18.859 22.4016C19.1723 23.8045 18.9681 25.0972 18.2465 26.2798Z"
        fill="#DA3636"
        stroke-width="0"/>
    <path
        d="M14.8027 27.1791C16.7278 26.7492 17.8989 24.6566 17.4185 22.5051C16.938 20.3536 14.988 18.9579 13.063 19.3877C11.1379 19.8176 9.96685 21.9102 10.4473 24.0617C10.9277 26.2132 12.8777 27.6089 14.8027 27.1791Z"
        fill="#DA3636"
        stroke-width="0"/>
    <path
        d="M23.3639 21.4247C23.0878 20.9619 22.6929 20.6617 22.1795 20.5241C21.6661 20.3865 21.1857 20.4522 20.7384 20.7212C20.2614 21.0081 19.9515 21.4176 19.8089 21.9497C19.6664 22.4818 19.7332 22.9793 20.0094 23.4421C20.2558 23.9229 20.6357 24.2321 21.1491 24.3697C21.6625 24.5072 22.1578 24.4326 22.6349 24.1456C23.0822 23.8767 23.3771 23.4761 23.5197 22.944C23.6622 22.4119 23.6103 21.9055 23.3639 21.4247ZM24.3543 27.2504C23.0423 28.0395 21.6628 28.2401 20.2159 27.8524C18.7689 27.4647 17.6863 26.6043 16.9679 25.2713C16.2197 23.9561 16.0465 22.5488 16.4483 21.0493C16.6492 20.2995 17.066 19.4909 17.6986 18.6235C18.3079 17.7499 18.9827 16.9586 19.7229 16.2497C20.4632 15.5407 21.1905 14.8802 21.9048 14.268C22.5893 13.6737 23.1649 13.2058 23.6316 12.8643L24.357 12.3976C24.4517 12.6044 24.58 12.8721 24.7421 13.2007C24.8977 13.5535 25.1688 14.2223 25.5552 15.2072C25.9352 16.2163 26.2548 17.1704 26.5142 18.0694C26.7438 18.9864 26.9124 19.9907 27.0201 21.0823C27.1278 22.174 27.0812 23.0947 26.8803 23.8445C26.4785 25.344 25.6365 26.4793 24.3543 27.2504Z"
        fill="#DA3636"
        stroke-width="0"/>
    <path
        d="M20.6082 26.3888C22.6659 26.9401 24.8335 25.5228 25.4497 23.223C26.0659 20.9233 24.8974 18.6121 22.8397 18.0607C20.7821 17.5094 18.6145 18.9267 17.9983 21.2264C17.3821 23.5262 18.5506 25.8374 20.6082 26.3888Z"
        fill="#DA3636"
        stroke-width="0"/>
    <path
        d="M16.9679 25.4618C16.7553 25.3311 16.5289 25.2925 16.2888 25.3461C16.0486 25.3998 15.8656 25.5297 15.7397 25.736C15.6055 25.956 15.5661 26.1905 15.6217 26.4394C15.6773 26.6883 15.8114 26.8781 16.0239 27.0088C16.2281 27.1532 16.4503 27.1986 16.6904 27.145C16.9306 27.0914 17.1178 26.9546 17.2521 26.7345C17.3779 26.5283 17.4131 26.3007 17.3575 26.0518C17.3019 25.8029 17.172 25.6062 16.9679 25.4618ZM18.6233 27.6399C18.2541 28.2449 17.7311 28.623 17.0542 28.7742C16.3774 28.9253 15.7487 28.8044 15.1681 28.4114C14.5791 28.0322 14.2063 27.4918 14.0497 26.7904C13.9714 26.4397 13.969 26.0185 14.0427 25.527C14.1054 25.0379 14.2126 24.5685 14.3643 24.1189C14.5161 23.6693 14.6729 23.2424 14.8347 22.838C14.9882 22.4474 15.1241 22.132 15.2424 21.8918L15.4399 21.5448C15.5231 21.6094 15.6332 21.6917 15.7702 21.7918C15.9096 21.9031 16.1642 22.1195 16.534 22.4408C16.9062 22.7734 17.242 23.0963 17.5411 23.4096C17.8319 23.7366 18.1164 24.1125 18.3947 24.5374C18.6729 24.9623 18.8512 25.35 18.9295 25.7008C19.0861 26.4022 18.9841 27.0486 18.6233 27.6399Z"
        fill="#DA6736"
        stroke-width="0"/>
    <path
        d="M16.9013 28.0895C17.8638 27.8746 18.4493 26.8283 18.2091 25.7525C17.9689 24.6768 16.9939 23.9789 16.0314 24.1939C15.0688 24.4088 14.4833 25.4551 14.7235 26.5308C14.9637 27.6066 15.9387 28.3044 16.9013 28.0895Z"
        fill="#DA6736"
        stroke-width="0"/>
    <path
        d="M21.4209 24.7567C21.2419 24.4567 20.986 24.2621 20.6532 24.173C20.3204 24.0838 20.0091 24.1264 19.7192 24.3007C19.41 24.4867 19.2091 24.7521 19.1167 25.097C19.0243 25.4419 19.0676 25.7643 19.2466 26.0643C19.4063 26.3759 19.6526 26.5763 19.9853 26.6655C20.3181 26.7546 20.6391 26.7062 20.9484 26.5203C21.2383 26.3459 21.4294 26.0863 21.5218 25.7414C21.6142 25.3966 21.5806 25.0683 21.4209 24.7567ZM22.0628 28.5326C21.2124 29.044 20.3183 29.1741 19.3805 28.9228C18.4427 28.6715 17.7409 28.1139 17.2753 27.2498C16.7904 26.3974 16.6781 25.4853 16.9385 24.5133C17.0687 24.0274 17.3389 23.5033 17.7489 22.9411C18.1438 22.3749 18.5812 21.862 19.061 21.4025C19.5408 20.943 20.0122 20.5149 20.4751 20.1181C20.9188 19.7329 21.2919 19.4296 21.5944 19.2083L22.0645 18.9058C22.1259 19.0399 22.2091 19.2134 22.3142 19.4263C22.415 19.655 22.5907 20.0885 22.8412 20.7268C23.0874 21.3809 23.2946 21.9993 23.4627 22.582C23.6115 23.1763 23.7208 23.8272 23.7906 24.5348C23.8604 25.2424 23.8302 25.8391 23.7 26.3251C23.4396 27.297 22.8939 28.0328 22.0628 28.5326Z"
        fill="#DA6736"
        stroke-width="0"/>
    <path
        d="M19.635 27.9742C20.9686 28.3315 22.3736 27.4129 22.773 25.9223C23.1724 24.4317 22.415 22.9337 21.0813 22.5763C19.7477 22.219 18.3427 23.1376 17.9433 24.6282C17.5439 26.1188 18.3013 27.6168 19.635 27.9742Z"
        fill="#DA6736"
        stroke-width="0"/>
    <path
        d="M18.5 24C20.9853 24 23 25.1193 23 26.5C23 27.8807 20.9853 29 18.5 29C16.0147 29 14 27.8807 14 26.5C14 25.1193 16.0147 24 18.5 24Z"
        fill="#DA6736"
        stroke-width="0"/>
</svg>
