<svg width="35" height="52" viewBox="0 0 35 52" fill="none" xmlns="http://www.w3.org/2000/svg" id="printer">
    <path
        d="M13.0369 22.7613C14.2897 23.9784 15.7774 24.587 17.5 24.587C19.2226 24.587 20.6711 23.9784 21.8456 22.7613C23.0984 21.4629 23.7248 19.9212 23.7248 18.136C23.7248 16.3508 23.0984 14.8496 21.8456 13.6324C20.6711 12.3341 19.2226 11.6849 17.5 11.6849C15.7774 11.6849 14.2897 12.3341 13.0369 13.6324C11.8624 14.8496 11.2752 16.3508 11.2752 18.136C11.2752 19.9212 11.8624 21.4629 13.0369 22.7613ZM5.05034 5.35559C8.49553 1.7852 12.6454 0 17.5 0C22.3546 0 26.4653 1.7852 29.8322 5.35559C33.2774 8.84484 35 13.105 35 18.136C35 20.6515 34.3736 23.5321 33.1208 26.778C31.9463 30.0238 30.4978 33.0667 28.7752 35.9068C27.0526 38.7469 25.33 41.4247 23.6074 43.9402C21.9631 46.3745 20.5537 48.322 19.3792 49.7826L17.5 51.8519C17.0302 51.2838 16.4038 50.5535 15.6208 49.6609C14.8378 48.6872 13.4284 46.8208 11.3926 44.0619C9.35682 41.2218 7.55593 38.5034 5.98993 35.9068C4.50224 33.229 3.13199 30.2266 1.87919 26.8997C0.626398 23.5727 0 20.6515 0 18.136C0 13.105 1.68344 8.84484 5.05034 5.35559Z"
        fill="#666666"
        stroke-width="0"/>
    <path
        d="M17.5 32.9412C24.4036 32.9412 30 26.6863 30 18.9706C30 11.2549 24.4036 5 17.5 5C10.5964 5 5 11.2549 5 18.9706C5 26.6863 10.5964 32.9412 17.5 32.9412Z"
        fill="#F7D6D6"
        stroke-width="0"/>
    <path
        d="M23 10V13.9844H11V10H23ZM23.2812 18.7188C23.4688 18.9062 23.7031 19 23.9844 19C24.2656 19 24.5 18.9062 24.6875 18.7188C24.9062 18.5312 25.0156 18.2969 25.0156 18.0156C25.0156 17.7344 24.9062 17.5 24.6875 17.3125C24.5 17.0938 24.2656 16.9844 23.9844 16.9844C23.7031 16.9844 23.4688 17.0938 23.2812 17.3125C23.0938 17.5 23 17.7344 23 18.0156C23 18.2969 23.0938 18.5312 23.2812 18.7188ZM20.9844 25.9844V21.0156H13.0156V25.9844H20.9844ZM23.9844 15.0156C24.7969 15.0156 25.5 15.3125 26.0938 15.9062C26.6875 16.5 26.9844 17.2031 26.9844 18.0156V24.0156H23V28H11V24.0156H7.01562V18.0156C7.01562 17.2031 7.3125 16.5 7.90625 15.9062C8.5 15.3125 9.20312 15.0156 10.0156 15.0156H23.9844Z"
        fill="#DA3636"
        stroke-width="0"/>
</svg>
