<svg width="35" height="52" viewBox="0 0 35 52" fill="none" xmlns="http://www.w3.org/2000/svg" id="restroom_w1" x="500" y="500">
    <path
        d="M13.0369 22.7613C14.2897 23.9784 15.7774 24.587 17.5 24.587C19.2226 24.587 20.6711 23.9784 21.8456 22.7613C23.0984 21.4629 23.7248 19.9212 23.7248 18.136C23.7248 16.3508 23.0984 14.8496 21.8456 13.6324C20.6711 12.3341 19.2226 11.6849 17.5 11.6849C15.7774 11.6849 14.2897 12.3341 13.0369 13.6324C11.8624 14.8496 11.2752 16.3508 11.2752 18.136C11.2752 19.9212 11.8624 21.4629 13.0369 22.7613ZM5.05034 5.35559C8.49553 1.7852 12.6454 0 17.5 0C22.3546 0 26.4653 1.7852 29.8322 5.35559C33.2774 8.84484 35 13.105 35 18.136C35 20.6515 34.3736 23.5321 33.1208 26.778C31.9463 30.0238 30.4978 33.0667 28.7752 35.9068C27.0526 38.7469 25.33 41.4247 23.6074 43.9402C21.9631 46.3745 20.5537 48.322 19.3792 49.7826L17.5 51.8519C17.0302 51.2838 16.4038 50.5535 15.6208 49.6609C14.8378 48.6872 13.4284 46.8208 11.3926 44.0619C9.35682 41.2218 7.55593 38.5034 5.98993 35.9068C4.50224 33.229 3.13199 30.2266 1.87919 26.8997C0.626398 23.5727 0 20.6515 0 18.136C0 13.105 1.68344 8.84484 5.05034 5.35559Z"
        fill="#08648B"
        stroke-width="0"/>
    <path
        d="M17.5 32.9412C24.4036 32.9412 30 26.6863 30 18.9706C30 11.2549 24.4036 5 17.5 5C10.5964 5 5 11.2549 5 18.9706C5 26.6863 10.5964 32.9412 17.5 32.9412Z"
        fill="#F7D6D6"
        stroke-width="0"/>
    <path
        d="M17.84 7C16.3819 7 15.2 8.18196 15.2 9.64001C15.2015 11.0975 16.3826 12.2786 17.84 12.28C19.2981 12.28 20.48 11.0981 20.48 9.64001C20.48 8.18196 19.2981 7 17.84 7ZM17.84 11.4C16.868 11.4 16.0801 10.612 16.0801 9.64001C16.0801 8.668 16.868 7.88001 17.84 7.88001C18.8121 7.88001 19.6 8.668 19.6 9.64001C19.6 10.612 18.8121 11.4 17.84 11.4Z"
        fill="#DA3636"
        stroke-width="0"/>
    <path
        d="M22.6616 22.2738L20.0216 13.4737C19.9658 13.2876 19.7944 13.16 19.6 13.16H16.0801C15.8856 13.16 15.7143 13.2876 15.6584 13.4737L13.0185 22.2738C12.9784 22.4075 13.0042 22.5523 13.088 22.664C13.1711 22.7747 13.3015 22.8401 13.44 22.8401H15.2V28.56C15.2 28.8031 15.3971 29 15.64 29H20.0401C20.2831 29 20.48 28.8031 20.48 28.56V22.8401H22.24C22.483 22.8401 22.6801 22.6431 22.6801 22.4001C22.6801 22.3573 22.6739 22.3147 22.6616 22.2738ZM20.0401 21.96C19.7971 21.96 19.6 22.157 19.6 22.4V28.1201H18.28V21.96H17.4001V28.1201H16.0801V22.4C16.0801 22.157 15.883 21.96 15.64 21.96H14.0314L16.4074 14.04H19.2726L21.6486 21.96H20.0401Z"
        fill="#DA3636"
        stroke-width="0"/>
</svg>
