<svg width="35" height="52" viewBox="0 0 35 52" fill="none" xmlns="http://www.w3.org/2000/svg" id="restroom_m1" x="500" y="500">
    <path
        d="M13.0369 22.7613C14.2897 23.9784 15.7774 24.587 17.5 24.587C19.2226 24.587 20.6711 23.9784 21.8456 22.7613C23.0984 21.4629 23.7248 19.9212 23.7248 18.136C23.7248 16.3508 23.0984 14.8496 21.8456 13.6324C20.6711 12.3341 19.2226 11.6849 17.5 11.6849C15.7774 11.6849 14.2897 12.3341 13.0369 13.6324C11.8624 14.8496 11.2752 16.3508 11.2752 18.136C11.2752 19.9212 11.8624 21.4629 13.0369 22.7613ZM5.05034 5.35559C8.49553 1.7852 12.6454 0 17.5 0C22.3546 0 26.4653 1.7852 29.8322 5.35559C33.2774 8.84484 35 13.105 35 18.136C35 20.6515 34.3736 23.5321 33.1208 26.778C31.9463 30.0238 30.4978 33.0667 28.7752 35.9068C27.0526 38.7469 25.33 41.4247 23.6074 43.9402C21.9631 46.3745 20.5537 48.322 19.3792 49.7826L17.5 51.8519C17.0302 51.2838 16.4038 50.5535 15.6208 49.6609C14.8378 48.6872 13.4284 46.8208 11.3926 44.0619C9.35682 41.2218 7.55593 38.5034 5.98993 35.9068C4.50224 33.229 3.13199 30.2266 1.87919 26.8997C0.626398 23.5727 0 20.6515 0 18.136C0 13.105 1.68344 8.84484 5.05034 5.35559Z"
        fill="#08648B"
        stroke-width="0"/>
    <path
        d="M17.5 32.9412C24.4036 32.9412 30 26.6863 30 18.9706C30 11.2549 24.4036 5 17.5 5C10.5964 5 5 11.2549 5 18.9706C5 26.6863 10.5964 32.9412 17.5 32.9412Z"
        fill="#F7D6D6"
        stroke-width="0"/>
    <path
        d="M18.0001 8C16.6746 8 15.6001 9.0745 15.6001 10.4C15.6001 11.7255 16.6746 12.8 18.0001 12.8C19.3251 12.7987 20.3988 11.725 20.4001 10.4C20.4001 9.0745 19.3256 8 18.0001 8ZM18.0001 12C17.1165 12 16.4001 11.2837 16.4001 10.4C16.4001 9.51635 17.1165 8.8 18.0001 8.8C18.8838 8.8 19.6001 9.51635 19.6001 10.4C19.6001 11.2837 18.8838 12 18.0001 12Z"
        fill="#DA3636"
        stroke-width="0"/>
    <path
        d="M19.2 13.6H16.8C15.2543 13.6018 14.0018 14.8544 14 16.4V22C14 22.2209 14.1791 22.4 14.4 22.4H15.6V27.6C15.6 27.8209 15.7791 28 16 28H20C20.2209 28 20.4 27.8209 20.4 27.6V22.4H21.6C21.8209 22.4 22 22.2209 22 22V16.4C21.9982 14.8544 20.7457 13.6018 19.2 13.6ZM21.2 21.6H20.4V16.8H19.6V27.2H18.4V21.6H17.6V27.2H16.4V16.8H15.6V21.6H14.8V16.4C14.8013 15.296 15.696 14.4013 16.8 14.4H19.2C20.304 14.4013 21.1987 15.296 21.2 16.4V21.6Z"
        fill="#DA3636"
        stroke-width="0"/>
</svg>
