<svg width="35" height="52" viewBox="0 0 35 52" fill="none" xmlns="http://www.w3.org/2000/svg" id="study">
    <path
        d="M13.0369 22.7613C14.2897 23.9784 15.7774 24.587 17.5 24.587C19.2226 24.587 20.6711 23.9784 21.8456 22.7613C23.0984 21.4629 23.7248 19.9212 23.7248 18.136C23.7248 16.3508 23.0984 14.8496 21.8456 13.6324C20.6711 12.3341 19.2226 11.6849 17.5 11.6849C15.7774 11.6849 14.2897 12.3341 13.0369 13.6324C11.8624 14.8496 11.2752 16.3508 11.2752 18.136C11.2752 19.9212 11.8624 21.4629 13.0369 22.7613ZM5.05034 5.35559C8.49553 1.7852 12.6454 0 17.5 0C22.3546 0 26.4653 1.7852 29.8322 5.35559C33.2774 8.84484 35 13.105 35 18.136C35 20.6515 34.3736 23.5321 33.1208 26.778C31.9463 30.0238 30.4978 33.0667 28.7752 35.9068C27.0526 38.7469 25.33 41.4247 23.6074 43.9402C21.9631 46.3745 20.5537 48.322 19.3792 49.7826L17.5 51.8519C17.0302 51.2838 16.4038 50.5535 15.6208 49.6609C14.8378 48.6872 13.4284 46.8208 11.3926 44.0619C9.35682 41.2218 7.55593 38.5034 5.98993 35.9068C4.50224 33.229 3.13199 30.2266 1.87919 26.8997C0.626398 23.5727 0 20.6515 0 18.136C0 13.105 1.68344 8.84484 5.05034 5.35559Z"
        fill="#666666"
        stroke-width="0"/>
    <path
        d="M17.5 32.9412C24.4036 32.9412 30 26.6863 30 18.9706C30 11.2549 24.4036 5 17.5 5C10.5964 5 5 11.2549 5 18.9706C5 26.6863 10.5964 32.9412 17.5 32.9412Z"
        fill="#F7D6D6"
        stroke-width="0"/>
    <path
        d="M15.375 18.7383C15.862 18.7383 16.4264 18.8086 17.0684 18.9492C15.9395 19.6055 15.375 20.4727 15.375 21.5508V23.2383H10.4277V21.375C10.4277 20.8359 10.7266 20.3555 11.3242 19.9336C11.944 19.5117 12.6191 19.207 13.3496 19.0195C14.0801 18.832 14.7552 18.7383 15.375 18.7383ZM18.1309 20.0742C19.0163 19.6992 19.8685 19.5117 20.6875 19.5117C21.5065 19.5117 22.3587 19.6992 23.2441 20.0742C24.1296 20.4492 24.5723 20.9414 24.5723 21.5508V23.2383H16.8027V21.5508C16.8027 20.9414 17.2454 20.4492 18.1309 20.0742ZM16.8691 16.5938C16.4486 17.0391 15.9505 17.2617 15.375 17.2617C14.7995 17.2617 14.3014 17.0391 13.8809 16.5938C13.4603 16.1484 13.25 15.6211 13.25 15.0117C13.25 14.4023 13.4603 13.875 13.8809 13.4297C14.3014 12.9844 14.7995 12.7617 15.375 12.7617C15.9505 12.7617 16.4486 12.9844 16.8691 13.4297C17.2897 13.875 17.5 14.4023 17.5 15.0117C17.5 15.6211 17.2897 16.1484 16.8691 16.5938ZM21.916 17.4727C21.584 17.8242 21.1745 18 20.6875 18C20.2005 18 19.7799 17.8242 19.4258 17.4727C19.0938 17.0977 18.9277 16.6523 18.9277 16.1367C18.9277 15.6211 19.0938 15.1758 19.4258 14.8008C19.7799 14.4258 20.2005 14.2383 20.6875 14.2383C21.1745 14.2383 21.584 14.4258 21.916 14.8008C22.2702 15.1758 22.4473 15.6211 22.4473 16.1367C22.4473 16.6523 22.2702 17.0977 21.916 17.4727Z"
        fill="#DA3636"
        stroke-width="0"/>
</svg>
