<svg width="35" height="52" viewBox="0 0 35 52" fill="none" xmlns="http://www.w3.org/2000/svg" id="fountain">
    <path
        d="M13.0369 22.7613C14.2897 23.9784 15.7774 24.587 17.5 24.587C19.2226 24.587 20.6711 23.9784 21.8456 22.7613C23.0984 21.4629 23.7248 19.9212 23.7248 18.136C23.7248 16.3508 23.0984 14.8496 21.8456 13.6324C20.6711 12.3341 19.2226 11.6849 17.5 11.6849C15.7774 11.6849 14.2897 12.3341 13.0369 13.6324C11.8624 14.8496 11.2752 16.3508 11.2752 18.136C11.2752 19.9212 11.8624 21.4629 13.0369 22.7613ZM5.05034 5.35559C8.49553 1.7852 12.6454 0 17.5 0C22.3546 0 26.4653 1.7852 29.8322 5.35559C33.2774 8.84484 35 13.105 35 18.136C35 20.6515 34.3736 23.5321 33.1208 26.778C31.9463 30.0238 30.4978 33.0667 28.7752 35.9068C27.0526 38.7469 25.33 41.4247 23.6074 43.9402C21.9631 46.3745 20.5537 48.322 19.3792 49.7826L17.5 51.8519C17.0302 51.2838 16.4038 50.5535 15.6208 49.6609C14.8378 48.6872 13.4284 46.8208 11.3926 44.0619C9.35682 41.2218 7.55593 38.5034 5.98993 35.9068C4.50224 33.229 3.13199 30.2266 1.87919 26.8997C0.626398 23.5727 0 20.6515 0 18.136C0 13.105 1.68344 8.84484 5.05034 5.35559Z"
        fill="#08648B"
        stroke-width="0"/>
    <path
        d="M17.5 32.9412C24.4036 32.9412 30 26.6863 30 18.9706C30 11.2549 24.4036 5 17.5 5C10.5964 5 5 11.2549 5 18.9706C5 26.6863 10.5964 32.9412 17.5 32.9412Z"
        fill="#F7D6D6"
        stroke-width="0"/>
    <path
        d="M18.2752 19.3116C17.9172 18.9638 17.4922 18.79 17 18.79C16.5078 18.79 16.094 18.9638 15.7584 19.3116C15.4004 19.6826 15.2215 20.1231 15.2215 20.6331C15.2215 21.1432 15.4004 21.5721 15.7584 21.9198C16.094 22.2908 16.5078 22.4763 17 22.4763C17.4922 22.4763 17.9172 22.2908 18.2752 21.9198C18.6107 21.5721 18.7785 21.1432 18.7785 20.6331C18.7785 20.1231 18.6107 19.6826 18.2752 19.3116ZM20.557 24.2847C19.5727 25.3048 18.387 25.8148 17 25.8148C15.613 25.8148 14.4385 25.3048 13.4765 24.2847C12.4922 23.2877 12 22.0705 12 20.6331C12 19.9144 12.179 19.0914 12.5369 18.164C12.8725 17.2366 13.2864 16.3672 13.7785 15.5557C14.2707 14.7443 14.7629 13.9792 15.255 13.2605C15.7248 12.565 16.1275 12.0085 16.4631 11.5912L17 11C17.1342 11.1623 17.3132 11.371 17.5369 11.626C17.7606 11.9042 18.1633 12.4374 18.745 13.2257C19.3266 14.0372 19.8412 14.8138 20.2886 15.5557C20.7136 16.3208 21.1051 17.1786 21.4631 18.1292C21.821 19.0798 22 19.9144 22 20.6331C22 22.0705 21.519 23.2877 20.557 24.2847Z"
        fill="#82CBEB"
        stroke-width="0"/>
    <path
        d="M17.0001 24.4118C18.9726 24.4118 20.5716 22.6247 20.5716 20.4202C20.5716 18.2157 18.9726 16.4286 17.0001 16.4286C15.0277 16.4286 13.4287 18.2157 13.4287 20.4202C13.4287 22.6247 15.0277 24.4118 17.0001 24.4118Z"
        fill="#82CBEB"
        stroke-width="0"/>
</svg>
