<?xml version="1.0" encoding="UTF-8" standalone="no"?>
<!-- Created with Inkscape (http://www.inkscape.org/) -->

<svg
   xmlns:dc="http://purl.org/dc/elements/1.1/"
   xmlns:cc="http://creativecommons.org/ns#"
   xmlns:rdf="http://www.w3.org/1999/02/22-rdf-syntax-ns#"
   xmlns:svg="http://www.w3.org/2000/svg"
   xmlns="http://www.w3.org/2000/svg"
   xmlns:sodipodi="http://sodipodi.sourceforge.net/DTD/sodipodi-0.dtd"
   xmlns:inkscape="http://www.inkscape.org/namespaces/inkscape"
   width="1024"
   height="1024"
   id="svg2"
   version="1.1"
   inkscape:version="0.91 r13725"
   sodipodi:docname="MB-1.svg">
  <defs
     id="defs4" />
  <sodipodi:namedview
     id="base"
     pagecolor="#ffffff"
     bordercolor="#666666"
     borderopacity="1.0"
     inkscape:pageopacity="0.0"
     inkscape:pageshadow="2"
     inkscape:zoom="0.7"
     inkscape:cx="64.381206"
     inkscape:cy="563.44866"
     inkscape:document-units="px"
     inkscape:current-layer="g3906"
     showgrid="false"
     inkscape:snap-bbox="true"
     inkscape:bbox-paths="false"
     inkscape:bbox-nodes="false"
     inkscape:snap-bbox-edge-midpoints="false"
     inkscape:snap-bbox-midpoints="false"
     inkscape:snap-page="false"
     inkscape:object-paths="true"
     inkscape:snap-intersection-paths="true"
     inkscape:object-nodes="true"
     inkscape:window-width="1920"
     inkscape:window-height="1014"
     inkscape:window-x="0"
     inkscape:window-y="27"
     inkscape:window-maximized="1"
     inkscape:snap-nodes="true" />
  <metadata
     id="metadata7">
    <rdf:RDF>
      <cc:Work
         rdf:about="">
        <dc:format>image/svg+xml</dc:format>
        <dc:type
           rdf:resource="http://purl.org/dc/dcmitype/StillImage" />
        <dc:title />
      </cc:Work>
    </rdf:RDF>
  </metadata>
  <g
     inkscape:label="1 vec copy"
     id="g3906"
     inkscape:groupmode="layer"
     style="display:inline">
    <path
       inkscape:connector-curvature="0"
       id="path3908"
       d="m 358.57143,146.85714 102.14286,734.28572 15.71428,0 32.14286,111.42857 226.42857,0 0,8.57147 46.42857,0 0,9.2857 198.92857,0 0,-354.12413 -128.79854,0 0,-543.73304 -36.5586,0 0,17.14285 -184.28571,0 0,-16.42857 -25,0 0,-15.714282 -208.57143,0 0,49.285712 z"
       style="fill:#f7d6d6;fill-opacity:1;stroke:#000000;stroke-width:2;stroke-miterlimit:4;stroke-opacity:1;stroke-dasharray:none" />
    <path
       inkscape:connector-curvature="0"
       id="path3910"
       d="m 517.85714,97.571428 0,71.428572 29.28572,0 0,38.57143 72.14285,0 0,-94.28572 -13.57142,0 0,-15.714282 z"
       style="fill:#da3636;fill-opacity:1;stroke:#000000;stroke-width:2;stroke-miterlimit:4;stroke-opacity:1;stroke-dasharray:none" />
    <path
       inkscape:connector-curvature="0"
       id="path3912"
       d="m 619.28571,153.28571 35,0 17.66827,30.60234 0,52.96909 179.60462,0 0,-124.28571 -36.5586,0 0,17.14285 -184.28571,0 0,-16.42857 -11.42858,0 z"
       style="fill:#da3636;fill-opacity:1;stroke:#000000;stroke-width:2;stroke-miterlimit:4;stroke-opacity:1;stroke-dasharray:none" />
    <path
       sodipodi:nodetypes="ccccccc"
       inkscape:connector-curvature="0"
       id="path3914"
       d="m 549.28571,241.14286 62.85715,0 199.32896,53.41003 0,179.44711 -178.12618,47.72877 -84.05993,0 z"
       style="fill:#da3636;fill-opacity:1;stroke:#000000;stroke-width:2;stroke-miterlimit:4;stroke-opacity:1;stroke-dasharray:none" />
    <path
       inkscape:connector-curvature="0"
       id="path3916"
       d="m 760,236.85714 0,43.90392 51.47182,13.79183 0,179.44711 -122.0369,32.69969 0,33.72888 45.56508,0 0,41.42857 25.71429,0 0,-63.57143 90.84431,0 0,-281.42857 z"
       style="fill:#da3636;fill-opacity:1;stroke:#000000;stroke-width:2;stroke-miterlimit:4;stroke-opacity:1;stroke-dasharray:none" />
    <path
       inkscape:connector-curvature="0"
       id="path3918"
       d="m 689.43492,540.42857 -74.43492,0 0,-18.6998 18.34564,0 56.08928,-15.02908 z"
       style="fill:#da3636;fill-opacity:1;stroke:#000000;stroke-width:2;stroke-miterlimit:4;stroke-opacity:1;stroke-dasharray:none" />
    <path
       inkscape:connector-curvature="0"
       id="path3920"
       d="m 515.71429,505.42857 0,-72.85714"
       style="fill:#da3636;fill-opacity:1;stroke:#000000;stroke-width:2;stroke-miterlimit:4;stroke-opacity:1;stroke-dasharray:none" />
    <path
       inkscape:connector-curvature="0"
       id="path3922"
       d="m 515.71429,442.92857 33.57142,0"
       style="fill:#da3636;fill-opacity:1;stroke:#000000;stroke-width:2;stroke-miterlimit:4;stroke-opacity:1;stroke-dasharray:none" />
    <path
       sodipodi:nodetypes="cc"
       inkscape:connector-curvature="0"
       id="path3924"
       d="m 515.71429,402.21429 0,-164.28572"
       style="fill:#da3636;fill-opacity:1;stroke:#000000;stroke-width:2;stroke-miterlimit:4;stroke-opacity:1;stroke-dasharray:none" />
    <rect
       y="656.30444"
       x="851.55859"
       height="176.26695"
       width="128.79854"
       id="rect3926"
       style="fill:#da3636;fill-opacity:1;stroke:#000000;stroke-width:2;stroke-miterlimit:4;stroke-opacity:1;stroke-dasharray:none" />
    <rect
       y="664.71429"
       x="735"
       height="100"
       width="116.5584"
       id="rect3928"
       style="fill:#da3636;fill-opacity:1;stroke:#000000;stroke-width:2;stroke-miterlimit:4;stroke-opacity:1;stroke-dasharray:none" />
    <rect
       y="566.14288"
       x="760.71429"
       height="58.214287"
       width="39.999996"
       id="rect3930"
       style="fill:#da3636;fill-opacity:1;stroke:#000000;stroke-width:2;stroke-miterlimit:4;stroke-opacity:1;stroke-dasharray:none" />
    <rect
       y="624.35718"
       x="760.71429"
       height="40.357124"
       width="90.844284"
       id="rect3932"
       style="fill:#da3636;fill-opacity:1;stroke:#000000;stroke-width:2;stroke-miterlimit:4;stroke-opacity:1;stroke-dasharray:none" />
    <rect
       y="518.28571"
       x="800.71429"
       height="106.07146"
       width="50.844311"
       id="rect3934"
       style="fill:#da3636;fill-opacity:1;stroke:#000000;stroke-width:2;stroke-miterlimit:4;stroke-opacity:1;stroke-dasharray:none" />
    <rect
       y="518.28571"
       x="760.71429"
       height="47.857174"
       width="40"
       id="rect3936"
       style="fill:#da3636;fill-opacity:1;stroke:#000000;stroke-width:2;stroke-miterlimit:4;stroke-opacity:1;stroke-dasharray:none" />
    <rect
       y="540.42859"
       x="694.98492"
       height="41.42857"
       width="40.015049"
       id="rect3938"
       style="fill:#da3636;fill-opacity:1;stroke:#000000;stroke-width:2;stroke-miterlimit:4;stroke-opacity:1;stroke-dasharray:none" />
    <rect
       y="540.42859"
       x="657.10425"
       height="41.428589"
       width="37.880692"
       id="rect3940"
       style="fill:#da3636;fill-opacity:1;stroke:#000000;stroke-width:2;stroke-miterlimit:4;stroke-opacity:1;stroke-dasharray:none" />
    <rect
       y="540.42859"
       x="615"
       height="41.428608"
       width="42.104248"
       id="rect3942"
       style="fill:#da3636;fill-opacity:1;stroke:#000000;stroke-width:2;stroke-miterlimit:4;stroke-opacity:1;stroke-dasharray:none" />
    <rect
       y="625.42853"
       x="615"
       height="39.285767"
       width="41.785706"
       id="rect3944"
       style="fill:#da3636;fill-opacity:1;stroke:#000000;stroke-width:2;stroke-miterlimit:4;stroke-opacity:1;stroke-dasharray:none" />
    <rect
       y="625.42853"
       x="656.78571"
       height="39.285767"
       width="38.928589"
       id="rect3946"
       style="fill:#da3636;fill-opacity:1;stroke:#000000;stroke-width:2;stroke-miterlimit:4;stroke-opacity:1;stroke-dasharray:none" />
    <rect
       y="625.42853"
       x="695.71429"
       height="39.285767"
       width="39.285702"
       id="rect3948"
       style="fill:#da3636;fill-opacity:1;stroke:#000000;stroke-width:2;stroke-miterlimit:4;stroke-opacity:1;stroke-dasharray:none" />
    <rect
       y="664.71429"
       x="615"
       height="60.280552"
       width="120"
       id="rect3950"
       style="fill:#da3636;fill-opacity:1;stroke:#000000;stroke-width:2;stroke-miterlimit:4;stroke-opacity:1;stroke-dasharray:none" />
    <path
       sodipodi:nodetypes="cccccccccccc"
       inkscape:connector-curvature="0"
       id="path3952"
       d="m 683.125,725 0,48.5 -7.34375,0 0,36.59375 31.84375,0 0,22.47462 20.9375,0 0,-22.47462 6.4375,0 0,-36.59375 0,-48.5 z"
       style="fill:#da3636;fill-opacity:1;stroke:#000000;stroke-width:2;stroke-miterlimit:4;stroke-opacity:1;stroke-dasharray:none" />
    <rect
       y="764.71429"
       x="735"
       height="45.379456"
       width="8.4722738"
       id="rect3954"
       style="fill:#da3636;fill-opacity:1;stroke:#000000;stroke-width:2;stroke-miterlimit:4;stroke-opacity:1;stroke-dasharray:none" />
    <rect
       y="764.71429"
       x="743.47229"
       height="45.379456"
       width="27.274118"
       id="rect3956"
       style="fill:#da3636;fill-opacity:1;stroke:#000000;stroke-width:2;stroke-miterlimit:4;stroke-opacity:1;stroke-dasharray:none" />
    <path
       sodipodi:nodetypes="cccccccc"
       inkscape:connector-curvature="0"
       id="path3958"
       d="m 770.75,764.71875 0,45.375 0,22.47462 24.25,0 0,-22.47462 56.5625,0 0,-45.375 z"
       style="fill:#da3636;fill-opacity:1;stroke:#000000;stroke-width:2;stroke-miterlimit:4;stroke-opacity:1;stroke-dasharray:none" />
    <rect
       y="810.09375"
       x="825.54718"
       height="22.477646"
       width="26.011425"
       id="rect3960"
       style="fill:#da3636;fill-opacity:1;stroke:#000000;stroke-width:2;stroke-miterlimit:4;stroke-opacity:1;stroke-dasharray:none" />
    <rect
       y="810.09375"
       x="795"
       height="22.477646"
       width="30.54718"
       id="rect3962"
       style="fill:#da3636;fill-opacity:1;stroke:#000000;stroke-width:2;stroke-miterlimit:4;stroke-opacity:1;stroke-dasharray:none" />
    <path
       id="path3964"
       d="m 906.4375,832.5625 0,28.9375 -47.15625,0 -95.71875,0 0,66.4375 69.65625,0 0,19.28125 26.0625,0 0,-19.28125 0,-20.71875 70.375,0 0,103.21875 50.6875,0 0,-141.78125 0,-36.09375 -73.90625,0 z"
       style="fill:#da3636;fill-opacity:1;stroke:#000000;stroke-width:2;stroke-miterlimit:4;stroke-opacity:1;stroke-dasharray:none"
       inkscape:connector-curvature="0" />
    <path
       id="path3966"
       d="m 859.28125,907.21875 0,40 -26.0625,0 0,-19.28125 -69.65625,0 0,-18.9375 -28.5625,0 0,92.1562 28.5625,0 17.875,0 0,9.2813 77.84375,0 70.375,0 0,-103.21875 -70.375,0 z"
       style="fill:#da3636;fill-opacity:1;stroke:#000000;stroke-width:2;stroke-miterlimit:4;stroke-opacity:1;stroke-dasharray:none"
       inkscape:connector-curvature="0" />
    <rect
       y="874.71429"
       x="735"
       height="34.285713"
       width="28.5625"
       id="rect3968"
       style="fill:#da3636;fill-opacity:1;stroke:#000000;stroke-width:2;stroke-miterlimit:4;stroke-opacity:1;stroke-dasharray:none" />
    <path
       id="path3970"
       d="m 651.84375,792.03125 0,18.0625 0,22.46875 55.78125,0 0,-22.46875 -38.53125,0 0,-18.0625 -17.25,0 z"
       style="fill:#da3636;fill-opacity:1;stroke:#000000;stroke-width:2;stroke-miterlimit:4;stroke-opacity:1;stroke-dasharray:none"
       inkscape:connector-curvature="0" />
    <path
       id="path3972"
       d="m 598.25,774.75 0,74.46875 53.59375,0 0,-57.1875 17.25,0 0,-17.28125 -17.25,0 -53.59375,0 z"
       style="fill:#da3636;fill-opacity:1;stroke:#000000;stroke-width:2;stroke-miterlimit:4;stroke-opacity:1;stroke-dasharray:none"
       inkscape:connector-curvature="0" />
    <rect
       y="724.99487"
       x="615"
       height="49.755154"
       width="54.09375"
       id="rect3974"
       style="fill:#da3636;fill-opacity:1;stroke:#000000;stroke-width:2;stroke-miterlimit:4;stroke-opacity:1;stroke-dasharray:none" />
    <rect
       y="754.79437"
       x="615"
       height="19.955654"
       width="22.658794"
       id="rect3976"
       style="fill:#da3636;fill-opacity:1;stroke:#000000;stroke-width:2;stroke-miterlimit:4;stroke-opacity:1;stroke-dasharray:none" />
    <path
       inkscape:connector-curvature="0"
       id="path3978"
       d="m 425.23112,626.06103 85.84031,0 0,168.29611"
       style="fill:none;stroke:#000000;stroke-width:2;stroke-miterlimit:4;stroke-opacity:1;stroke-dasharray:none;fill-opacity:1" />
    <path
       inkscape:connector-curvature="0"
       id="path3980"
       d="m 469.28572,626.06103 0,168.29611"
       style="fill:#da3636;fill-opacity:1;stroke:#000000;stroke-width:2;stroke-miterlimit:4;stroke-opacity:1;stroke-dasharray:none" />
    <path
       inkscape:connector-curvature="0"
       id="path3982"
       d="m 441.4733,742.82299 27.81242,0"
       style="fill:#da3636;fill-opacity:1;stroke:#000000;stroke-width:2;stroke-miterlimit:4;stroke-opacity:1;stroke-dasharray:none" />
    <path
       inkscape:connector-curvature="0"
       id="path3984"
       d="m 476.42857,881.14286 39.28572,0 L 507.5,854 l -26.07143,0"
       style="fill:none;stroke:#000000;stroke-width:2;stroke-miterlimit:4;stroke-opacity:1;stroke-dasharray:none;fill-opacity:1" />
    <path
       inkscape:connector-curvature="0"
       id="path3986"
       d="m 515.71429,881.14286 30.71428,111.42857"
       style="fill:#da3636;fill-opacity:1;stroke:#000000;stroke-width:2;stroke-miterlimit:4;stroke-opacity:1;stroke-dasharray:none" />
    <path
       inkscape:connector-curvature="0"
       id="path3988"
       d="m 408.39731,505.04597 40.88841,0 0,-177.83169 -32.14286,0 14.64286,97.85715"
       style="fill:none;stroke:#000000;stroke-width:2;stroke-miterlimit:4;stroke-opacity:1;stroke-dasharray:none;fill-opacity:1" />
    <path
       inkscape:connector-curvature="0"
       id="path3990"
       d="m 422.14286,327.21428 -17.85714,-130"
       style="fill:#da3636;fill-opacity:1;stroke:#000000;stroke-width:2;stroke-miterlimit:4;stroke-opacity:1;stroke-dasharray:none" />
    <rect
       y="97.571426"
       x="397.14285"
       height="48.571426"
       width="33.214283"
       id="rect3992"
       style="fill:#da3636;stroke:#000000;stroke-width:2;stroke-miterlimit:4;stroke-opacity:1;stroke-dasharray:none;fill-opacity:1" />
    <rect
       y="161.5"
       x="723.57141"
       height="75.357147"
       width="127.98717"
       id="rect3994"
       style="fill:#da3636;fill-opacity:1;stroke:#000000;stroke-width:2;stroke-miterlimit:4;stroke-opacity:1;stroke-dasharray:none" />
    <path
       inkscape:connector-curvature="0"
       id="path3997"
       d="m 682.5,194 28.57143,0 c 0,0 4.28572,-21.07143 -9.28571,-36.07143"
       style="fill:#da3636;fill-opacity:1;stroke:#000000;stroke-width:2;stroke-miterlimit:4;stroke-opacity:1;stroke-dasharray:none" />
    <path
       inkscape:connector-curvature="0"
       id="path3999"
       d="m 656.78572,145.78571 c 27.85714,-16.07143 44.64288,-3.57143 55.71428,9.64286"
       style="fill:#da3636;fill-opacity:1;stroke:#000000;stroke-width:2;stroke-miterlimit:4;stroke-opacity:1;stroke-dasharray:none" />
    <path
       inkscape:connector-curvature="0"
       id="path4001"
       d="m 547.14286,169 0,-39.49008"
       style="fill:#da3636;fill-opacity:1;stroke:#000000;stroke-width:2;stroke-miterlimit:4;stroke-opacity:1;stroke-dasharray:none" />

    <!-- Displaying icons on the map -->

    <!-- Displaying stairs icon on the map -->
    <svg width="35" height="52" viewBox="0 0 35 52" fill="none" xmlns="http://www.w3.org/2000/svg" id="stairs1" x="370" y="160">
      <path
          d="M13.0369 22.7613C14.2897 23.9784 15.7774 24.587 17.5 24.587C19.2226 24.587 20.6711 23.9784 21.8456 22.7613C23.0984 21.4629 23.7248 19.9212 23.7248 18.136C23.7248 16.3508 23.0984 14.8496 21.8456 13.6324C20.6711 12.3341 19.2226 11.6849 17.5 11.6849C15.7774 11.6849 14.2897 12.3341 13.0369 13.6324C11.8624 14.8496 11.2752 16.3508 11.2752 18.136C11.2752 19.9212 11.8624 21.4629 13.0369 22.7613ZM5.05034 5.35559C8.49553 1.7852 12.6454 0 17.5 0C22.3546 0 26.4653 1.7852 29.8322 5.35559C33.2774 8.84484 35 13.105 35 18.136C35 20.6515 34.3736 23.5321 33.1208 26.778C31.9463 30.0238 30.4978 33.0667 28.7752 35.9068C27.0526 38.7469 25.33 41.4247 23.6074 43.9402C21.9631 46.3745 20.5537 48.322 19.3792 49.7826L17.5 51.8519C17.0302 51.2838 16.4038 50.5535 15.6208 49.6609C14.8378 48.6872 13.4284 46.8208 11.3926 44.0619C9.35682 41.2218 7.55593 38.5034 5.98993 35.9068C4.50224 33.229 3.13199 30.2266 1.87919 26.8997C0.626398 23.5727 0 20.6515 0 18.136C0 13.105 1.68344 8.84484 5.05034 5.35559Z"
          fill="#666666"
          stroke-width="0"/>
      <path
          d="M17.5 31.9412C24.4036 31.9412 30 25.6863 30 17.9706C30 10.2549 24.4036 4 17.5 4C10.5964 4 5 10.2549 5 17.9706C5 25.6863 10.5964 31.9412 17.5 31.9412Z"
          fill="#F7D6D6"
          stroke-width="0"/>
      <path
          d="M26.2188 10.3047H21.6094C21.1779 10.3047 20.8282 10.6544 20.8282 11.0859V14.9141H17C16.5686 14.9141 16.2188 15.2638 16.2188 15.6953V19.5234H12.3907C11.9592 19.5234 11.6094 19.8732 11.6094 20.3047V24.1328H7.78125C7.34977 24.1328 7 24.4826 7 24.9141C7 25.3455 7.34977 25.6953 7.78125 25.6953H12.3907C12.5978 25.6953 12.7966 25.613 12.9431 25.4665C13.0896 25.32 13.1719 25.1212 13.1719 24.9141L13.1719 21.0859H17C17.2072 21.0859 17.406 21.0036 17.5525 20.8571C17.699 20.7106 17.7813 20.5119 17.7813 20.3047L17.7812 16.4766H21.6094C21.8166 16.4766 22.0153 16.3943 22.1618 16.2477C22.3083 16.1012 22.3906 15.9025 22.3906 15.6953V11.8672H26.2188C26.6502 11.8672 27 11.5174 27 11.0859C27 10.6544 26.6502 10.3047 26.2188 10.3047Z"
          fill="#DA3636"
          stroke-width="0"/>
    </svg>

    <svg width="35" height="52" viewBox="0 0 35 52" fill="none" xmlns="http://www.w3.org/2000/svg" id="stairs2" x="760" y="610">
      <path
          d="M13.0369 22.7613C14.2897 23.9784 15.7774 24.587 17.5 24.587C19.2226 24.587 20.6711 23.9784 21.8456 22.7613C23.0984 21.4629 23.7248 19.9212 23.7248 18.136C23.7248 16.3508 23.0984 14.8496 21.8456 13.6324C20.6711 12.3341 19.2226 11.6849 17.5 11.6849C15.7774 11.6849 14.2897 12.3341 13.0369 13.6324C11.8624 14.8496 11.2752 16.3508 11.2752 18.136C11.2752 19.9212 11.8624 21.4629 13.0369 22.7613ZM5.05034 5.35559C8.49553 1.7852 12.6454 0 17.5 0C22.3546 0 26.4653 1.7852 29.8322 5.35559C33.2774 8.84484 35 13.105 35 18.136C35 20.6515 34.3736 23.5321 33.1208 26.778C31.9463 30.0238 30.4978 33.0667 28.7752 35.9068C27.0526 38.7469 25.33 41.4247 23.6074 43.9402C21.9631 46.3745 20.5537 48.322 19.3792 49.7826L17.5 51.8519C17.0302 51.2838 16.4038 50.5535 15.6208 49.6609C14.8378 48.6872 13.4284 46.8208 11.3926 44.0619C9.35682 41.2218 7.55593 38.5034 5.98993 35.9068C4.50224 33.229 3.13199 30.2266 1.87919 26.8997C0.626398 23.5727 0 20.6515 0 18.136C0 13.105 1.68344 8.84484 5.05034 5.35559Z"
          fill="#666666"
          stroke-width="0"/>
      <path
          d="M17.5 31.9412C24.4036 31.9412 30 25.6863 30 17.9706C30 10.2549 24.4036 4 17.5 4C10.5964 4 5 10.2549 5 17.9706C5 25.6863 10.5964 31.9412 17.5 31.9412Z"
          fill="#F7D6D6"
          stroke-width="0"/>
      <path
          d="M26.2188 10.3047H21.6094C21.1779 10.3047 20.8282 10.6544 20.8282 11.0859V14.9141H17C16.5686 14.9141 16.2188 15.2638 16.2188 15.6953V19.5234H12.3907C11.9592 19.5234 11.6094 19.8732 11.6094 20.3047V24.1328H7.78125C7.34977 24.1328 7 24.4826 7 24.9141C7 25.3455 7.34977 25.6953 7.78125 25.6953H12.3907C12.5978 25.6953 12.7966 25.613 12.9431 25.4665C13.0896 25.32 13.1719 25.1212 13.1719 24.9141L13.1719 21.0859H17C17.2072 21.0859 17.406 21.0036 17.5525 20.8571C17.699 20.7106 17.7813 20.5119 17.7813 20.3047L17.7812 16.4766H21.6094C21.8166 16.4766 22.0153 16.3943 22.1618 16.2477C22.3083 16.1012 22.3906 15.9025 22.3906 15.6953V11.8672H26.2188C26.6502 11.8672 27 11.5174 27 11.0859C27 10.6544 26.6502 10.3047 26.2188 10.3047Z"
          fill="#DA3636"
          stroke-width="0"/>
    </svg>

    <svg width="35" height="52" viewBox="0 0 35 52" fill="none" xmlns="http://www.w3.org/2000/svg" id="stairs3" x="515" y="480">
      <path
          d="M13.0369 22.7613C14.2897 23.9784 15.7774 24.587 17.5 24.587C19.2226 24.587 20.6711 23.9784 21.8456 22.7613C23.0984 21.4629 23.7248 19.9212 23.7248 18.136C23.7248 16.3508 23.0984 14.8496 21.8456 13.6324C20.6711 12.3341 19.2226 11.6849 17.5 11.6849C15.7774 11.6849 14.2897 12.3341 13.0369 13.6324C11.8624 14.8496 11.2752 16.3508 11.2752 18.136C11.2752 19.9212 11.8624 21.4629 13.0369 22.7613ZM5.05034 5.35559C8.49553 1.7852 12.6454 0 17.5 0C22.3546 0 26.4653 1.7852 29.8322 5.35559C33.2774 8.84484 35 13.105 35 18.136C35 20.6515 34.3736 23.5321 33.1208 26.778C31.9463 30.0238 30.4978 33.0667 28.7752 35.9068C27.0526 38.7469 25.33 41.4247 23.6074 43.9402C21.9631 46.3745 20.5537 48.322 19.3792 49.7826L17.5 51.8519C17.0302 51.2838 16.4038 50.5535 15.6208 49.6609C14.8378 48.6872 13.4284 46.8208 11.3926 44.0619C9.35682 41.2218 7.55593 38.5034 5.98993 35.9068C4.50224 33.229 3.13199 30.2266 1.87919 26.8997C0.626398 23.5727 0 20.6515 0 18.136C0 13.105 1.68344 8.84484 5.05034 5.35559Z"
          fill="#666666"
          stroke-width="0"/>
      <path
          d="M17.5 31.9412C24.4036 31.9412 30 25.6863 30 17.9706C30 10.2549 24.4036 4 17.5 4C10.5964 4 5 10.2549 5 17.9706C5 25.6863 10.5964 31.9412 17.5 31.9412Z"
          fill="#F7D6D6"
          stroke-width="0"/>
      <path
          d="M26.2188 10.3047H21.6094C21.1779 10.3047 20.8282 10.6544 20.8282 11.0859V14.9141H17C16.5686 14.9141 16.2188 15.2638 16.2188 15.6953V19.5234H12.3907C11.9592 19.5234 11.6094 19.8732 11.6094 20.3047V24.1328H7.78125C7.34977 24.1328 7 24.4826 7 24.9141C7 25.3455 7.34977 25.6953 7.78125 25.6953H12.3907C12.5978 25.6953 12.7966 25.613 12.9431 25.4665C13.0896 25.32 13.1719 25.1212 13.1719 24.9141L13.1719 21.0859H17C17.2072 21.0859 17.406 21.0036 17.5525 20.8571C17.699 20.7106 17.7813 20.5119 17.7813 20.3047L17.7812 16.4766H21.6094C21.8166 16.4766 22.0153 16.3943 22.1618 16.2477C22.3083 16.1012 22.3906 15.9025 22.3906 15.6953V11.8672H26.2188C26.6502 11.8672 27 11.5174 27 11.0859C27 10.6544 26.6502 10.3047 26.2188 10.3047Z"
          fill="#DA3636"
          stroke-width="0"/>
    </svg>

    <!-- Displaying elevator icon on the map -->
    <svg width="35" height="52" viewBox="0 0 35 52" fill="none" xmlns="http://www.w3.org/2000/svg" id="elevator1" x="658" y="610">
      <path
          d="M13.0369 22.7613C14.2897 23.9784 15.7774 24.587 17.5 24.587C19.2226 24.587 20.6711 23.9784 21.8456 22.7613C23.0984 21.4629 23.7248 19.9212 23.7248 18.136C23.7248 16.3508 23.0984 14.8496 21.8456 13.6324C20.6711 12.3341 19.2226 11.6849 17.5 11.6849C15.7774 11.6849 14.2897 12.3341 13.0369 13.6324C11.8624 14.8496 11.2752 16.3508 11.2752 18.136C11.2752 19.9212 11.8624 21.4629 13.0369 22.7613ZM5.05034 5.35559C8.49553 1.7852 12.6454 0 17.5 0C22.3546 0 26.4653 1.7852 29.8322 5.35559C33.2774 8.84484 35 13.105 35 18.136C35 20.6515 34.3736 23.5321 33.1208 26.778C31.9463 30.0238 30.4978 33.0667 28.7752 35.9068C27.0526 38.7469 25.33 41.4247 23.6074 43.9402C21.9631 46.3745 20.5537 48.322 19.3792 49.7826L17.5 51.8519C17.0302 51.2838 16.4038 50.5535 15.6208 49.6609C14.8378 48.6872 13.4284 46.8208 11.3926 44.0619C9.35682 41.2218 7.55593 38.5034 5.98993 35.9068C4.50224 33.229 3.13199 30.2266 1.87919 26.8997C0.626398 23.5727 0 20.6515 0 18.136C0 13.105 1.68344 8.84484 5.05034 5.35559Z"
          fill="#666666"
          stroke-width="0"/>
      <path
          d="M17.5 31.9412C24.4036 31.9412 30 25.6863 30 17.9706C30 10.2549 24.4036 4 17.5 4C10.5964 4 5 10.2549 5 17.9706C5 25.6863 10.5964 31.9412 17.5 31.9412Z"
          fill="#F7D6D6"
          stroke-width="0"/>
      <path
          d="M24.6316 10.002H10.3651C9.61228 10.002 9 10.6142 9 11.367V25.6369C9 26.3864 9.61228 26.9986 10.3651 26.9986H24.6349C25.3877 26.9986 26 26.3864 26 25.6336V11.367C25.9967 10.6142 25.3844 10.002 24.6316 10.002ZM17.0266 26.0551H10.3651C10.1342 26.0551 9.94686 25.8678 9.94686 25.6369V11.367C9.94686 11.1362 10.1342 10.9488 10.3651 10.9488H17.0266V26.0551ZM24.6349 26.0518H17.9701V10.9455H24.6316C24.8624 10.9455 25.0498 11.1328 25.0498 11.3637V25.6336H25.0531C25.0531 25.8644 24.8658 26.0518 24.6349 26.0518Z"
          fill="#DA3636"
          stroke-width="0"/>
      <path
          d="M15.3136 18.8647C15.1296 18.6807 14.8318 18.6807 14.6444 18.8647L13.9585 19.5506V16.3085C13.9585 16.0475 13.7478 15.8367 13.4868 15.8367C13.2258 15.8367 13.015 16.0475 13.015 16.3085V19.5506L12.3291 18.868C12.1451 18.684 11.8474 18.684 11.66 18.868C11.476 19.052 11.476 19.3498 11.66 19.5372L13.1522 21.026C13.2459 21.1197 13.3663 21.1632 13.4868 21.1632C13.6072 21.1632 13.7277 21.1164 13.8214 21.026L15.3136 19.5338C15.4976 19.3498 15.4976 19.052 15.3136 18.8647Z"
          fill="#DA3636"
          stroke-width="0"/>
      <path
          d="M23.3368 17.4661L21.8446 15.9739C21.7509 15.8802 21.6305 15.8367 21.51 15.8367C21.3896 15.8367 21.2691 15.8836 21.1755 15.9739L19.6832 17.4661C19.4992 17.6501 19.4992 17.9479 19.6832 18.1353C19.8673 18.3193 20.165 18.3193 20.3524 18.1353L21.0383 17.4494V20.6915C21.0383 20.9524 21.2491 21.1632 21.51 21.1632C21.771 21.1632 21.9818 20.9524 21.9818 20.6915V17.4494L22.6677 18.1353C22.8517 18.3193 23.1495 18.3193 23.3368 18.1353C23.5209 17.9513 23.5209 17.6535 23.3368 17.4661Z"
          fill="#DA3636"
          stroke-width="0"/>
    </svg>

    <svg width="35" height="52" viewBox="0 0 35 52" fill="none" xmlns="http://www.w3.org/2000/svg" id="elevator2" x="658" y="530">
      <path
          d="M13.0369 22.7613C14.2897 23.9784 15.7774 24.587 17.5 24.587C19.2226 24.587 20.6711 23.9784 21.8456 22.7613C23.0984 21.4629 23.7248 19.9212 23.7248 18.136C23.7248 16.3508 23.0984 14.8496 21.8456 13.6324C20.6711 12.3341 19.2226 11.6849 17.5 11.6849C15.7774 11.6849 14.2897 12.3341 13.0369 13.6324C11.8624 14.8496 11.2752 16.3508 11.2752 18.136C11.2752 19.9212 11.8624 21.4629 13.0369 22.7613ZM5.05034 5.35559C8.49553 1.7852 12.6454 0 17.5 0C22.3546 0 26.4653 1.7852 29.8322 5.35559C33.2774 8.84484 35 13.105 35 18.136C35 20.6515 34.3736 23.5321 33.1208 26.778C31.9463 30.0238 30.4978 33.0667 28.7752 35.9068C27.0526 38.7469 25.33 41.4247 23.6074 43.9402C21.9631 46.3745 20.5537 48.322 19.3792 49.7826L17.5 51.8519C17.0302 51.2838 16.4038 50.5535 15.6208 49.6609C14.8378 48.6872 13.4284 46.8208 11.3926 44.0619C9.35682 41.2218 7.55593 38.5034 5.98993 35.9068C4.50224 33.229 3.13199 30.2266 1.87919 26.8997C0.626398 23.5727 0 20.6515 0 18.136C0 13.105 1.68344 8.84484 5.05034 5.35559Z"
          fill="#666666"
          stroke-width="0"/>
      <path
          d="M17.5 31.9412C24.4036 31.9412 30 25.6863 30 17.9706C30 10.2549 24.4036 4 17.5 4C10.5964 4 5 10.2549 5 17.9706C5 25.6863 10.5964 31.9412 17.5 31.9412Z"
          fill="#F7D6D6"
          stroke-width="0"/>
      <path
          d="M24.6316 10.002H10.3651C9.61228 10.002 9 10.6142 9 11.367V25.6369C9 26.3864 9.61228 26.9986 10.3651 26.9986H24.6349C25.3877 26.9986 26 26.3864 26 25.6336V11.367C25.9967 10.6142 25.3844 10.002 24.6316 10.002ZM17.0266 26.0551H10.3651C10.1342 26.0551 9.94686 25.8678 9.94686 25.6369V11.367C9.94686 11.1362 10.1342 10.9488 10.3651 10.9488H17.0266V26.0551ZM24.6349 26.0518H17.9701V10.9455H24.6316C24.8624 10.9455 25.0498 11.1328 25.0498 11.3637V25.6336H25.0531C25.0531 25.8644 24.8658 26.0518 24.6349 26.0518Z"
          fill="#DA3636"
          stroke-width="0"/>
      <path
          d="M15.3136 18.8647C15.1296 18.6807 14.8318 18.6807 14.6444 18.8647L13.9585 19.5506V16.3085C13.9585 16.0475 13.7478 15.8367 13.4868 15.8367C13.2258 15.8367 13.015 16.0475 13.015 16.3085V19.5506L12.3291 18.868C12.1451 18.684 11.8474 18.684 11.66 18.868C11.476 19.052 11.476 19.3498 11.66 19.5372L13.1522 21.026C13.2459 21.1197 13.3663 21.1632 13.4868 21.1632C13.6072 21.1632 13.7277 21.1164 13.8214 21.026L15.3136 19.5338C15.4976 19.3498 15.4976 19.052 15.3136 18.8647Z"
          fill="#DA3636"
          stroke-width="0"/>
      <path
          d="M23.3368 17.4661L21.8446 15.9739C21.7509 15.8802 21.6305 15.8367 21.51 15.8367C21.3896 15.8367 21.2691 15.8836 21.1755 15.9739L19.6832 17.4661C19.4992 17.6501 19.4992 17.9479 19.6832 18.1353C19.8673 18.3193 20.165 18.3193 20.3524 18.1353L21.0383 17.4494V20.6915C21.0383 20.9524 21.2491 21.1632 21.51 21.1632C21.771 21.1632 21.9818 20.9524 21.9818 20.6915V17.4494L22.6677 18.1353C22.8517 18.3193 23.1495 18.3193 23.3368 18.1353C23.5209 17.9513 23.5209 17.6535 23.3368 17.4661Z"
          fill="#DA3636"
          stroke-width="0"/>
    </svg>

    <!-- Displaying washroom icon on the map -->
    <svg width="35" height="52" viewBox="0 0 35 52" fill="none" xmlns="http://www.w3.org/2000/svg" id="restroom_w1" x="700" y="760">
      <path
          d="M13.0369 22.7613C14.2897 23.9784 15.7774 24.587 17.5 24.587C19.2226 24.587 20.6711 23.9784 21.8456 22.7613C23.0984 21.4629 23.7248 19.9212 23.7248 18.136C23.7248 16.3508 23.0984 14.8496 21.8456 13.6324C20.6711 12.3341 19.2226 11.6849 17.5 11.6849C15.7774 11.6849 14.2897 12.3341 13.0369 13.6324C11.8624 14.8496 11.2752 16.3508 11.2752 18.136C11.2752 19.9212 11.8624 21.4629 13.0369 22.7613ZM5.05034 5.35559C8.49553 1.7852 12.6454 0 17.5 0C22.3546 0 26.4653 1.7852 29.8322 5.35559C33.2774 8.84484 35 13.105 35 18.136C35 20.6515 34.3736 23.5321 33.1208 26.778C31.9463 30.0238 30.4978 33.0667 28.7752 35.9068C27.0526 38.7469 25.33 41.4247 23.6074 43.9402C21.9631 46.3745 20.5537 48.322 19.3792 49.7826L17.5 51.8519C17.0302 51.2838 16.4038 50.5535 15.6208 49.6609C14.8378 48.6872 13.4284 46.8208 11.3926 44.0619C9.35682 41.2218 7.55593 38.5034 5.98993 35.9068C4.50224 33.229 3.13199 30.2266 1.87919 26.8997C0.626398 23.5727 0 20.6515 0 18.136C0 13.105 1.68344 8.84484 5.05034 5.35559Z"
          fill="#08648B"
          stroke-width="0"/>
      <path
          d="M17.5 32.9412C24.4036 32.9412 30 26.6863 30 18.9706C30 11.2549 24.4036 5 17.5 5C10.5964 5 5 11.2549 5 18.9706C5 26.6863 10.5964 32.9412 17.5 32.9412Z"
          fill="#F7D6D6"
          stroke-width="0"/>
      <path
          d="M17.84 7C16.3819 7 15.2 8.18196 15.2 9.64001C15.2015 11.0975 16.3826 12.2786 17.84 12.28C19.2981 12.28 20.48 11.0981 20.48 9.64001C20.48 8.18196 19.2981 7 17.84 7ZM17.84 11.4C16.868 11.4 16.0801 10.612 16.0801 9.64001C16.0801 8.668 16.868 7.88001 17.84 7.88001C18.8121 7.88001 19.6 8.668 19.6 9.64001C19.6 10.612 18.8121 11.4 17.84 11.4Z"
          fill="#DA3636"
          stroke-width="0"/>
      <path
          d="M22.6616 22.2738L20.0216 13.4737C19.9658 13.2876 19.7944 13.16 19.6 13.16H16.0801C15.8856 13.16 15.7143 13.2876 15.6584 13.4737L13.0185 22.2738C12.9784 22.4075 13.0042 22.5523 13.088 22.664C13.1711 22.7747 13.3015 22.8401 13.44 22.8401H15.2V28.56C15.2 28.8031 15.3971 29 15.64 29H20.0401C20.2831 29 20.48 28.8031 20.48 28.56V22.8401H22.24C22.483 22.8401 22.6801 22.6431 22.6801 22.4001C22.6801 22.3573 22.6739 22.3147 22.6616 22.2738ZM20.0401 21.96C19.7971 21.96 19.6 22.157 19.6 22.4V28.1201H18.28V21.96H17.4001V28.1201H16.0801V22.4C16.0801 22.157 15.883 21.96 15.64 21.96H14.0314L16.4074 14.04H19.2726L21.6486 21.96H20.0401Z"
          fill="#DA3636"
          stroke-width="0"/>
    </svg>

    <svg width="35" height="52" viewBox="0 0 35 52" fill="none" xmlns="http://www.w3.org/2000/svg" id="restroom_m1" x="765" y="760">
      <path
          d="M13.0369 22.7613C14.2897 23.9784 15.7774 24.587 17.5 24.587C19.2226 24.587 20.6711 23.9784 21.8456 22.7613C23.0984 21.4629 23.7248 19.9212 23.7248 18.136C23.7248 16.3508 23.0984 14.8496 21.8456 13.6324C20.6711 12.3341 19.2226 11.6849 17.5 11.6849C15.7774 11.6849 14.2897 12.3341 13.0369 13.6324C11.8624 14.8496 11.2752 16.3508 11.2752 18.136C11.2752 19.9212 11.8624 21.4629 13.0369 22.7613ZM5.05034 5.35559C8.49553 1.7852 12.6454 0 17.5 0C22.3546 0 26.4653 1.7852 29.8322 5.35559C33.2774 8.84484 35 13.105 35 18.136C35 20.6515 34.3736 23.5321 33.1208 26.778C31.9463 30.0238 30.4978 33.0667 28.7752 35.9068C27.0526 38.7469 25.33 41.4247 23.6074 43.9402C21.9631 46.3745 20.5537 48.322 19.3792 49.7826L17.5 51.8519C17.0302 51.2838 16.4038 50.5535 15.6208 49.6609C14.8378 48.6872 13.4284 46.8208 11.3926 44.0619C9.35682 41.2218 7.55593 38.5034 5.98993 35.9068C4.50224 33.229 3.13199 30.2266 1.87919 26.8997C0.626398 23.5727 0 20.6515 0 18.136C0 13.105 1.68344 8.84484 5.05034 5.35559Z"
          fill="#08648B"
          stroke-width="0"/>
      <path
          d="M17.5 32.9412C24.4036 32.9412 30 26.6863 30 18.9706C30 11.2549 24.4036 5 17.5 5C10.5964 5 5 11.2549 5 18.9706C5 26.6863 10.5964 32.9412 17.5 32.9412Z"
          fill="#F7D6D6"
          stroke-width="0"/>
      <path
          d="M18.0001 8C16.6746 8 15.6001 9.0745 15.6001 10.4C15.6001 11.7255 16.6746 12.8 18.0001 12.8C19.3251 12.7987 20.3988 11.725 20.4001 10.4C20.4001 9.0745 19.3256 8 18.0001 8ZM18.0001 12C17.1165 12 16.4001 11.2837 16.4001 10.4C16.4001 9.51635 17.1165 8.8 18.0001 8.8C18.8838 8.8 19.6001 9.51635 19.6001 10.4C19.6001 11.2837 18.8838 12 18.0001 12Z"
          fill="#DA3636"
          stroke-width="0"/>
      <path
          d="M19.2 13.6H16.8C15.2543 13.6018 14.0018 14.8544 14 16.4V22C14 22.2209 14.1791 22.4 14.4 22.4H15.6V27.6C15.6 27.8209 15.7791 28 16 28H20C20.2209 28 20.4 27.8209 20.4 27.6V22.4H21.6C21.8209 22.4 22 22.2209 22 22V16.4C21.9982 14.8544 20.7457 13.6018 19.2 13.6ZM21.2 21.6H20.4V16.8H19.6V27.2H18.4V21.6H17.6V27.2H16.4V16.8H15.6V21.6H14.8V16.4C14.8013 15.296 15.696 14.4013 16.8 14.4H19.2C20.304 14.4013 21.1987 15.296 21.2 16.4V21.6Z"
          fill="#DA3636"
          stroke-width="0"/>
    </svg>

    <!-- Displaying escalator icon on the map -->
    <svg width="35" height="52" viewBox="0 0 35 52" fill="none" xmlns="http://www.w3.org/2000/svg" id="escalator_down1" x="473" y="750">
      <path
          d="M13.0369 22.7613C14.2897 23.9784 15.7774 24.587 17.5 24.587C19.2226 24.587 20.6711 23.9784 21.8456 22.7613C23.0984 21.4629 23.7248 19.9212 23.7248 18.136C23.7248 16.3508 23.0984 14.8496 21.8456 13.6324C20.6711 12.3341 19.2226 11.6849 17.5 11.6849C15.7774 11.6849 14.2897 12.3341 13.0369 13.6324C11.8624 14.8496 11.2752 16.3508 11.2752 18.136C11.2752 19.9212 11.8624 21.4629 13.0369 22.7613ZM5.05034 5.35559C8.49553 1.7852 12.6454 0 17.5 0C22.3546 0 26.4653 1.7852 29.8322 5.35559C33.2774 8.84484 35 13.105 35 18.136C35 20.6515 34.3736 23.5321 33.1208 26.778C31.9463 30.0238 30.4978 33.0667 28.7752 35.9068C27.0526 38.7469 25.33 41.4247 23.6074 43.9402C21.9631 46.3745 20.5537 48.322 19.3792 49.7826L17.5 51.8519C17.0302 51.2838 16.4038 50.5535 15.6208 49.6609C14.8378 48.6872 13.4284 46.8208 11.3926 44.0619C9.35682 41.2218 7.55593 38.5034 5.98993 35.9068C4.50224 33.229 3.13199 30.2266 1.87919 26.8997C0.626398 23.5727 0 20.6515 0 18.136C0 13.105 1.68344 8.84484 5.05034 5.35559Z"
          fill="#666666"
          stroke-width="0"/>
      <path
          d="M17.5 32.9412C24.4036 32.9412 30 26.6863 30 18.9706C30 11.2549 24.4036 5 17.5 5C10.5964 5 5 11.2549 5 18.9706C5 26.6863 10.5964 32.9412 17.5 32.9412Z"
          fill="#F7D6D6"
          stroke-width="0"/>
      <path
          d="M11.4009 21.2074C11.0799 21.1979 10.7691 21.3213 10.542 21.5484C10.3148 21.7756 10.1915 22.0863 10.2009 22.4074C10.2009 22.5731 10.3353 22.7074 10.5009 22.7074C10.6666 22.7074 10.8009 22.5731 10.8009 22.4074C10.7907 22.245 10.8508 22.0861 10.966 21.9712C11.0813 21.8563 11.2404 21.7966 11.4027 21.8074C11.5684 21.8069 11.7023 21.6722 11.7018 21.5065C11.7013 21.3408 11.5666 21.2069 11.4009 21.2074Z"
          fill="#DA3636"
          stroke-width="0"/>
      <path
          d="M24.6008 14.9074C24.7629 14.8969 24.9217 14.9567 25.0366 15.0716C25.1515 15.1865 25.2113 15.3453 25.2008 15.5074C25.2008 15.6731 25.3351 15.8074 25.5008 15.8074C25.6665 15.8074 25.8008 15.6731 25.8008 15.5074C25.8103 15.1863 25.6869 14.8756 25.4598 14.6484C25.2326 14.4213 24.9219 14.2979 24.6008 14.3074C24.4351 14.3074 24.3008 14.4417 24.3008 14.6074C24.3008 14.7731 24.4351 14.9074 24.6008 14.9074Z"
          fill="#DA3636"
          stroke-width="0"/>
      <path
          d="M18.6009 18.5074C18.4352 18.5074 18.3009 18.6417 18.3009 18.8074V19.4074H17.7009C17.5352 19.4074 17.4009 19.5417 17.4009 19.7074V20.3074H16.8009C16.6352 20.3074 16.5009 20.4417 16.5009 20.6074V21.2074H15.9009C15.7352 21.2074 15.6009 21.3417 15.6009 21.5074V22.1074H15.0009C14.8352 22.1074 14.7009 22.2417 14.7009 22.4074V23.3074C14.7009 23.4731 14.8352 23.6074 15.0009 23.6074C15.1666 23.6074 15.3009 23.4731 15.3009 23.3074V22.7074H15.9009C16.0666 22.7074 16.2009 22.5731 16.2009 22.4074V21.8074H16.8009C16.9666 21.8074 17.1009 21.6731 17.1009 21.5074V20.9074H17.7009C17.8666 20.9074 18.0009 20.7731 18.0009 20.6074V20.0074H18.6009C18.7666 20.0074 18.9009 19.8731 18.9009 19.7074V19.1074H19.5009C19.6666 19.1074 19.8009 18.9731 19.8009 18.8074V18.2074H20.4009C20.5666 18.2074 20.7009 18.0731 20.7009 17.9074V17.3074H21.3009C21.4666 17.3074 21.6009 17.1731 21.6009 17.0074V16.4074H22.2009C22.3666 16.4074 22.5009 16.2731 22.5009 16.1074C22.5009 15.9417 22.3666 15.8074 22.2009 15.8074H21.3009C21.1352 15.8074 21.0009 15.9417 21.0009 16.1074V16.7074H20.4009C20.2352 16.7074 20.1009 16.8417 20.1009 17.0074V17.6074H19.5009C19.3352 17.6074 19.2009 17.7417 19.2009 17.9074V18.5074H18.6009Z"
          fill="#DA3636"
          stroke-width="0"/>
      <path
          d="M13.2009 17.0074V20.0074H11.4009C10.1051 20.0067 9.04268 21.0348 9.00089 22.33C8.98328 22.9672 9.22718 23.5839 9.67589 24.0367C10.1515 24.5269 10.8046 24.8047 11.4876 24.8074H14.8224C15.3796 24.8089 15.9142 24.5874 16.3071 24.1924L22.5042 17.9953C22.5606 17.9393 22.6368 17.9077 22.7163 17.9074H24.5142C25.1972 17.9047 25.8502 17.6269 26.3259 17.1367C26.7745 16.6837 27.0184 16.067 27.0009 15.4297C26.9589 14.1347 25.8966 13.1067 24.6009 13.1074H21.4809C20.9237 13.1059 20.3891 13.3274 19.9962 13.7224L18.9009 14.8174V14.0074C18.9015 13.689 18.7748 13.3837 18.549 13.1593C18.5295 13.1398 18.5067 13.1254 18.486 13.1074C18.8649 12.7795 19.0002 12.2506 18.8252 11.781C18.6502 11.3114 18.2019 11 17.7007 11C17.1996 11 16.7512 11.3114 16.5763 11.781C16.4013 12.2506 16.5365 12.7795 16.9155 13.1074C16.6533 13.3331 16.502 13.6615 16.5009 14.0074V17.2174L15.6009 18.1174V17.0074C15.6016 16.6891 15.4748 16.3837 15.249 16.1593C15.2295 16.1398 15.2067 16.1254 15.186 16.1074C15.5649 15.7795 15.7002 15.2506 15.5252 14.781C15.3502 14.3114 14.9019 14 14.4007 14C13.8996 14 13.4512 14.3114 13.2763 14.781C13.1013 15.2506 13.2365 15.7795 13.6155 16.1074C13.3533 16.3331 13.202 16.6615 13.2009 17.0074ZM20.4189 14.1466C20.6999 13.8641 21.0824 13.7059 21.4809 13.7074H24.6009C25.5726 13.7069 26.3693 14.4777 26.4009 15.4489C26.4128 15.9235 26.2303 16.3824 25.8957 16.7191C25.5331 17.0932 25.0351 17.3053 24.5142 17.3074H22.7163C22.4775 17.3068 22.2483 17.4017 22.08 17.5711L15.8829 23.7682C15.6022 24.0503 15.2203 24.2085 14.8224 24.2074H11.4876C10.9672 24.2049 10.4698 23.9928 10.1076 23.6191C9.77241 23.2826 9.58936 22.8237 9.60089 22.3489C9.63247 21.3777 10.4292 20.6069 11.4009 20.6074H13.5855C13.8243 20.608 14.0534 20.5131 14.2218 20.3437L20.4189 14.1466ZM17.1009 12.2074C17.1009 11.876 17.3695 11.6074 17.7009 11.6074C18.0322 11.6074 18.3009 11.876 18.3009 12.2074C18.3009 12.5388 18.0322 12.8074 17.7009 12.8074C17.3695 12.8074 17.1009 12.5388 17.1009 12.2074ZM17.1009 14.0074C17.1009 13.676 17.3695 13.4074 17.7009 13.4074C18.0322 13.4074 18.3009 13.676 18.3009 14.0074V15.4174L17.1009 16.6174V14.0074ZM13.8009 15.2074C13.8009 14.876 14.0695 14.6074 14.4009 14.6074C14.7323 14.6074 15.0009 14.876 15.0009 15.2074C15.0009 15.5388 14.7323 15.8074 14.4009 15.8074C14.0695 15.8074 13.8009 15.5388 13.8009 15.2074ZM14.8248 16.5835C14.9378 16.6956 15.0013 16.8482 15.0009 17.0074V18.7174L13.8009 19.9174V17.0074C13.8012 16.765 13.9474 16.5465 14.1714 16.4538C14.3954 16.361 14.6532 16.4122 14.8248 16.5835Z"
          fill="#DA3636"
          stroke-width="0"/>
      <path
          d="M24.0811 21.5916C23.9639 21.4745 23.774 21.4745 23.6569 21.5916L21.3739 23.8746C21.2608 23.9876 21.2562 24.1694 21.3634 24.288L21.622 24.5727H19.6V22.3476L19.9363 22.7166C19.9914 22.7772 20.0689 22.8127 20.1508 22.8147C20.2333 22.8195 20.3137 22.7873 20.3701 22.7268L22.5811 20.5158C22.6591 20.4405 22.6904 20.3289 22.6629 20.224C22.6354 20.1192 22.5535 20.0372 22.4486 20.0098C22.3438 19.9823 22.2322 20.0136 22.1569 20.0916L20.1682 22.0803L20.0437 21.9435C19.877 21.7603 19.6148 21.6984 19.3838 21.7877C19.1527 21.877 19.0003 22.099 19 22.3467V24.5727C19 24.9041 19.2686 25.1727 19.6 25.1727H21.622C21.8597 25.1746 22.0755 25.0343 22.1701 24.8163C22.2683 24.5997 22.2276 24.3454 22.0666 24.1704L22 24.0969L24.0811 22.0158C24.1982 21.8986 24.1982 21.7087 24.0811 21.5916Z"
          fill="#DA3636"
          stroke-width="0"/>
    </svg>
  </g>
</svg>
