<svg
    width="1024"
    height="1024"
    viewBox="0 0 1024 1024"
    fill="none"
    xmlns="http://www.w3.org/2000/svg">

    <path
        d="M370 105.286L472.143 839.571H487.857L520 951H746.429V959.571H792.857V968.857H991.786V614.733H862.987V71H826.429V88.1429H642.143V71.7143H617.143V56H408.571V105.286H370Z"
        fill="#F7D6D6"
        stroke="black"
        stroke-width="2" />
    <path
        d="M529.286 56V127.429H558.571V166H630.714V71.7143H617.143V56H529.286Z"
        fill="#DA3636"
        stroke="black"
        stroke-width="2" />
    <path
        d="M630.714 111.714H665.714L683.383 142.317V195.286H862.987V71H826.429V88.1429H642.143V71.7143H630.714V111.714Z"
        fill="#DA3636"
        stroke="black"
        stroke-width="2" />
    <path
        d="M560.714 199.571H623.572L822.9 252.981V432.429L644.774 480.157H560.714V199.571Z"
        fill="#DA3636"
        stroke="black"
        stroke-width="2" />
    <path
        d="M771.429 195.286V239.19L822.9 252.981V432.429L700.864 465.128V498.857H746.429V540.286H772.143V476.714H862.987V195.286H771.429Z"
        fill="#DA3636"
        stroke="black"
        stroke-width="2" />
    <path
        d="M700.863 498.857H626.428V480.157H644.774L700.863 465.128V498.857Z"
        fill="#DA3636"
        stroke="black"
        stroke-width="2" />
    <path
        d="M527.143 463.857V391Z"
        fill="#DA3636" />
    <path
        d="M527.143 463.857V391"
        stroke="black"
        stroke-width="2" />
    <path
        d="M527.143 401.357H560.714Z"
        fill="#DA3636" />
    <path
        d="M527.143 401.357H560.714"
        stroke="black"
        stroke-width="2" />
    <path
        d="M527.143 360.643V196.357Z"
        fill="#DA3636" />
    <path
        d="M527.143 360.643V196.357"
        stroke="black"
        stroke-width="2" />
    <path
        d="M991.786 614.733H862.987V791H991.786V614.733Z"
        fill="#DA3636"
        stroke="black"
        stroke-width="2" />
    <path
        d="M862.987 623.143H746.428V723.143H862.987V623.143Z"
        fill="#DA3636"
        stroke="black"
        stroke-width="2" />
    <path
        d="M812.143 524.571H772.143V582.786H812.143V524.571Z"
        fill="#DA3636"
        stroke="black"
        stroke-width="2" />
    <path
        d="M862.987 582.786H772.143V623.143H862.987V582.786Z"
        fill="#DA3636"
        stroke="black"
        stroke-width="2" />
    <path
        d="M862.987 476.714H812.143V582.786H862.987V476.714Z"
        fill="#DA3636"
        stroke="black"
        stroke-width="2" />
    <path
        d="M812.143 476.714H772.143V524.571H812.143V476.714Z"
        fill="#DA3636"
        stroke="black"
        stroke-width="2" />
    <path
        d="M746.429 498.857H706.414V540.286H746.429V498.857Z"
        fill="#DA3636"
        stroke="black"
        stroke-width="2" />
    <path
        d="M706.413 498.857H668.533V540.286H706.413V498.857Z"
        fill="#DA3636"
        stroke="black"
        stroke-width="2" />
    <path
        d="M668.533 498.857H626.428V540.286H668.533V498.857Z"
        fill="#DA3636"
        stroke="black"
        stroke-width="2" />
    <path
        d="M668.214 583.857H626.428V623.143H668.214V583.857Z"
        fill="#DA3636"
        stroke="black"
        stroke-width="2" />
    <path
        d="M707.143 583.857H668.214V623.143H707.143V583.857Z"
        fill="#DA3636"
        stroke="black"
        stroke-width="2" />
    <path
        d="M746.429 583.857H707.143V623.143H746.429V583.857Z"
        fill="#DA3636"
        stroke="black"
        stroke-width="2" />
    <path
        d="M746.428 623.143H626.428V683.423H746.428V623.143Z"
        fill="#DA3636"
        stroke="black"
        stroke-width="2" />
    <path
        d="M694.553 683.429V731.929H687.21V768.522H719.053V790.997H739.991V768.522H746.428V731.929V683.429H694.553Z"
        fill="#DA3636"
        stroke="black"
        stroke-width="2" />
    <path
        d="M754.901 723.143H746.428V768.522H754.901V723.143Z"
        fill="#DA3636"
        stroke="black"
        stroke-width="2" />
    <path
        d="M782.175 723.143H754.901V768.522H782.175V723.143Z"
        fill="#DA3636"
        stroke="black"
        stroke-width="2" />
    <path
        d="M782.178 723.147V768.522V790.997H806.428V768.522H862.991V723.147H782.178Z"
        fill="#DA3636"
        stroke="black"
        stroke-width="2" />
    <path
        d="M862.987 768.522H836.976V791H862.987V768.522Z"
        fill="#DA3636"
        stroke="black"
        stroke-width="2" />
    <path
        d="M836.976 768.522H806.428V791H836.976V768.522Z"
        fill="#DA3636"
        stroke="black"
        stroke-width="2" />
    <path
        d="M917.866 790.991V819.929H870.71H774.991V886.366H844.647V905.647H870.71V886.366V865.647H941.085V968.866H991.772V827.085V790.991H917.866Z"
        fill="#DA3636"
        stroke="black"
        stroke-width="2" />
    <path
        d="M870.71 865.647V905.647H844.647V886.366H774.991V867.429H746.428V959.585H774.991H792.866V968.866H870.71H941.085V865.647H870.71Z"
        fill="#DA3636"
        stroke="black"
        stroke-width="2" />
    <path
        d="M774.991 833.143H746.428V867.429H774.991V833.143Z"
        fill="#DA3636"
        stroke="black"
        stroke-width="2" />
    <path
        d="M663.272 750.46V768.522V790.991H719.053V768.522H680.522V750.46H663.272Z"
        fill="#DA3636"
        stroke="black"
        stroke-width="2" />
    <path
        d="M609.678 733.179V807.647H663.272V750.46H680.522V733.179H663.272H609.678Z"
        fill="#DA3636"
        stroke="black"
        stroke-width="2" />
    <path
        d="M680.522 683.423H626.428V733.179H680.522V683.423Z"
        fill="#DA3636"
        stroke="black"
        stroke-width="2" />
    <path
        d="M649.087 713.223H626.428V733.179H649.087V713.223Z"
        fill="#DA3636"
        stroke="black"
        stroke-width="2" />
    <path
        d="M436.66 584.49H522.5V752.786"
        stroke="black"
        stroke-width="2" />
    <path
        d="M480.714 584.49V752.786Z"
        fill="#DA3636" />
    <path
        d="M480.714 584.49V752.786"
        stroke="black"
        stroke-width="2" />
    <path
        d="M452.902 701.252H480.714Z"
        fill="#DA3636" />
    <path
        d="M452.902 701.252H480.714"
        stroke="black"
        stroke-width="2" />
    <path
        d="M487.857 839.571H527.143L518.929 812.429H492.857"
        stroke="black"
        stroke-width="2" />
    <path
        d="M527.143 839.571L557.857 951Z"
        fill="#DA3636" />
    <path
        d="M527.143 839.571L557.857 951"
        stroke="black"
        stroke-width="2" />
    <path
        d="M419.826 463.475H460.714V285.643H428.571L443.214 383.5"
        stroke="black"
        stroke-width="2" />
    <path
        d="M433.572 285.643L415.714 155.643Z"
        fill="#DA3636" />
    <path
        d="M433.572 285.643L415.714 155.643"
        stroke="black"
        stroke-width="2" />
    <path
        d="M441.786 56H408.571V104.571H441.786V56Z"
        fill="#DA3636"
        stroke="black"
        stroke-width="2" />
    <path
        d="M862.987 119.929H735V195.286H862.987V119.929Z"
        fill="#DA3636"
        stroke="black"
        stroke-width="2" />
    <path
        d="M693.928 152.429H722.5C722.5 152.429 726.786 131.357 713.214 116.357"
        fill="#DA3636" />
    <path
        d="M693.928 152.429H722.5C722.5 152.429 726.786 131.357 713.214 116.357"
        stroke="black"
        stroke-width="2" />
    <path
        d="M668.214 104.214C696.071 88.1429 712.857 100.643 723.929 113.857Z"
        fill="#DA3636" />
    <path
        d="M668.214 104.214C696.071 88.1429 712.857 100.643 723.929 113.857"
        stroke="black"
        stroke-width="2" />
    <path
        d="M558.572 127.429V87.9385Z"
        fill="#DA3636" />
    <path
        d="M558.572 127.429V87.9385"
        stroke="black"
        stroke-width="2" />
    <path
        d="M725.037 746.761C726.29 747.978 727.777 748.587 729.5 748.587C731.223 748.587 732.671 747.978 733.846 746.761C735.098 745.463 735.725 743.921 735.725 742.136C735.725 740.351 735.098 738.85 733.846 737.632C732.671 736.334 731.223 735.685 729.5 735.685C727.777 735.685 726.29 736.334 725.037 737.632C723.862 738.85 723.275 740.351 723.275 742.136C723.275 743.921 723.862 745.463 725.037 746.761ZM717.05 729.356C720.496 725.785 724.645 724 729.5 724C734.355 724 738.465 725.785 741.832 729.356C745.277 732.845 747 737.105 747 742.136C747 744.651 746.374 747.532 745.121 750.778C743.946 754.024 742.498 757.067 740.775 759.907C739.053 762.747 737.33 765.425 735.607 767.94C733.963 770.375 732.554 772.322 731.379 773.783L729.5 775.852C729.03 775.284 728.404 774.554 727.621 773.661C726.838 772.687 725.428 770.821 723.393 768.062C721.357 765.222 719.556 762.503 717.99 759.907C716.502 757.229 715.132 754.227 713.879 750.9C712.626 747.573 712 744.651 712 742.136C712 737.105 713.683 732.845 717.05 729.356Z"
        fill="#08648B" />
    <path
        d="M729.5 756.941C736.404 756.941 742 750.686 742 742.971C742 735.255 736.404 729 729.5 729C722.596 729 717 735.255 717 742.971C717 750.686 722.596 756.941 729.5 756.941Z"
        fill="#F7D6D6" />
    <path
        d="M729.84 731C728.382 731 727.2 732.182 727.2 733.64C727.201 735.097 728.383 736.279 729.84 736.28C731.298 736.28 732.48 735.098 732.48 733.64C732.48 732.182 731.298 731 729.84 731ZM729.84 735.4C728.868 735.4 728.08 734.612 728.08 733.64C728.08 732.668 728.868 731.88 729.84 731.88C730.812 731.88 731.6 732.668 731.6 733.64C731.6 734.612 730.812 735.4 729.84 735.4Z"
        fill="#DA3636" />
    <path
        d="M734.662 746.274L732.022 737.474C731.966 737.288 731.794 737.16 731.6 737.16H728.08C727.886 737.16 727.714 737.288 727.658 737.474L725.018 746.274C724.978 746.408 725.004 746.552 725.088 746.664C725.171 746.775 725.302 746.84 725.44 746.84H727.2V752.56C727.2 752.803 727.397 753 727.64 753H732.04C732.283 753 732.48 752.803 732.48 752.56V746.84H734.24C734.483 746.84 734.68 746.643 734.68 746.4C734.68 746.357 734.674 746.315 734.662 746.274ZM732.04 745.96C731.797 745.96 731.6 746.157 731.6 746.4V752.12H730.28V745.96H729.4V752.12H728.08V746.4C728.08 746.157 727.883 745.96 727.64 745.96H726.031L728.407 738.04H731.273L733.649 745.96H732.04Z"
        fill="#DA3636" />
    <path
        d="M790.037 745.761C791.29 746.978 792.777 747.587 794.5 747.587C796.223 747.587 797.671 746.978 798.846 745.761C800.098 744.463 800.725 742.921 800.725 741.136C800.725 739.351 800.098 737.85 798.846 736.632C797.671 735.334 796.223 734.685 794.5 734.685C792.777 734.685 791.29 735.334 790.037 736.632C788.862 737.85 788.275 739.351 788.275 741.136C788.275 742.921 788.862 744.463 790.037 745.761ZM782.05 728.356C785.496 724.785 789.645 723 794.5 723C799.355 723 803.465 724.785 806.832 728.356C810.277 731.845 812 736.105 812 741.136C812 743.651 811.374 746.532 810.121 749.778C808.946 753.024 807.498 756.067 805.775 758.907C804.053 761.747 802.33 764.425 800.607 766.94C798.963 769.375 797.554 771.322 796.379 772.783L794.5 774.852C794.03 774.284 793.404 773.554 792.621 772.661C791.838 771.687 790.428 769.821 788.393 767.062C786.357 764.222 784.556 761.503 782.99 758.907C781.502 756.229 780.132 753.227 778.879 749.9C777.626 746.573 777 743.651 777 741.136C777 736.105 778.683 731.845 782.05 728.356Z"
        fill="#08648B" />
    <path
        d="M794.5 755.941C801.404 755.941 807 749.686 807 741.971C807 734.255 801.404 728 794.5 728C787.596 728 782 734.255 782 741.971C782 749.686 787.596 755.941 794.5 755.941Z"
        fill="#F7D6D6" />
    <path
        d="M795 731C793.675 731 792.6 732.075 792.6 733.4C792.6 734.726 793.675 735.8 795 735.8C796.325 735.799 797.399 734.725 797.4 733.4C797.4 732.075 796.326 731 795 731ZM795 735C794.116 735 793.4 734.284 793.4 733.4C793.4 732.516 794.116 731.8 795 731.8C795.884 731.8 796.6 732.516 796.6 733.4C796.6 734.284 795.884 735 795 735Z"
        fill="#DA3636" />
    <path
        d="M796.2 736.6H793.8C792.254 736.602 791.002 737.854 791 739.4V745C791 745.221 791.179 745.4 791.4 745.4H792.6V750.6C792.6 750.821 792.779 751 793 751H797C797.221 751 797.4 750.821 797.4 750.6V745.4H798.6C798.821 745.4 799 745.221 799 745V739.4C798.998 737.854 797.746 736.602 796.2 736.6ZM798.2 744.6H797.4V739.8H796.6V750.2H795.4V744.6H794.6V750.2H793.4V739.8H792.6V744.6H791.8V739.4C791.801 738.296 792.696 737.401 793.8 737.4H796.2C797.304 737.401 798.199 738.296 798.2 739.4V744.6Z"
        fill="#DA3636" />
    <path
        d="M683.037 510.761C684.29 511.978 685.777 512.587 687.5 512.587C689.223 512.587 690.671 511.978 691.846 510.761C693.098 509.463 693.725 507.921 693.725 506.136C693.725 504.351 693.098 502.85 691.846 501.632C690.671 500.334 689.223 499.685 687.5 499.685C685.777 499.685 684.29 500.334 683.037 501.632C681.862 502.85 681.275 504.351 681.275 506.136C681.275 507.921 681.862 509.463 683.037 510.761ZM675.05 493.356C678.496 489.785 682.645 488 687.5 488C692.355 488 696.465 489.785 699.832 493.356C703.277 496.845 705 501.105 705 506.136C705 508.651 704.374 511.532 703.121 514.778C701.946 518.024 700.498 521.067 698.775 523.907C697.053 526.747 695.33 529.425 693.607 531.94C691.963 534.375 690.554 536.322 689.379 537.783L687.5 539.852C687.03 539.284 686.404 538.554 685.621 537.661C684.838 536.687 683.428 534.821 681.393 532.062C679.357 529.222 677.556 526.503 675.99 523.907C674.502 521.229 673.132 518.227 671.879 514.9C670.626 511.573 670 508.651 670 506.136C670 501.105 671.683 496.845 675.05 493.356Z"
        fill="#666666" />
    <path
        d="M687.5 519.941C694.404 519.941 700 513.686 700 505.971C700 498.255 694.404 492 687.5 492C680.596 492 675 498.255 675 505.971C675 513.686 680.596 519.941 687.5 519.941Z"
        fill="#F7D6D6" />
    <path
        d="M694.632 498.002H680.365C679.612 498.002 679 498.614 679 499.367V513.637C679 514.386 679.612 514.999 680.365 514.999H694.635C695.388 514.999 696 514.386 696 513.634V499.367C695.997 498.614 695.384 498.002 694.632 498.002ZM687.027 514.055H680.365C680.134 514.055 679.947 513.868 679.947 513.637V499.367C679.947 499.136 680.134 498.949 680.365 498.949H687.027V514.055ZM694.635 514.052H687.97V498.945H694.632C694.862 498.945 695.05 499.133 695.05 499.364V513.634H695.053C695.053 513.864 694.866 514.052 694.635 514.052Z"
        fill="#DA3636" />
    <path
        d="M685.314 506.865C685.13 506.681 684.832 506.681 684.644 506.865L683.959 507.551V504.308C683.959 504.047 683.748 503.837 683.487 503.837C683.226 503.837 683.015 504.047 683.015 504.308V507.551L682.329 506.868C682.145 506.684 681.847 506.684 681.66 506.868C681.476 507.052 681.476 507.35 681.66 507.537L683.152 509.026C683.246 509.12 683.366 509.163 683.487 509.163C683.607 509.163 683.728 509.116 683.821 509.026L685.314 507.534C685.498 507.35 685.498 507.052 685.314 506.865Z"
        fill="#DA3636" />
    <path
        d="M693.337 505.466L691.845 503.974C691.751 503.88 691.63 503.837 691.51 503.837C691.39 503.837 691.269 503.884 691.175 503.974L689.683 505.466C689.499 505.65 689.499 505.948 689.683 506.135C689.867 506.319 690.165 506.319 690.352 506.135L691.038 505.449V508.691C691.038 508.952 691.249 509.163 691.51 509.163C691.771 509.163 691.982 508.952 691.982 508.691V505.449L692.668 506.135C692.852 506.319 693.149 506.319 693.337 506.135C693.521 505.951 693.521 505.653 693.337 505.466Z"
        fill="#DA3636" />
    <path
        d="M681.037 585.761C682.29 586.978 683.777 587.587 685.5 587.587C687.223 587.587 688.671 586.978 689.846 585.761C691.098 584.463 691.725 582.921 691.725 581.136C691.725 579.351 691.098 577.85 689.846 576.632C688.671 575.334 687.223 574.685 685.5 574.685C683.777 574.685 682.29 575.334 681.037 576.632C679.862 577.85 679.275 579.351 679.275 581.136C679.275 582.921 679.862 584.463 681.037 585.761ZM673.05 568.356C676.496 564.785 680.645 563 685.5 563C690.355 563 694.465 564.785 697.832 568.356C701.277 571.845 703 576.105 703 581.136C703 583.651 702.374 586.532 701.121 589.778C699.946 593.024 698.498 596.067 696.775 598.907C695.053 601.747 693.33 604.425 691.607 606.94C689.963 609.375 688.554 611.322 687.379 612.783L685.5 614.852C685.03 614.284 684.404 613.554 683.621 612.661C682.838 611.687 681.428 609.821 679.393 607.062C677.357 604.222 675.556 601.503 673.99 598.907C672.502 596.229 671.132 593.227 669.879 589.9C668.626 586.573 668 583.651 668 581.136C668 576.105 669.683 571.845 673.05 568.356Z"
        fill="#666666" />
    <path
        d="M685.5 594.941C692.404 594.941 698 588.686 698 580.971C698 573.255 692.404 567 685.5 567C678.596 567 673 573.255 673 580.971C673 588.686 678.596 594.941 685.5 594.941Z"
        fill="#F7D6D6" />
    <path
        d="M692.632 573.002H678.365C677.612 573.002 677 573.614 677 574.367V588.637C677 589.386 677.612 589.999 678.365 589.999H692.635C693.388 589.999 694 589.386 694 588.634V574.367C693.997 573.614 693.384 573.002 692.632 573.002ZM685.027 589.055H678.365C678.134 589.055 677.947 588.868 677.947 588.637V574.367C677.947 574.136 678.134 573.949 678.365 573.949H685.027V589.055ZM692.635 589.052H685.97V573.945H692.632C692.862 573.945 693.05 574.133 693.05 574.364V588.634H693.053C693.053 588.864 692.866 589.052 692.635 589.052Z"
        fill="#DA3636" />
    <path
        d="M683.314 581.865C683.13 581.681 682.832 581.681 682.644 581.865L681.959 582.551V579.308C681.959 579.047 681.748 578.837 681.487 578.837C681.226 578.837 681.015 579.047 681.015 579.308V582.551L680.329 581.868C680.145 581.684 679.847 581.684 679.66 581.868C679.476 582.052 679.476 582.35 679.66 582.537L681.152 584.026C681.246 584.12 681.366 584.163 681.487 584.163C681.607 584.163 681.728 584.116 681.821 584.026L683.314 582.534C683.498 582.35 683.498 582.052 683.314 581.865Z"
        fill="#DA3636" />
    <path
        d="M691.337 580.466L689.845 578.974C689.751 578.88 689.63 578.837 689.51 578.837C689.39 578.837 689.269 578.884 689.175 578.974L687.683 580.466C687.499 580.65 687.499 580.948 687.683 581.135C687.867 581.319 688.165 581.319 688.352 581.135L689.038 580.449V583.691C689.038 583.952 689.249 584.163 689.51 584.163C689.771 584.163 689.982 583.952 689.982 583.691V580.449L690.668 581.135C690.852 581.319 691.149 581.319 691.337 581.135C691.521 580.951 691.521 580.653 691.337 580.466Z"
        fill="#DA3636" />
    <path
        d="M535.037 449.761C536.29 450.978 537.777 451.587 539.5 451.587C541.223 451.587 542.671 450.978 543.846 449.761C545.098 448.463 545.725 446.921 545.725 445.136C545.725 443.351 545.098 441.85 543.846 440.632C542.671 439.334 541.223 438.685 539.5 438.685C537.777 438.685 536.29 439.334 535.037 440.632C533.862 441.85 533.275 443.351 533.275 445.136C533.275 446.921 533.862 448.463 535.037 449.761ZM527.05 432.356C530.496 428.785 534.645 427 539.5 427C544.355 427 548.465 428.785 551.832 432.356C555.277 435.845 557 440.105 557 445.136C557 447.651 556.374 450.532 555.121 453.778C553.946 457.024 552.498 460.067 550.775 462.907C549.053 465.747 547.33 468.425 545.607 470.94C543.963 473.375 542.554 475.322 541.379 476.783L539.5 478.852C539.03 478.284 538.404 477.554 537.621 476.661C536.838 475.687 535.428 473.821 533.393 471.062C531.357 468.222 529.556 465.503 527.99 462.907C526.502 460.229 525.132 457.227 523.879 453.9C522.626 450.573 522 447.651 522 445.136C522 440.105 523.683 435.845 527.05 432.356Z"
        fill="#666666" />
    <path
        d="M539.5 458.941C546.404 458.941 552 452.686 552 444.971C552 437.255 546.404 431 539.5 431C532.596 431 527 437.255 527 444.971C527 452.686 532.596 458.941 539.5 458.941Z"
        fill="#F7D6D6" />
    <path
        d="M548.219 437.305H543.609C543.178 437.305 542.828 437.654 542.828 438.086V441.914H539C538.569 441.914 538.219 442.264 538.219 442.695V446.523H534.391C533.959 446.523 533.609 446.873 533.609 447.305V451.133H529.781C529.35 451.133 529 451.483 529 451.914C529 452.345 529.35 452.695 529.781 452.695H534.391C534.598 452.695 534.797 452.613 534.943 452.466C535.09 452.32 535.172 452.121 535.172 451.914L535.172 448.086H539C539.207 448.086 539.406 448.004 539.552 447.857C539.699 447.711 539.781 447.512 539.781 447.305L539.781 443.477H543.609C543.817 443.477 544.015 443.394 544.162 443.248C544.308 443.101 544.391 442.902 544.391 442.695V438.867H548.219C548.65 438.867 549 438.517 549 438.086C549 437.654 548.65 437.305 548.219 437.305Z"
        fill="#DA3636" />
    <path
        d="M387.037 136.761C388.29 137.978 389.777 138.587 391.5 138.587C393.223 138.587 394.671 137.978 395.846 136.761C397.098 135.463 397.725 133.921 397.725 132.136C397.725 130.351 397.098 128.85 395.846 127.632C394.671 126.334 393.223 125.685 391.5 125.685C389.777 125.685 388.29 126.334 387.037 127.632C385.862 128.85 385.275 130.351 385.275 132.136C385.275 133.921 385.862 135.463 387.037 136.761ZM379.05 119.356C382.496 115.785 386.645 114 391.5 114C396.355 114 400.465 115.785 403.832 119.356C407.277 122.845 409 127.105 409 132.136C409 134.651 408.374 137.532 407.121 140.778C405.946 144.024 404.498 147.067 402.775 149.907C401.053 152.747 399.33 155.425 397.607 157.94C395.963 160.375 394.554 162.322 393.379 163.783L391.5 165.852C391.03 165.284 390.404 164.554 389.621 163.661C388.838 162.687 387.428 160.821 385.393 158.062C383.357 155.222 381.556 152.503 379.99 149.907C378.502 147.229 377.132 144.227 375.879 140.9C374.626 137.573 374 134.651 374 132.136C374 127.105 375.683 122.845 379.05 119.356Z"
        fill="#666666" />
    <path
        d="M391.5 145.941C398.404 145.941 404 139.686 404 131.971C404 124.255 398.404 118 391.5 118C384.596 118 379 124.255 379 131.971C379 139.686 384.596 145.941 391.5 145.941Z"
        fill="#F7D6D6" />
    <path
        d="M400.219 124.305H395.609C395.178 124.305 394.828 124.654 394.828 125.086V128.914H391C390.569 128.914 390.219 129.264 390.219 129.695V133.523H386.391C385.959 133.523 385.609 133.873 385.609 134.305V138.133H381.781C381.35 138.133 381 138.483 381 138.914C381 139.345 381.35 139.695 381.781 139.695H386.391C386.598 139.695 386.797 139.613 386.943 139.466C387.09 139.32 387.172 139.121 387.172 138.914L387.172 135.086H391C391.207 135.086 391.406 135.004 391.552 134.857C391.699 134.711 391.781 134.512 391.781 134.305L391.781 130.477H395.609C395.817 130.477 396.015 130.394 396.162 130.248C396.308 130.101 396.391 129.902 396.391 129.695V125.867H400.219C400.65 125.867 401 125.517 401 125.086C401 124.654 400.65 124.305 400.219 124.305Z"
        fill="#DA3636" />
    <path
        d="M785.037 586.761C786.29 587.978 787.777 588.587 789.5 588.587C791.223 588.587 792.671 587.978 793.846 586.761C795.098 585.463 795.725 583.921 795.725 582.136C795.725 580.351 795.098 578.85 793.846 577.632C792.671 576.334 791.223 575.685 789.5 575.685C787.777 575.685 786.29 576.334 785.037 577.632C783.862 578.85 783.275 580.351 783.275 582.136C783.275 583.921 783.862 585.463 785.037 586.761ZM777.05 569.356C780.496 565.785 784.645 564 789.5 564C794.355 564 798.465 565.785 801.832 569.356C805.277 572.845 807 577.105 807 582.136C807 584.651 806.374 587.532 805.121 590.778C803.946 594.024 802.498 597.067 800.775 599.907C799.053 602.747 797.33 605.425 795.607 607.94C793.963 610.375 792.554 612.322 791.379 613.783L789.5 615.852C789.03 615.284 788.404 614.554 787.621 613.661C786.838 612.687 785.428 610.821 783.393 608.062C781.357 605.222 779.556 602.503 777.99 599.907C776.502 597.229 775.132 594.227 773.879 590.9C772.626 587.573 772 584.651 772 582.136C772 577.105 773.683 572.845 777.05 569.356Z"
        fill="#666666" />
    <path
        d="M789.5 595.941C796.404 595.941 802 589.686 802 581.971C802 574.255 796.404 568 789.5 568C782.596 568 777 574.255 777 581.971C777 589.686 782.596 595.941 789.5 595.941Z"
        fill="#F7D6D6" />
    <path
        d="M798.219 574.305H793.609C793.178 574.305 792.828 574.654 792.828 575.086V578.914H789C788.569 578.914 788.219 579.264 788.219 579.695V583.523H784.391C783.959 583.523 783.609 583.873 783.609 584.305V588.133H779.781C779.35 588.133 779 588.483 779 588.914C779 589.345 779.35 589.695 779.781 589.695H784.391C784.598 589.695 784.797 589.613 784.943 589.466C785.09 589.32 785.172 589.121 785.172 588.914L785.172 585.086H789C789.207 585.086 789.406 585.004 789.552 584.857C789.699 584.711 789.781 584.512 789.781 584.305L789.781 580.477H793.609C793.817 580.477 794.015 580.394 794.162 580.248C794.308 580.101 794.391 579.902 794.391 579.695V575.867H798.219C798.65 575.867 799 575.517 799 575.086C799 574.654 798.65 574.305 798.219 574.305Z"
        fill="#DA3636" />
    <path
        d="M497.037 726.761C498.29 727.978 499.777 728.587 501.5 728.587C503.223 728.587 504.671 727.978 505.846 726.761C507.098 725.463 507.725 723.921 507.725 722.136C507.725 720.351 507.098 718.85 505.846 717.632C504.671 716.334 503.223 715.685 501.5 715.685C499.777 715.685 498.29 716.334 497.037 717.632C495.862 718.85 495.275 720.351 495.275 722.136C495.275 723.921 495.862 725.463 497.037 726.761ZM489.05 709.356C492.496 705.785 496.645 704 501.5 704C506.355 704 510.465 705.785 513.832 709.356C517.277 712.845 519 717.105 519 722.136C519 724.651 518.374 727.532 517.121 730.778C515.946 734.024 514.498 737.067 512.775 739.907C511.053 742.747 509.33 745.425 507.607 747.94C505.963 750.375 504.554 752.322 503.379 753.783L501.5 755.852C501.03 755.284 500.404 754.554 499.621 753.661C498.838 752.687 497.428 750.821 495.393 748.062C493.357 745.222 491.556 742.503 489.99 739.907C488.502 737.229 487.132 734.227 485.879 730.9C484.626 727.573 484 724.651 484 722.136C484 717.105 485.683 712.845 489.05 709.356Z"
        fill="#666666" />
    <path
        d="M501.5 736.941C508.404 736.941 514 730.686 514 722.971C514 715.255 508.404 709 501.5 709C494.596 709 489 715.255 489 722.971C489 730.686 494.596 736.941 501.5 736.941Z"
        fill="#F7D6D6" />
    <path
        d="M495.401 725.207C495.08 725.198 494.769 725.321 494.542 725.548C494.315 725.776 494.191 726.086 494.201 726.407C494.201 726.573 494.335 726.707 494.501 726.707C494.667 726.707 494.801 726.573 494.801 726.407C494.791 726.245 494.851 726.086 494.966 725.971C495.081 725.856 495.24 725.797 495.403 725.807C495.568 725.807 495.702 725.672 495.702 725.506C495.701 725.341 495.567 725.207 495.401 725.207Z"
        fill="#DA3636" />
    <path
        d="M508.601 718.907C508.763 718.897 508.922 718.957 509.037 719.072C509.151 719.187 509.211 719.345 509.201 719.507C509.201 719.673 509.335 719.807 509.501 719.807C509.666 719.807 509.801 719.673 509.801 719.507C509.81 719.186 509.687 718.876 509.46 718.648C509.233 718.421 508.922 718.298 508.601 718.307C508.435 718.307 508.301 718.442 508.301 718.607C508.301 718.773 508.435 718.907 508.601 718.907Z"
        fill="#DA3636" />
    <path
        d="M502.601 722.507C502.435 722.507 502.301 722.642 502.301 722.807V723.407H501.701C501.535 723.407 501.401 723.542 501.401 723.707V724.307H500.801C500.635 724.307 500.501 724.442 500.501 724.607V725.207H499.901C499.735 725.207 499.601 725.342 499.601 725.507V726.107H499.001C498.835 726.107 498.701 726.242 498.701 726.407V727.307C498.701 727.473 498.835 727.607 499.001 727.607C499.167 727.607 499.301 727.473 499.301 727.307V726.707H499.901C500.067 726.707 500.201 726.573 500.201 726.407V725.807H500.801C500.967 725.807 501.101 725.673 501.101 725.507V724.907H501.701C501.867 724.907 502.001 724.773 502.001 724.607V724.007H502.601C502.767 724.007 502.901 723.873 502.901 723.707V723.107H503.501C503.667 723.107 503.801 722.973 503.801 722.807V722.207H504.401C504.567 722.207 504.701 722.073 504.701 721.907V721.307H505.301C505.467 721.307 505.601 721.173 505.601 721.007V720.407H506.201C506.367 720.407 506.501 720.273 506.501 720.107C506.501 719.942 506.367 719.807 506.201 719.807H505.301C505.135 719.807 505.001 719.942 505.001 720.107V720.707H504.401C504.235 720.707 504.101 720.842 504.101 721.007V721.607H503.501C503.335 721.607 503.201 721.742 503.201 721.907V722.507H502.601Z"
        fill="#DA3636" />
    <path
        d="M497.201 721.007V724.007H495.401C494.105 724.007 493.043 725.035 493.001 726.33C492.983 726.967 493.227 727.584 493.676 728.037C494.152 728.527 494.805 728.805 495.488 728.807H498.822C499.38 728.809 499.914 728.587 500.307 728.192L506.504 721.995C506.561 721.939 506.637 721.908 506.716 721.907H508.514C509.197 721.905 509.85 721.627 510.326 721.137C510.775 720.684 511.018 720.067 511.001 719.43C510.959 718.135 509.897 717.107 508.601 717.107H505.481C504.924 717.106 504.389 717.327 503.996 717.722L502.901 718.817V718.007C502.902 717.689 502.775 717.384 502.549 717.159C502.53 717.14 502.507 717.125 502.486 717.107C502.865 716.779 503 716.251 502.825 715.781C502.65 715.311 502.202 715 501.701 715C501.2 715 500.751 715.311 500.576 715.781C500.401 716.251 500.537 716.779 500.916 717.107C500.653 717.333 500.502 717.661 500.501 718.007V721.217L499.601 722.117V721.007C499.602 720.689 499.475 720.384 499.249 720.159C499.23 720.14 499.207 720.125 499.186 720.107C499.565 719.779 499.7 719.251 499.525 718.781C499.35 718.311 498.902 718 498.401 718C497.9 718 497.451 718.311 497.276 718.781C497.101 719.251 497.237 719.779 497.615 720.107C497.353 720.333 497.202 720.661 497.201 721.007ZM504.419 718.147C504.7 717.864 505.082 717.706 505.481 717.707H508.601C509.573 717.707 510.369 718.478 510.401 719.449C510.413 719.924 510.23 720.382 509.896 720.719C509.533 721.093 509.035 721.305 508.514 721.307H506.716C506.478 721.307 506.248 721.402 506.08 721.571L499.883 727.768C499.602 728.05 499.22 728.208 498.822 728.207H495.488C494.967 728.205 494.47 727.993 494.108 727.619C493.772 727.283 493.589 726.824 493.601 726.349C493.632 725.378 494.429 724.607 495.401 724.607H497.585C497.824 724.608 498.053 724.513 498.222 724.344L504.419 718.147ZM501.101 716.207C501.101 715.876 501.37 715.607 501.701 715.607C502.032 715.607 502.301 715.876 502.301 716.207C502.301 716.539 502.032 716.807 501.701 716.807C501.37 716.807 501.101 716.539 501.101 716.207ZM501.101 718.007C501.101 717.676 501.37 717.407 501.701 717.407C502.032 717.407 502.301 717.676 502.301 718.007V719.417L501.101 720.617V718.007ZM497.801 719.207C497.801 718.876 498.07 718.607 498.401 718.607C498.732 718.607 499.001 718.876 499.001 719.207C499.001 719.539 498.732 719.807 498.401 719.807C498.07 719.807 497.801 719.539 497.801 719.207ZM498.825 720.583C498.938 720.696 499.001 720.848 499.001 721.007V722.717L497.801 723.917V721.007C497.801 720.765 497.947 720.547 498.171 720.454C498.395 720.361 498.653 720.412 498.825 720.583Z"
        fill="#DA3636" />
    <path
        d="M508.081 725.592C507.964 725.475 507.774 725.475 507.657 725.592L505.374 727.875C505.261 727.988 505.256 728.169 505.363 728.288L505.622 728.573H503.6V726.348L503.936 726.717C503.991 726.777 504.069 726.813 504.151 726.815C504.233 726.82 504.314 726.787 504.37 726.727L506.581 724.516C506.659 724.441 506.69 724.329 506.663 724.224C506.635 724.119 506.554 724.037 506.449 724.01C506.344 723.982 506.232 724.014 506.157 724.092L504.168 726.08L504.044 725.944C503.877 725.76 503.615 725.698 503.384 725.788C503.153 725.877 503 726.099 503 726.347V728.573C503 728.904 503.269 729.173 503.6 729.173H505.622C505.86 729.175 506.075 729.034 506.17 728.816C506.268 728.6 506.228 728.345 506.067 728.17L506 728.097L508.081 726.016C508.198 725.899 508.198 725.709 508.081 725.592Z"
        fill="#DA3636" />
</svg>