<svg
    width="1024"
    height="1024"
    viewBox="0 0 1024 1024"
    fill="none"
    xmlns="http://www.w3.org/2000/svg">

    <path
        d="M33.5715 450.429L393.572 420.429L346.429 95.4286H405V8.28571H431.429V95.4286H862.143V651.254H983.889V1002.79H467.701L404.061 515.893L37.3757 547.208L33.5715 450.429Z"
        fill="#F7D6D6"
        stroke="black"
        stroke-width="2" />
    <path
        d="M362.562 206.652H548.513V95.4286H346.429L362.562 206.652Z"
        fill="#DA3636"
        stroke="black"
        stroke-width="2" />
    <path
        d="M621.749 95.4286H548.513V206.652H621.749V95.4286Z"
        fill="#DA3636"
        stroke="black"
        stroke-width="2" />
    <path
        d="M661.65 95.4286H621.749V161.33H661.65V95.4286Z"
        fill="#DA3636"
        stroke="black"
        stroke-width="2" />
    <path
        d="M698.521 95.4286H661.65V161.33H698.521V95.4286Z"
        fill="#DA3636"
        stroke="black"
        stroke-width="2" />
    <path
        d="M737.916 95.4286H698.521V161.33H737.916V95.4286Z"
        fill="#DA3636"
        stroke="black"
        stroke-width="2" />
    <path
        d="M862.143 95.4286H737.917V236.081H862.143V95.4286Z"
        fill="#DA3636"
        stroke="black"
        stroke-width="2" />
    <path
        d="M728.312 236.094V249.719H703.062V515.375H862.156V236.094H728.312Z"
        fill="#DA3636"
        stroke="black"
        stroke-width="2" />
    <path
        d="M677.812 236.094V249.719H703.062V515.375H543.969V236.094H677.812Z"
        fill="#DA3636"
        stroke="black"
        stroke-width="2" />
    <path
        d="M739.432 515.375H613.163V539.127H739.432V515.375Z"
        fill="#DA3636"
        stroke="black"
        stroke-width="2" />
    <path
        d="M655.589 539.127H613.163V580.543H655.589V539.127Z"
        fill="#DA3636"
        stroke="black"
        stroke-width="2" />
    <path
        d="M695.995 539.127H655.589V580.543H695.995V539.127Z"
        fill="#DA3636"
        stroke="black"
        stroke-width="2" />
    <path
        d="M739.432 539.127H695.995V580.543H739.432V539.127Z"
        fill="#DA3636"
        stroke="black"
        stroke-width="2" />
    <path
        d="M787.919 515.375H739.432V566.906H787.919V515.375Z"
        fill="#DA3636"
        stroke="black"
        stroke-width="2" />
    <path
        d="M822.143 515.375H787.919V580.786H822.143V515.375Z"
        fill="#DA3636"
        stroke="black"
        stroke-width="2" />
    <path
        d="M862.143 619.714H763.929V661.143H862.143V619.714Z"
        fill="#DA3636"
        stroke="black"
        stroke-width="2" />
    <path
        d="M797.858 661.143H739.432V694.357H797.858V661.143Z"
        fill="#DA3636"
        stroke="black"
        stroke-width="2" />
    <path
        d="M739.432 621.142H696.786V657.214H739.432V621.142Z"
        fill="#DA3636"
        stroke="black"
        stroke-width="2" />
    <path
        d="M696.786 621.142H655.714V657.214H696.786V621.142Z"
        fill="#DA3636"
        stroke="black"
        stroke-width="2" />
    <path
        d="M655.714 621.142H613.163V657.214H655.714V621.142Z"
        fill="#DA3636"
        stroke="black"
        stroke-width="2" />
    <path
        d="M739.432 657.214H613.163V725.429H739.432V657.214Z"
        fill="#DA3636"
        stroke="black"
        stroke-width="2" />
    <path
        d="M702.844 800.438V762.562H676.781V800.438H702.844Z"
        fill="#DA3636"
        stroke="black"
        stroke-width="2" />
    <path
        d="M676.781 725.438V762.562H702.844V800.438V823.281H739.438V725.438H676.781Z"
        fill="#DA3636"
        stroke="black"
        stroke-width="2" />
    <path
        d="M613.156 725.438V800.438V822.938H648.562V800.438H676.781V725.438H613.156Z"
        fill="#DA3636"
        stroke="black"
        stroke-width="2" />
    <path
        d="M797.858 694.357H739.438V787.624H797.858V694.357Z"
        fill="#DA3636"
        stroke="black"
        stroke-width="2" />
    <path
        d="M862.156 651.25V661.156H797.844V787.625H862.156V769.688H983.875V651.25H862.156Z"
        fill="#DA3636"
        stroke="black"
        stroke-width="2" />
    <path
        d="M862.143 787.624H769.736V824.495H862.143V787.624Z"
        fill="#DA3636"
        stroke="black"
        stroke-width="2" />
    <path
        d="M983.889 769.688H906.612V893.185H983.889V769.688Z"
        fill="#DA3636"
        stroke="black"
        stroke-width="2" />
    <path
        d="M983.889 893.185H887.924V1002.79H983.889V893.185Z"
        fill="#DA3636"
        stroke="black"
        stroke-width="2" />
    <path
        d="M887.924 919.449H733.876V1002.79H887.924V919.449Z"
        fill="#DA3636"
        stroke="black"
        stroke-width="2" />
    <path
        d="M865.701 855.81H733.876V919.449H865.701V855.81Z"
        fill="#DA3636"
        stroke="black"
        stroke-width="2" />
    <path
        d="M733.876 855.81H620.739V1002.79H733.876V855.81Z"
        fill="#DA3636"
        stroke="black"
        stroke-width="2" />
    <path
        d="M456.878 919.983H620.739V1002.79H467.701L456.878 919.983Z"
        fill="#DA3636"
        stroke="black"
        stroke-width="2" />
    <path
        d="M436.976 767.717H570.231V919.983L456.831 919.625L436.976 767.717Z"
        fill="#DA3636"
        stroke="black"
        stroke-width="2" />
    <path
        d="M426.429 687.029H570.231V767.717H436.976L426.429 687.029Z"
        fill="#DA3636"
        stroke="black"
        stroke-width="2" />
    <path
        d="M417.844 621.312L426.429 687.029L570.219 687.031V638.125H507.594V621.312L417.844 621.312Z"
        fill="#DA3636"
        stroke="black"
        stroke-width="2" />
    <path
        d="M507.594 621.312V284.568Z"
        fill="#FF8080" />
    <path
        d="M507.594 621.312V284.568"
        stroke="black"
        stroke-width="2" />
    <path
        d="M460.63 621.312V513.873Z"
        fill="#FF8080" />
    <path
        d="M460.63 621.312V513.873" stroke="black"
        stroke-width="2" />
    <path
        d="M379.881 326.049L414.163 320.934L429.315 421.949"
        stroke="black"
        stroke-width="2" />
    <path
        d="M517.037 242.761C518.29 243.978 519.777 244.587 521.5 244.587C523.223 244.587 524.671 243.978 525.846 242.761C527.098 241.463 527.725 239.921 527.725 238.136C527.725 236.351 527.098 234.85 525.846 233.632C524.671 232.334 523.223 231.685 521.5 231.685C519.777 231.685 518.29 232.334 517.037 233.632C515.862 234.85 515.275 236.351 515.275 238.136C515.275 239.921 515.862 241.463 517.037 242.761ZM509.05 225.356C512.496 221.785 516.645 220 521.5 220C526.355 220 530.465 221.785 533.832 225.356C537.277 228.845 539 233.105 539 238.136C539 240.651 538.374 243.532 537.121 246.778C535.946 250.024 534.498 253.067 532.775 255.907C531.053 258.747 529.33 261.425 527.607 263.94C525.963 266.375 524.554 268.322 523.379 269.783L521.5 271.852C521.03 271.284 520.404 270.554 519.621 269.661C518.838 268.687 517.428 266.821 515.393 264.062C513.357 261.222 511.556 258.503 509.99 255.907C508.502 253.229 507.132 250.227 505.879 246.9C504.626 243.573 504 240.651 504 238.136C504 233.105 505.683 228.845 509.05 225.356Z"
        fill="#666666" />
    <path
        d="M521.5 251.941C528.404 251.941 534 245.686 534 237.971C534 230.255 528.404 224 521.5 224C514.596 224 509 230.255 509 237.971C509 245.686 514.596 251.941 521.5 251.941Z"
        fill="#F7D6D6" />
    <path
        d="M530.219 230.305H525.609C525.178 230.305 524.828 230.654 524.828 231.086V234.914H521C520.569 234.914 520.219 235.264 520.219 235.695V239.523H516.391C515.959 239.523 515.609 239.873 515.609 240.305V244.133H511.781C511.35 244.133 511 244.483 511 244.914C511 245.345 511.35 245.695 511.781 245.695H516.391C516.598 245.695 516.797 245.613 516.943 245.466C517.09 245.32 517.172 245.121 517.172 244.914L517.172 241.086H521C521.207 241.086 521.406 241.004 521.552 240.857C521.699 240.711 521.781 240.512 521.781 240.305L521.781 236.477H525.609C525.817 236.477 526.015 236.394 526.162 236.248C526.308 236.101 526.391 235.902 526.391 235.695V231.867H530.219C530.65 231.867 531 231.517 531 231.086C531 230.654 530.65 230.305 530.219 230.305Z"
        fill="#DA3636" />
    <path
        d="M525.037 549.761C526.29 550.978 527.777 551.587 529.5 551.587C531.223 551.587 532.671 550.978 533.846 549.761C535.098 548.463 535.725 546.921 535.725 545.136C535.725 543.351 535.098 541.85 533.846 540.632C532.671 539.334 531.223 538.685 529.5 538.685C527.777 538.685 526.29 539.334 525.037 540.632C523.862 541.85 523.275 543.351 523.275 545.136C523.275 546.921 523.862 548.463 525.037 549.761ZM517.05 532.356C520.496 528.785 524.645 527 529.5 527C534.355 527 538.465 528.785 541.832 532.356C545.277 535.845 547 540.105 547 545.136C547 547.651 546.374 550.532 545.121 553.778C543.946 557.024 542.498 560.067 540.775 562.907C539.053 565.747 537.33 568.425 535.607 570.94C533.963 573.375 532.554 575.322 531.379 576.783L529.5 578.852C529.03 578.284 528.404 577.554 527.621 576.661C526.838 575.687 525.428 573.821 523.393 571.062C521.357 568.222 519.556 565.503 517.99 562.907C516.502 560.229 515.132 557.227 513.879 553.9C512.626 550.573 512 547.651 512 545.136C512 540.105 513.683 535.845 517.05 532.356Z"
        fill="#666666" />
    <path
        d="M529.5 558.941C536.404 558.941 542 552.686 542 544.971C542 537.255 536.404 531 529.5 531C522.596 531 517 537.255 517 544.971C517 552.686 522.596 558.941 529.5 558.941Z"
        fill="#F7D6D6" />
    <path
        d="M538.219 537.305H533.609C533.178 537.305 532.828 537.654 532.828 538.086V541.914H529C528.569 541.914 528.219 542.264 528.219 542.695V546.523H524.391C523.959 546.523 523.609 546.873 523.609 547.305V551.133H519.781C519.35 551.133 519 551.483 519 551.914C519 552.345 519.35 552.695 519.781 552.695H524.391C524.598 552.695 524.797 552.613 524.943 552.466C525.09 552.32 525.172 552.121 525.172 551.914L525.172 548.086H529C529.207 548.086 529.406 548.004 529.552 547.857C529.699 547.711 529.781 547.512 529.781 547.305L529.781 543.477H533.609C533.817 543.477 534.015 543.394 534.162 543.248C534.308 543.101 534.391 542.902 534.391 542.695V538.867H538.219C538.65 538.867 539 538.517 539 538.086C539 537.654 538.65 537.305 538.219 537.305Z"
        fill="#DA3636" />
    <path
        d="M776.037 610.761C777.29 611.978 778.777 612.587 780.5 612.587C782.223 612.587 783.671 611.978 784.846 610.761C786.098 609.463 786.725 607.921 786.725 606.136C786.725 604.351 786.098 602.85 784.846 601.632C783.671 600.334 782.223 599.685 780.5 599.685C778.777 599.685 777.29 600.334 776.037 601.632C774.862 602.85 774.275 604.351 774.275 606.136C774.275 607.921 774.862 609.463 776.037 610.761ZM768.05 593.356C771.496 589.785 775.645 588 780.5 588C785.355 588 789.465 589.785 792.832 593.356C796.277 596.845 798 601.105 798 606.136C798 608.651 797.374 611.532 796.121 614.778C794.946 618.024 793.498 621.067 791.775 623.907C790.053 626.747 788.33 629.425 786.607 631.94C784.963 634.375 783.554 636.322 782.379 637.783L780.5 639.852C780.03 639.284 779.404 638.554 778.621 637.661C777.838 636.687 776.428 634.821 774.393 632.062C772.357 629.222 770.556 626.503 768.99 623.907C767.502 621.229 766.132 618.227 764.879 614.9C763.626 611.573 763 608.651 763 606.136C763 601.105 764.683 596.845 768.05 593.356Z"
        fill="#666666" />
    <path
        d="M780.5 619.941C787.404 619.941 793 613.686 793 605.971C793 598.255 787.404 592 780.5 592C773.596 592 768 598.255 768 605.971C768 613.686 773.596 619.941 780.5 619.941Z"
        fill="#F7D6D6" />
    <path
        d="M789.219 598.305H784.609C784.178 598.305 783.828 598.654 783.828 599.086V602.914H780C779.569 602.914 779.219 603.264 779.219 603.695V607.523H775.391C774.959 607.523 774.609 607.873 774.609 608.305V612.133H770.781C770.35 612.133 770 612.483 770 612.914C770 613.345 770.35 613.695 770.781 613.695H775.391C775.598 613.695 775.797 613.613 775.943 613.466C776.09 613.32 776.172 613.121 776.172 612.914L776.172 609.086H780C780.207 609.086 780.406 609.004 780.552 608.857C780.699 608.711 780.781 608.512 780.781 608.305L780.781 604.477H784.609C784.817 604.477 785.015 604.394 785.162 604.248C785.308 604.101 785.391 603.902 785.391 603.695V599.867H789.219C789.65 599.867 790 599.517 790 599.086C790 598.654 789.65 598.305 789.219 598.305Z"
        fill="#DA3636" />
    <path
        d="M672.037 549.761C673.29 550.978 674.777 551.587 676.5 551.587C678.223 551.587 679.671 550.978 680.846 549.761C682.098 548.463 682.725 546.921 682.725 545.136C682.725 543.351 682.098 541.85 680.846 540.632C679.671 539.334 678.223 538.685 676.5 538.685C674.777 538.685 673.29 539.334 672.037 540.632C670.862 541.85 670.275 543.351 670.275 545.136C670.275 546.921 670.862 548.463 672.037 549.761ZM664.05 532.356C667.496 528.785 671.645 527 676.5 527C681.355 527 685.465 528.785 688.832 532.356C692.277 535.845 694 540.105 694 545.136C694 547.651 693.374 550.532 692.121 553.778C690.946 557.024 689.498 560.067 687.775 562.907C686.053 565.747 684.33 568.425 682.607 570.94C680.963 573.375 679.554 575.322 678.379 576.783L676.5 578.852C676.03 578.284 675.404 577.554 674.621 576.661C673.838 575.687 672.428 573.821 670.393 571.062C668.357 568.222 666.556 565.503 664.99 562.907C663.502 560.229 662.132 557.227 660.879 553.9C659.626 550.573 659 547.651 659 545.136C659 540.105 660.683 535.845 664.05 532.356Z"
        fill="#666666" />
    <path
        d="M676.5 558.941C683.404 558.941 689 552.686 689 544.971C689 537.255 683.404 531 676.5 531C669.596 531 664 537.255 664 544.971C664 552.686 669.596 558.941 676.5 558.941Z"
        fill="#F7D6D6" />
    <path
        d="M683.632 537.002H669.365C668.612 537.002 668 537.614 668 538.367V552.637C668 553.386 668.612 553.999 669.365 553.999H683.635C684.388 553.999 685 553.386 685 552.634V538.367C684.997 537.614 684.384 537.002 683.632 537.002ZM676.027 553.055H669.365C669.134 553.055 668.947 552.868 668.947 552.637V538.367C668.947 538.136 669.134 537.949 669.365 537.949H676.027V553.055ZM683.635 553.052H676.97V537.945H683.632C683.862 537.945 684.05 538.133 684.05 538.364V552.634H684.053C684.053 552.864 683.866 553.052 683.635 553.052Z"
        fill="#DA3636" />
    <path
        d="M674.314 545.865C674.13 545.681 673.832 545.681 673.644 545.865L672.959 546.551V543.308C672.959 543.047 672.748 542.837 672.487 542.837C672.226 542.837 672.015 543.047 672.015 543.308V546.551L671.329 545.868C671.145 545.684 670.847 545.684 670.66 545.868C670.476 546.052 670.476 546.35 670.66 546.537L672.152 548.026C672.246 548.12 672.366 548.163 672.487 548.163C672.607 548.163 672.728 548.116 672.821 548.026L674.314 546.534C674.498 546.35 674.498 546.052 674.314 545.865Z"
        fill="#DA3636" />
    <path
        d="M682.337 544.466L680.845 542.974C680.751 542.88 680.63 542.837 680.51 542.837C680.39 542.837 680.269 542.884 680.175 542.974L678.683 544.466C678.499 544.65 678.499 544.948 678.683 545.135C678.867 545.319 679.165 545.319 679.352 545.135L680.038 544.449V547.691C680.038 547.952 680.249 548.163 680.51 548.163C680.771 548.163 680.982 547.952 680.982 547.691V544.449L681.668 545.135C681.852 545.319 682.149 545.319 682.337 545.135C682.521 544.951 682.521 544.653 682.337 544.466Z"
        fill="#DA3636" />
    <path
        d="M670.037 620.761C671.29 621.978 672.777 622.587 674.5 622.587C676.223 622.587 677.671 621.978 678.846 620.761C680.098 619.463 680.725 617.921 680.725 616.136C680.725 614.351 680.098 612.85 678.846 611.632C677.671 610.334 676.223 609.685 674.5 609.685C672.777 609.685 671.29 610.334 670.037 611.632C668.862 612.85 668.275 614.351 668.275 616.136C668.275 617.921 668.862 619.463 670.037 620.761ZM662.05 603.356C665.496 599.785 669.645 598 674.5 598C679.355 598 683.465 599.785 686.832 603.356C690.277 606.845 692 611.105 692 616.136C692 618.651 691.374 621.532 690.121 624.778C688.946 628.024 687.498 631.067 685.775 633.907C684.053 636.747 682.33 639.425 680.607 641.94C678.963 644.375 677.554 646.322 676.379 647.783L674.5 649.852C674.03 649.284 673.404 648.554 672.621 647.661C671.838 646.687 670.428 644.821 668.393 642.062C666.357 639.222 664.556 636.503 662.99 633.907C661.502 631.229 660.132 628.227 658.879 624.9C657.626 621.573 657 618.651 657 616.136C657 611.105 658.683 606.845 662.05 603.356Z"
        fill="#666666" />
    <path
        d="M674.5 629.941C681.404 629.941 687 623.686 687 615.971C687 608.255 681.404 602 674.5 602C667.596 602 662 608.255 662 615.971C662 623.686 667.596 629.941 674.5 629.941Z"
        fill="#F7D6D6" />
    <path
        d="M681.632 608.002H667.365C666.612 608.002 666 608.614 666 609.367V623.637C666 624.386 666.612 624.999 667.365 624.999H681.635C682.388 624.999 683 624.386 683 623.634V609.367C682.997 608.614 682.384 608.002 681.632 608.002ZM674.027 624.055H667.365C667.134 624.055 666.947 623.868 666.947 623.637V609.367C666.947 609.136 667.134 608.949 667.365 608.949H674.027V624.055ZM681.635 624.052H674.97V608.945H681.632C681.862 608.945 682.05 609.133 682.05 609.364V623.634H682.053C682.053 623.864 681.866 624.052 681.635 624.052Z"
        fill="#DA3636" />
    <path
        d="M672.314 616.865C672.13 616.681 671.832 616.681 671.644 616.865L670.959 617.551V614.308C670.959 614.047 670.748 613.837 670.487 613.837C670.226 613.837 670.015 614.047 670.015 614.308V617.551L669.329 616.868C669.145 616.684 668.847 616.684 668.66 616.868C668.476 617.052 668.476 617.35 668.66 617.537L670.152 619.026C670.246 619.12 670.366 619.163 670.487 619.163C670.607 619.163 670.728 619.116 670.821 619.026L672.314 617.534C672.498 617.35 672.498 617.052 672.314 616.865Z"
        fill="#DA3636" />
    <path
        d="M680.337 615.466L678.845 613.974C678.751 613.88 678.63 613.837 678.51 613.837C678.39 613.837 678.269 613.884 678.175 613.974L676.683 615.466C676.499 615.65 676.499 615.948 676.683 616.135C676.867 616.319 677.165 616.319 677.352 616.135L678.038 615.449V618.691C678.038 618.952 678.249 619.163 678.51 619.163C678.771 619.163 678.982 618.952 678.982 618.691V615.449L679.668 616.135C679.852 616.319 680.149 616.319 680.337 616.135C680.521 615.951 680.521 615.653 680.337 615.466Z"
        fill="#DA3636" />
    <path
        d="M720.037 790.761C721.29 791.978 722.777 792.587 724.5 792.587C726.223 792.587 727.671 791.978 728.846 790.761C730.098 789.463 730.725 787.921 730.725 786.136C730.725 784.351 730.098 782.85 728.846 781.632C727.671 780.334 726.223 779.685 724.5 779.685C722.777 779.685 721.29 780.334 720.037 781.632C718.862 782.85 718.275 784.351 718.275 786.136C718.275 787.921 718.862 789.463 720.037 790.761ZM712.05 773.356C715.496 769.785 719.645 768 724.5 768C729.355 768 733.465 769.785 736.832 773.356C740.277 776.845 742 781.105 742 786.136C742 788.651 741.374 791.532 740.121 794.778C738.946 798.024 737.498 801.067 735.775 803.907C734.053 806.747 732.33 809.425 730.607 811.94C728.963 814.375 727.554 816.322 726.379 817.783L724.5 819.852C724.03 819.284 723.404 818.554 722.621 817.661C721.838 816.687 720.428 814.821 718.393 812.062C716.357 809.222 714.556 806.503 712.99 803.907C711.502 801.229 710.132 798.227 708.879 794.9C707.626 791.573 707 788.651 707 786.136C707 781.105 708.683 776.845 712.05 773.356Z"
        fill="#08648B" />
    <path
        d="M724.5 800.941C731.404 800.941 737 794.686 737 786.971C737 779.255 731.404 773 724.5 773C717.596 773 712 779.255 712 786.971C712 794.686 717.596 800.941 724.5 800.941Z"
        fill="#F7D6D6" />
    <path
        d="M725 776C723.675 776 722.6 777.075 722.6 778.4C722.6 779.726 723.675 780.8 725 780.8C726.325 780.799 727.399 779.725 727.4 778.4C727.4 777.075 726.326 776 725 776ZM725 780C724.116 780 723.4 779.284 723.4 778.4C723.4 777.516 724.116 776.8 725 776.8C725.884 776.8 726.6 777.516 726.6 778.4C726.6 779.284 725.884 780 725 780Z"
        fill="#DA3636" />
    <path
        d="M726.2 781.6H723.8C722.254 781.602 721.002 782.854 721 784.4V790C721 790.221 721.179 790.4 721.4 790.4H722.6V795.6C722.6 795.821 722.779 796 723 796H727C727.221 796 727.4 795.821 727.4 795.6V790.4H728.6C728.821 790.4 729 790.221 729 790V784.4C728.998 782.854 727.746 781.602 726.2 781.6ZM728.2 789.6H727.4V784.8H726.6V795.2H725.4V789.6H724.6V795.2H723.4V784.8H722.6V789.6H721.8V784.4C721.801 783.296 722.696 782.401 723.8 782.4H726.2C727.304 782.401 728.199 783.296 728.2 784.4V789.6Z"
        fill="#DA3636" />
    <path
        d="M626.037 790.761C627.29 791.978 628.777 792.587 630.5 792.587C632.223 792.587 633.671 791.978 634.846 790.761C636.098 789.463 636.725 787.921 636.725 786.136C636.725 784.351 636.098 782.85 634.846 781.632C633.671 780.334 632.223 779.685 630.5 779.685C628.777 779.685 627.29 780.334 626.037 781.632C624.862 782.85 624.275 784.351 624.275 786.136C624.275 787.921 624.862 789.463 626.037 790.761ZM618.05 773.356C621.496 769.785 625.645 768 630.5 768C635.355 768 639.465 769.785 642.832 773.356C646.277 776.845 648 781.105 648 786.136C648 788.651 647.374 791.532 646.121 794.778C644.946 798.024 643.498 801.067 641.775 803.907C640.053 806.747 638.33 809.425 636.607 811.94C634.963 814.375 633.554 816.322 632.379 817.783L630.5 819.852C630.03 819.284 629.404 818.554 628.621 817.661C627.838 816.687 626.428 814.821 624.393 812.062C622.357 809.222 620.556 806.503 618.99 803.907C617.502 801.229 616.132 798.227 614.879 794.9C613.626 791.573 613 788.651 613 786.136C613 781.105 614.683 776.845 618.05 773.356Z"
        fill="#08648B" />
    <path
        d="M630.5 800.941C637.404 800.941 643 794.686 643 786.971C643 779.255 637.404 773 630.5 773C623.596 773 618 779.255 618 786.971C618 794.686 623.596 800.941 630.5 800.941Z"
        fill="#F7D6D6" />
    <path
        d="M630.84 775C629.382 775 628.2 776.182 628.2 777.64C628.201 779.097 629.383 780.279 630.84 780.28C632.298 780.28 633.48 779.098 633.48 777.64C633.48 776.182 632.298 775 630.84 775ZM630.84 779.4C629.868 779.4 629.08 778.612 629.08 777.64C629.08 776.668 629.868 775.88 630.84 775.88C631.812 775.88 632.6 776.668 632.6 777.64C632.6 778.612 631.812 779.4 630.84 779.4Z"
        fill="#DA3636" />
    <path
        d="M635.662 790.274L633.022 781.474C632.966 781.288 632.794 781.16 632.6 781.16H629.08C628.886 781.16 628.714 781.288 628.658 781.474L626.018 790.274C625.978 790.408 626.004 790.552 626.088 790.664C626.171 790.775 626.302 790.84 626.44 790.84H628.2V796.56C628.2 796.803 628.397 797 628.64 797H633.04C633.283 797 633.48 796.803 633.48 796.56V790.84H635.24C635.483 790.84 635.68 790.643 635.68 790.4C635.68 790.357 635.674 790.315 635.662 790.274ZM633.04 789.96C632.797 789.96 632.6 790.157 632.6 790.4V796.12H631.28V789.96H630.4V796.12H629.08V790.4C629.08 790.157 628.883 789.96 628.64 789.96H627.031L629.407 782.04H632.273L634.649 789.96H633.04Z"
        fill="#DA3636" />
</svg>