<?xml version="1.0" encoding="UTF-8" standalone="no"?>
<!-- Created with Inkscape (http://www.inkscape.org/) -->

<!-- ***************************************************************************************************
DUE TO MISSING FLOOR PLANS WITH ROOM NUMBERS, THE ROOMS HAVE BEEN ID FROM S2.101-S2.135 IN CHRONOLOGICAL ORDER.
*****************************************************************************************************-->
<svg
   xmlns:dc="http://purl.org/dc/elements/1.1/"
   xmlns:cc="http://creativecommons.org/ns#"
   xmlns:rdf="http://www.w3.org/1999/02/22-rdf-syntax-ns#"
   xmlns:svg="http://www.w3.org/2000/svg"
   xmlns="http://www.w3.org/2000/svg"
   xmlns:sodipodi="http://sodipodi.sourceforge.net/DTD/sodipodi-0.dtd"
   xmlns:inkscape="http://www.inkscape.org/namespaces/inkscape"
   width="1024"
   height="1024"
   id="svg2"
   version="1.1"
   inkscape:version="0.91 r13725"
   sodipodi:docname="MB-S2.svg">
  <defs
     id="defs4" />
  <sodipodi:namedview
     id="base"
     pagecolor="#ffffff"
     bordercolor="#666666"
     borderopacity="1.0"
     inkscape:pageopacity="0.0"
     inkscape:pageshadow="2"
     inkscape:zoom="0.7"
     inkscape:cx="62.952634"
     inkscape:cy="560.59152"
     inkscape:document-units="px"
     inkscape:current-layer="layer2"
     showgrid="false"
     inkscape:snap-bbox="true"
     inkscape:bbox-paths="false"
     inkscape:bbox-nodes="false"
     inkscape:snap-bbox-edge-midpoints="false"
     inkscape:snap-bbox-midpoints="false"
     inkscape:snap-page="false"
     inkscape:object-paths="true"
     inkscape:snap-intersection-paths="true"
     inkscape:object-nodes="true"
     inkscape:window-width="1920"
     inkscape:window-height="1014"
     inkscape:window-x="0"
     inkscape:window-y="27"
     inkscape:window-maximized="1"
     inkscape:snap-nodes="true" />
  <metadata
     id="metadata7">
    <rdf:RDF>
      <cc:Work
         rdf:about="">
        <dc:format>image/svg+xml</dc:format>
        <dc:type
           rdf:resource="http://purl.org/dc/dcmitype/StillImage" />
        <dc:title />
      </cc:Work>
    </rdf:RDF>
  </metadata>
  <g
     inkscape:groupmode="layer"
     id="layer2"
     inkscape:label="S2 vec"
     style="display:inline">
    <path
       style="fill:#f7d6d6;fill-opacity:1;stroke:#000000;stroke-width:2;stroke-miterlimit:4;stroke-dasharray:none;stroke-opacity:1"
       d="m 33.571429,450.42857 360.000001,-30 -47.14286,-325 58.57143,0 0,-87.1428568 26.42857,0 0,87.1428568 430.71429,0 0,555.82514 121.74572,0 0,351.53309 -516.18795,0 L 404.06102,515.89327 37.375644,547.208 Z"
       id="path3765"
       inkscape:connector-curvature="0" />
    <path
       style="fill:#da3636;fill-opacity:1;stroke:#000000;stroke-width:2;stroke-miterlimit:4;stroke-dasharray:none;stroke-opacity:1"
       d="m 362.56209,206.65206 185.95074,0 0,-111.22349 -202.08426,0 z"
       id="paths2.101"
       inkscape:connector-curvature="0" />
    <text x="435" y="140" font-family="Arial" font-size="15" fill="black" stroke-width="0"  > s2.101 </text>
    <rect
       style="fill:#da3636;fill-opacity:1;stroke:#000000;stroke-width:2;stroke-miterlimit:4;stroke-dasharray:none;stroke-opacity:1"
       id="rects2.102"
       width="73.236061"
       height="111.22349"
       x="548.51282"
       y="95.428574" />
    <text x="565" y="140" font-family="Arial" font-size="15" fill="black" stroke-width="0"  > s2.102 </text>
    <rect
       style="fill:#da3636;fill-opacity:1;stroke:#000000;stroke-width:2;stroke-miterlimit:4;stroke-dasharray:none;stroke-opacity:1"
       id="rects2.103"
       width="39.901039"
       height="65.901154"
       x="621.7489"
       y="95.428574" />
    <text x="622" y="140" font-family="Arial" font-size="13" fill="black" stroke-width="0"  > s2.103 </text>
    <rect
       style="fill:#da3636;fill-opacity:1;stroke:#000000;stroke-width:2;stroke-miterlimit:4;stroke-dasharray:none;stroke-opacity:1"
       id="rects2.104"
       width="36.870544"
       height="65.901154"
       x="661.64996"
       y="95.428574" />
    <text x="666" y="140" font-family="Arial" font-size="13" fill="black" stroke-width="0"  > 104 </text>
    <rect
       style="fill:#da3636;fill-opacity:1;stroke:#000000;stroke-width:2;stroke-miterlimit:4;stroke-dasharray:none;stroke-opacity:1"
       id="rects2.105"
       width="39.395927"
       height="65.901154"
       x="698.52051"
       y="95.428574" />
    <text x="697" y="140" font-family="Arial" font-size="13" fill="black" stroke-width="0"  > s2.105 </text>
    <rect
       style="fill:#da3636;fill-opacity:1;stroke:#000000;stroke-width:2;stroke-miterlimit:4;stroke-dasharray:none;stroke-opacity:1"
       id="rects2.106"
       width="124.22643"
       height="140.65244"
       x="737.91644"
       y="95.428574" />
    <text x="780" y="140" font-family="Arial" font-size="13" fill="black" stroke-width="0"  > s2.106 </text>
    <path
       style="fill:#da3636;fill-opacity:1;stroke:#000000;stroke-width:2;stroke-miterlimit:4;stroke-dasharray:none;stroke-opacity:1"
       d="m 728.3125,236.09375 0,13.625 -25.25,0 0,265.65625 159.09375,0 0,-279.28125 -133.84375,0 z"
       id="rects2.107"
       inkscape:connector-curvature="0" />
    <text x="780" y="370" font-family="Arial" font-size="13" fill="black" stroke-width="0"  > s2.107 </text>
    <path
       id="paths2.108"
       d="m 677.8125,236.09375 0,13.625 25.25,0 0,265.65625 -159.09375,0 0,-279.28125 133.84375,0 z"
       style="fill:#da3636;fill-opacity:1;stroke:#000000;stroke-width:2;stroke-miterlimit:4;stroke-dasharray:none;stroke-opacity:1"
       inkscape:connector-curvature="0" />
    <text x="600" y="370" font-family="Arial" font-size="13" fill="black" stroke-width="0"  > s2.108 </text>
    <rect
       style="fill:#da3636;fill-opacity:1;stroke:#000000;stroke-width:2;stroke-miterlimit:4;stroke-dasharray:none;stroke-opacity:1"
       id="rects2.109"
       width="126.26907"
       height="23.751778"
       x="613.1626"
       y="515.375" />
    <text x="620" y="530" font-family="Arial" font-size="13" fill="black" stroke-width="0"  > s2.109 </text>
    <rect
       style="fill:#da3636;fill-opacity:1;stroke:#000000;stroke-width:2;stroke-miterlimit:4;stroke-dasharray:none;stroke-opacity:1"
       id="rects2.110"
       width="42.426403"
       height="41.416256"
       x="613.1626"
       y="539.12677" />
    <rect
       style="fill:#da3636;fill-opacity:1;stroke:#000000;stroke-width:2;stroke-miterlimit:4;stroke-dasharray:none;stroke-opacity:1"
       id="rects2.111"
       width="40.406105"
       height="41.416248"
       x="655.58899"
       y="539.12677" />
    <rect
       style="fill:#da3636;fill-opacity:1;stroke:#000000;stroke-width:2;stroke-miterlimit:4;stroke-dasharray:none;stroke-opacity:1"
       id="rects2.112"
       width="43.436577"
       height="41.416241"
       x="695.99512"
       y="539.12677" />
    <rect
       style="fill:#da3636;fill-opacity:1;stroke:#000000;stroke-width:2;stroke-miterlimit:4;stroke-dasharray:none;stroke-opacity:1"
       id="rects2.113"
       width="48.487293"
       height="51.530972"
       x="739.4317"
       y="515.375" />
    <text x="745" y="550" font-family="Arial" font-size="13" fill="black" stroke-width="0"  > s2.113 </text>
    <rect
       style="fill:#da3636;fill-opacity:1;stroke:#000000;stroke-width:2;stroke-miterlimit:4;stroke-dasharray:none;stroke-opacity:1"
       id="rects2.114"
       width="34.223862"
       height="65.410713"
       x="787.91901"
       y="515.375" />
    <text x="795" y="550" font-family="Arial" font-size="13" fill="black" stroke-width="0"  > 114 </text>
    <rect
       style="fill:#da3636;fill-opacity:1;stroke:#000000;stroke-width:2;stroke-miterlimit:4;stroke-dasharray:none;stroke-opacity:1"
       id="rects2.115"
       width="98.214287"
       height="41.42857"
       x="763.92859"
       y="619.71429" />
    <text x="795" y="650" font-family="Arial" font-size="13" fill="black" stroke-width="0"  > s2.115 </text>
    <rect
       style="fill:#da3636;fill-opacity:1;stroke:#000000;stroke-width:2;stroke-miterlimit:4;stroke-dasharray:none;stroke-opacity:1"
       id="rects2.116"
       width="58.425858"
       height="33.214298"
       x="739.4317"
       y="661.14288" />
    <text x="750" y="680" font-family="Arial" font-size="13" fill="black" stroke-width="0"  > s2.116 </text>
    <rect
       style="fill:#da3636;fill-opacity:1;stroke:#000000;stroke-width:2;stroke-miterlimit:4;stroke-dasharray:none;stroke-opacity:1"
       id="rects2.117"
       width="42.645924"
       height="36.071888"
       x="696.78571"
       y="621.1424" />
    <rect
       style="fill:#da3636;fill-opacity:1;stroke:#000000;stroke-width:2;stroke-miterlimit:4;stroke-dasharray:none;stroke-opacity:1"
       id="rects2.118"
       width="41.071419"
       height="36.071884"
       x="655.71429"
       y="621.1424" />
    <rect
       style="fill:#da3636;fill-opacity:1;stroke:#000000;stroke-width:2;stroke-miterlimit:4;stroke-dasharray:none;stroke-opacity:1"
       id="rects2.119"
       width="42.551697"
       height="36.07188"
       x="613.1626"
       y="621.1424" />
    <rect
       style="fill:#da3636;fill-opacity:1;stroke:#000000;stroke-width:2;stroke-miterlimit:4;stroke-dasharray:none;stroke-opacity:1"
       id="rects2.120"
       width="126.2691"
       height="68.214325"
       x="613.1626"
       y="657.21429" />
    <text x="665" y="700" font-family="Arial" font-size="13" fill="black" stroke-width="0"  > s2.120 </text>
    <path
       style="fill:#da3636;fill-opacity:1;stroke:#000000;stroke-width:2;stroke-miterlimit:4;stroke-dasharray:none;stroke-opacity:1"
       d="m 702.84375,800.4375 0,-37.875 -26.0625,0 0,37.875 26.0625,0 z"
       id="paths2.121"
       inkscape:connector-curvature="0" />
    <path
       style="fill:#da3636;fill-opacity:1;stroke:#000000;stroke-width:2;stroke-miterlimit:4;stroke-dasharray:none;stroke-opacity:1"
       d="m 676.78125,725.4375 0,37.125 26.0625,0 0,37.875 0,22.84375 36.59375,0 0,-97.84375 -62.65625,0 z"
       id="rects2.122"
       inkscape:connector-curvature="0" />
    <text x="690" y="750" font-family="Arial" font-size="13" fill="black" stroke-width="0"  > s2.122 </text>
    <path
       style="fill:#da3636;fill-opacity:1;stroke:#000000;stroke-width:2;stroke-miterlimit:4;stroke-dasharray:none;stroke-opacity:1"
       d="m 613.15625,725.4375 0,75 0,22.5 35.40625,0 0,-22.5 28.21875,0 0,-75 -63.625,0 z"
       id="rects2.123"
       inkscape:connector-curvature="0" />
    <text x="630" y="750" font-family="Arial" font-size="13" fill="black" stroke-width="0"  > s2.123 </text>
    <rect
       style="fill:#da3636;fill-opacity:1;stroke:#000000;stroke-width:2;stroke-miterlimit:4;stroke-dasharray:none;stroke-opacity:1"
       id="rects2.124"
       width="58.420059"
       height="93.26712"
       x="739.4375"
       y="694.35718" />
    <text x="750" y="750" font-family="Arial" font-size="15" fill="black" stroke-width="0"  > s2.124 </text>
    <path
       style="fill:#da3636;fill-opacity:1;stroke:#000000;stroke-width:2;stroke-miterlimit:4;stroke-dasharray:none;stroke-opacity:1"
       d="m 862.15625,651.25 0,9.90625 -64.3125,0 0,126.46875 64.3125,0 0,-17.9375 121.71875,0 0,-118.4375 -121.71875,0 z"
       id="rects2.125"
       inkscape:connector-curvature="0" />
    <text x="850" y="730" font-family="Arial" font-size="15" fill="black" stroke-width="0"  > s2.125 </text>
    <rect
       style="fill:#da3636;fill-opacity:1;stroke:#000000;stroke-width:2;stroke-miterlimit:4;stroke-dasharray:none;stroke-opacity:1"
       id="rects2.126"
       width="92.406624"
       height="36.87056"
       x="769.73627"
       y="787.62433" />
    <text x="815" y="810" font-family="Arial" font-size="15" fill="black" stroke-width="0"  > s2.126 </text>
    <rect
       style="fill:#da3636;fill-opacity:1;stroke:#000000;stroke-width:2;stroke-miterlimit:4;stroke-dasharray:none;stroke-opacity:1"
       id="rects2.127"
       width="77.276672"
       height="123.49774"
       x="906.61194"
       y="769.6875" />
    <text x="925" y="830" font-family="Arial" font-size="15" fill="black" stroke-width="0"  > s2.127 </text>
    <rect
       style="fill:#da3636;fill-opacity:1;stroke:#000000;stroke-width:2;stroke-miterlimit:4;stroke-dasharray:none;stroke-opacity:1"
       id="rects2.128"
       width="95.964493"
       height="109.60155"
       x="887.92407"
       y="893.18524" />
    <text x="925" y="950" font-family="Arial" font-size="15" fill="black" stroke-width="0"  > s2.128 </text>
    <rect
       style="fill:#da3636;fill-opacity:1;stroke:#000000;stroke-width:2;stroke-miterlimit:4;stroke-dasharray:none;stroke-opacity:1"
       id="rects2.129"
       width="154.04825"
       height="83.337578"
       x="733.87585"
       y="919.44922" />
    <text x="800" y="950" font-family="Arial" font-size="15" fill="black" stroke-width="0"  > s2.129 </text>
    <rect
       style="fill:#da3636;fill-opacity:1;stroke:#000000;stroke-width:2;stroke-miterlimit:4;stroke-dasharray:none;stroke-opacity:1"
       id="rects2.130"
       width="131.82487"
       height="63.639618"
       x="733.87585"
       y="855.80963" />
    <text x="800" y="890" font-family="Arial" font-size="15" fill="black" stroke-width="0"  > s2.130 </text>
    <rect
       style="fill:#da3636;fill-opacity:1;stroke:#000000;stroke-width:2;stroke-miterlimit:4;stroke-dasharray:none;stroke-opacity:1"
       id="rects2.131"
       width="113.13712"
       height="146.97717"
       x="620.73877"
       y="855.80963" />
    <text x="670" y="920" font-family="Arial" font-size="15" fill="black" stroke-width="0"  > s2.131 </text>
    <path
       style="fill:#da3636;fill-opacity:1;stroke:#000000;stroke-width:2;stroke-miterlimit:4;stroke-opacity:1;stroke-dasharray:none"
       d="m 456.87766,919.98254 163.86109,0 0,82.80426 -153.03812,0 z"
       id="rects2.132"
       inkscape:connector-curvature="0"
       sodipodi:nodetypes="ccccc" />
    <text x="540" y="960" font-family="Arial" font-size="15" fill="black" stroke-width="0"  > s2.132 </text>
    <path
       style="fill:#da3636;fill-opacity:1;stroke:#000000;stroke-width:2;stroke-miterlimit:4;stroke-opacity:1;stroke-dasharray:none"
       d="m 436.97577,767.71722 133.25534,0 0,152.26534 -113.40012,-0.35714 z"
       id="rects2.133"
       inkscape:connector-curvature="0"
       sodipodi:nodetypes="ccccc" />
    <text x="500" y="820" font-family="Arial" font-size="15" fill="black" stroke-width="0"  > s2.133 </text>
    <path
       style="fill:#da3636;fill-opacity:1;stroke:#000000;stroke-width:2;stroke-miterlimit:4;stroke-opacity:1;stroke-dasharray:none"
       d="m 426.42941,687.02917 143.80171,0 0,80.68808 -133.25535,-2e-5 z"
       id="rects2.134"
       inkscape:connector-curvature="0"
       sodipodi:nodetypes="ccccc" />
    <text x="500" y="730" font-family="Arial" font-size="15" fill="black" stroke-width="0"  > s2.134 </text>
    <path
       style="fill:#da3636;fill-opacity:1;stroke:#000000;stroke-width:2;stroke-miterlimit:4;stroke-dasharray:none;stroke-opacity:1"
       d="m 417.84375,621.3125 8.58566,65.71671 143.78934,0.002 0,-48.90625 -62.625,0 0,-16.8125 z"
       id="rects2.135"
       inkscape:connector-curvature="0"
       sodipodi:nodetypes="ccccccc" />
    <text x="500" y="670" font-family="Arial" font-size="15" fill="black" stroke-width="0"  > s2.135 </text>
    <path
       style="fill:#ff8080;fill-opacity:1;stroke:#000000;stroke-width:2;stroke-miterlimit:4;stroke-dasharray:none;stroke-opacity:1"
       d="m 507.59375,621.3125 0,-336.74416"
       id="line"
       inkscape:connector-curvature="0" />
    <path
       style="fill:#ff8080;fill-opacity:1;stroke:#000000;stroke-width:2;stroke-miterlimit:4;stroke-dasharray:none;stroke-opacity:1"
       d="m 460.62956,621.31248 0,-107.43952"
       id="line"
       inkscape:connector-curvature="0" />
    <path
       style="fill:none;stroke:#000000;stroke-width:2;stroke-miterlimit:4;stroke-dasharray:none;stroke-opacity:1"
       d="m 379.88115,326.0486 34.28139,-5.11477 15.15229,101.01525"
       id="line"
       inkscape:connector-curvature="0" />
    <!-- Displaying icons on the map -->

    <!-- Displaying stairs icon on the map -->
    <svg width="35" height="52" viewBox="0 0 35 52" fill="none" xmlns="http://www.w3.org/2000/svg" id="stairs1" x="391" y="380">
      <path
          d="M13.0369 22.7613C14.2897 23.9784 15.7774 24.587 17.5 24.587C19.2226 24.587 20.6711 23.9784 21.8456 22.7613C23.0984 21.4629 23.7248 19.9212 23.7248 18.136C23.7248 16.3508 23.0984 14.8496 21.8456 13.6324C20.6711 12.3341 19.2226 11.6849 17.5 11.6849C15.7774 11.6849 14.2897 12.3341 13.0369 13.6324C11.8624 14.8496 11.2752 16.3508 11.2752 18.136C11.2752 19.9212 11.8624 21.4629 13.0369 22.7613ZM5.05034 5.35559C8.49553 1.7852 12.6454 0 17.5 0C22.3546 0 26.4653 1.7852 29.8322 5.35559C33.2774 8.84484 35 13.105 35 18.136C35 20.6515 34.3736 23.5321 33.1208 26.778C31.9463 30.0238 30.4978 33.0667 28.7752 35.9068C27.0526 38.7469 25.33 41.4247 23.6074 43.9402C21.9631 46.3745 20.5537 48.322 19.3792 49.7826L17.5 51.8519C17.0302 51.2838 16.4038 50.5535 15.6208 49.6609C14.8378 48.6872 13.4284 46.8208 11.3926 44.0619C9.35682 41.2218 7.55593 38.5034 5.98993 35.9068C4.50224 33.229 3.13199 30.2266 1.87919 26.8997C0.626398 23.5727 0 20.6515 0 18.136C0 13.105 1.68344 8.84484 5.05034 5.35559Z"
          fill="#666666"
          stroke-width="0"/>
      <path
          d="M17.5 31.9412C24.4036 31.9412 30 25.6863 30 17.9706C30 10.2549 24.4036 4 17.5 4C10.5964 4 5 10.2549 5 17.9706C5 25.6863 10.5964 31.9412 17.5 31.9412Z"
          fill="#F7D6D6"
          stroke-width="0"/>
      <path
          d="M26.2188 10.3047H21.6094C21.1779 10.3047 20.8282 10.6544 20.8282 11.0859V14.9141H17C16.5686 14.9141 16.2188 15.2638 16.2188 15.6953V19.5234H12.3907C11.9592 19.5234 11.6094 19.8732 11.6094 20.3047V24.1328H7.78125C7.34977 24.1328 7 24.4826 7 24.9141C7 25.3455 7.34977 25.6953 7.78125 25.6953H12.3907C12.5978 25.6953 12.7966 25.613 12.9431 25.4665C13.0896 25.32 13.1719 25.1212 13.1719 24.9141L13.1719 21.0859H17C17.2072 21.0859 17.406 21.0036 17.5525 20.8571C17.699 20.7106 17.7813 20.5119 17.7813 20.3047L17.7812 16.4766H21.6094C21.8166 16.4766 22.0153 16.3943 22.1618 16.2477C22.3083 16.1012 22.3906 15.9025 22.3906 15.6953V11.8672H26.2188C26.6502 11.8672 27 11.5174 27 11.0859C27 10.6544 26.6502 10.3047 26.2188 10.3047Z"
          fill="#DA3636"
          stroke-width="0"/>
    </svg>
    <svg width="35" height="52" viewBox="0 0 35 52" fill="none" xmlns="http://www.w3.org/2000/svg" id="stairs2" x="760" y="600">
      <path
          d="M13.0369 22.7613C14.2897 23.9784 15.7774 24.587 17.5 24.587C19.2226 24.587 20.6711 23.9784 21.8456 22.7613C23.0984 21.4629 23.7248 19.9212 23.7248 18.136C23.7248 16.3508 23.0984 14.8496 21.8456 13.6324C20.6711 12.3341 19.2226 11.6849 17.5 11.6849C15.7774 11.6849 14.2897 12.3341 13.0369 13.6324C11.8624 14.8496 11.2752 16.3508 11.2752 18.136C11.2752 19.9212 11.8624 21.4629 13.0369 22.7613ZM5.05034 5.35559C8.49553 1.7852 12.6454 0 17.5 0C22.3546 0 26.4653 1.7852 29.8322 5.35559C33.2774 8.84484 35 13.105 35 18.136C35 20.6515 34.3736 23.5321 33.1208 26.778C31.9463 30.0238 30.4978 33.0667 28.7752 35.9068C27.0526 38.7469 25.33 41.4247 23.6074 43.9402C21.9631 46.3745 20.5537 48.322 19.3792 49.7826L17.5 51.8519C17.0302 51.2838 16.4038 50.5535 15.6208 49.6609C14.8378 48.6872 13.4284 46.8208 11.3926 44.0619C9.35682 41.2218 7.55593 38.5034 5.98993 35.9068C4.50224 33.229 3.13199 30.2266 1.87919 26.8997C0.626398 23.5727 0 20.6515 0 18.136C0 13.105 1.68344 8.84484 5.05034 5.35559Z"
          fill="#666666"
          stroke-width="0"/>
      <path
          d="M17.5 32.9412C24.4036 32.9412 30 26.6863 30 18.9706C30 11.2549 24.4036 5 17.5 5C10.5964 5 5 11.2549 5 18.9706C5 26.6863 10.5964 32.9412 17.5 32.9412Z"
          fill="#F7D6D6"
          stroke-width="0"/>
      <path
          d="M29.2188 15H24.6094C24.1779 15 23.8282 15.3498 23.8282 15.7812V19.6094H20C19.5686 19.6094 19.2188 19.9591 19.2188 20.3906V24.2187H15.3907C14.9592 24.2187 14.6094 24.5685 14.6094 25V28.8281H10.7812C10.3498 28.8281 10 29.1779 10 29.6094C10 30.0408 10.3498 30.3906 10.7812 30.3906H15.3907C15.5978 30.3906 15.7966 30.3083 15.9431 30.1618C16.0896 30.0153 16.1719 29.8165 16.1719 29.6094L16.1719 25.7812H20C20.2072 25.7812 20.406 25.6989 20.5525 25.5524C20.699 25.4059 20.7813 25.2072 20.7813 25L20.7812 21.1719H24.6094C24.8166 21.1719 25.0153 21.0896 25.1618 20.943C25.3083 20.7965 25.3906 20.5978 25.3906 20.3906V16.5625H29.2188C29.6502 16.5625 30 16.2127 30 15.7812C30 15.3498 29.6502 15 29.2188 15Z"
          fill="#DA3636"
          stroke-width="0"/>
      <path
          d="M14.3264 14.6278C14.041 14.3505 13.702 14.2118 13.3096 14.2118C12.9171 14.2118 12.5871 14.3505 12.3195 14.6278C12.0341 14.9236 11.8913 15.2748 11.8913 15.6816C11.8913 16.0883 12.0341 16.4303 12.3195 16.7076C12.5871 17.0034 12.9171 17.1513 13.3096 17.1513C13.702 17.1513 14.041 17.0034 14.3264 16.7076C14.594 16.4303 14.7278 16.0883 14.7278 15.6816C14.7278 15.2748 14.594 14.9236 14.3264 14.6278ZM16.146 18.5934C15.3611 19.4068 14.4156 19.8135 13.3096 19.8135C12.2035 19.8135 11.267 19.4068 10.4999 18.5934C9.71496 17.7984 9.32249 16.8278 9.32249 15.6816C9.32249 15.1085 9.46521 14.4522 9.75063 13.7126C10.0182 12.9731 10.3482 12.2799 10.7407 11.6328C11.1332 10.9857 11.5256 10.3756 11.9181 9.80253C12.2927 9.24791 12.6138 8.80421 12.8814 8.47143L13.3096 8C13.4166 8.12941 13.5593 8.2958 13.7377 8.49916C13.9161 8.72101 14.2372 9.14623 14.701 9.7748C15.1648 10.4219 15.5751 11.0412 15.9319 11.6328C16.2709 12.2429 16.5831 12.9269 16.8685 13.6849C17.1539 14.4429 17.2966 15.1085 17.2966 15.6816C17.2966 16.8278 16.9131 17.7984 16.146 18.5934Z"
          fill="#DA3636"
          stroke-width="0"/>
      <path
          d="M13.3098 18.6947C14.8827 18.6947 16.1577 17.2697 16.1577 15.5118C16.1577 13.7539 14.8827 12.3288 13.3098 12.3288C11.737 12.3288 10.4619 13.7539 10.4619 15.5118C10.4619 17.2697 11.737 18.6947 13.3098 18.6947Z"
          fill="#DA3636"
          stroke-width="0"/>
      <path
          d="M11.2734 16.5879C10.9909 16.4142 10.69 16.363 10.3708 16.4342C10.0517 16.5055 9.80843 16.6782 9.64116 16.9523C9.46274 17.2448 9.41046 17.5564 9.48432 17.8871C9.55819 18.2179 9.73637 18.4702 10.0189 18.6439C10.2902 18.8359 10.5855 18.8962 10.9047 18.8249C11.2239 18.7537 11.4727 18.5718 11.6511 18.2794C11.8184 18.0053 11.8651 17.7028 11.7912 17.372C11.7173 17.0412 11.5447 16.7799 11.2734 16.5879ZM13.4735 19.4826C12.9828 20.2868 12.2877 20.7893 11.3882 20.9901C10.4886 21.191 9.65305 21.0303 8.88144 20.508C8.09869 20.004 7.60323 19.2859 7.39507 18.3537C7.29099 17.8875 7.28787 17.3279 7.38571 16.6746C7.46904 16.0245 7.61155 15.4008 7.81323 14.8032C8.01491 14.2057 8.2233 13.6382 8.43841 13.1008C8.64237 12.5817 8.82295 12.1625 8.98015 11.8433L9.24274 11.3821C9.3533 11.4679 9.49958 11.5774 9.6816 11.7104C9.86698 11.8584 10.2054 12.1459 10.6967 12.5729C11.1915 13.0149 11.6377 13.4441 12.0353 13.8605C12.4217 14.2951 12.7999 14.7947 13.1697 15.3594C13.5394 15.924 13.7764 16.4394 13.8805 16.9055C14.0886 17.8377 13.953 18.6968 13.4735 19.4826Z"
          fill="#DA3636"
          stroke-width="0"/>
      <path
          d="M11.185 20.0802C12.4642 19.7946 13.2424 18.404 12.9231 16.9743C12.6039 15.5446 11.3081 14.6171 10.0289 14.9028C8.74965 15.1884 7.97145 16.579 8.29069 18.0087C8.60994 19.4384 9.90574 20.3658 11.185 20.0802Z"
          fill="#DA3636"
          stroke-width="0"/>
      <path
          d="M16.8739 16.2564C16.6903 15.9488 16.428 15.7493 16.0868 15.6579C15.7456 15.5665 15.4264 15.6102 15.1292 15.7889C14.8122 15.9796 14.6063 16.2517 14.5115 16.6053C14.4168 16.9589 14.4612 17.2894 14.6447 17.597C14.8084 17.9165 15.0609 18.1219 15.4021 18.2133C15.7433 18.3048 16.0724 18.2551 16.3894 18.0645C16.6866 17.8857 16.8826 17.6196 16.9773 17.266C17.0721 16.9124 17.0376 16.5759 16.8739 16.2564ZM17.532 20.1277C16.6601 20.652 15.7435 20.7853 14.782 20.5277C13.8204 20.27 13.101 19.6983 12.6236 18.8125C12.1264 17.9385 12.0114 17.0033 12.2784 16.0069C12.4119 15.5087 12.6888 14.9714 13.1092 14.395C13.5141 13.8144 13.9625 13.2886 14.4544 12.8175C14.9463 12.3464 15.4296 11.9075 15.9042 11.5007C16.3591 11.1058 16.7416 10.7948 17.0518 10.5679L17.5338 10.2578C17.5967 10.3952 17.682 10.5731 17.7897 10.7915C17.8931 11.0259 18.0732 11.4703 18.33 12.1248C18.5825 12.7954 18.7949 13.4293 18.9673 14.0267C19.1198 14.6361 19.2319 15.3034 19.3034 16.0289C19.375 16.7543 19.344 17.3661 19.2105 17.8644C18.9435 18.8608 18.384 19.6152 17.532 20.1277Z"
          fill="#DA3636"
          stroke-width="0"/>
      <path
          d="M15.0427 19.5551C16.4101 19.9214 17.8505 18.9796 18.2599 17.4514C18.6694 15.9232 17.8929 14.3873 16.5256 14.021C15.1582 13.6546 13.7179 14.5964 13.3084 16.1246C12.8989 17.6528 13.6754 19.1887 15.0427 19.5551Z"
          fill="#DA3636"
          stroke-width="0"/>
      <path
          d="M12.6238 18.939C12.4825 18.8522 12.3321 18.8266 12.1725 18.8622C12.0129 18.8979 11.8913 18.9842 11.8076 19.1213C11.7184 19.2675 11.6923 19.4233 11.7292 19.5887C11.7662 19.7541 11.8552 19.8802 11.9965 19.9671C12.1322 20.063 12.2798 20.0932 12.4394 20.0576C12.599 20.0219 12.7234 19.931 12.8126 19.7848C12.8962 19.6478 12.9196 19.4965 12.8827 19.3311C12.8457 19.1657 12.7594 19.035 12.6238 18.939ZM13.7238 20.3864C13.4785 20.7885 13.1309 21.0397 12.6811 21.1402C12.2314 21.2406 11.8136 21.1603 11.4278 20.8991C11.0364 20.6471 10.7887 20.2881 10.6846 19.8219C10.6326 19.5889 10.631 19.309 10.6799 18.9824C10.7216 18.6574 10.7928 18.3455 10.8937 18.0467C10.9945 17.748 11.0987 17.4642 11.2063 17.1955C11.3082 16.936 11.3985 16.7264 11.4771 16.5668L11.6084 16.3362C11.6637 16.3791 11.7369 16.4338 11.8279 16.5003C11.9206 16.5743 12.0897 16.7181 12.3354 16.9316C12.5828 17.1526 12.8059 17.3672 13.0047 17.5753C13.1979 17.7927 13.387 18.0425 13.5719 18.3248C13.7568 18.6071 13.8753 18.8648 13.9273 19.0979C14.0314 19.564 13.9635 19.9935 13.7238 20.3864Z"
          fill="#DA6736"
          stroke-width="0"/>
      <path
          d="M12.5794 20.6852C13.219 20.5424 13.6081 19.8471 13.4485 19.1323C13.2889 18.4174 12.641 17.9537 12.0014 18.0965C11.3618 18.2393 10.9727 18.9346 11.1323 19.6495C11.2919 20.3643 11.9398 20.828 12.5794 20.6852Z"
          fill="#DA6736"
          stroke-width="0"/>
      <path
          d="M15.5827 18.4705C15.4638 18.2711 15.2937 18.1418 15.0726 18.0826C14.8514 18.0233 14.6446 18.0516 14.4519 18.1675C14.2464 18.2911 14.113 18.4674 14.0516 18.6966C13.9902 18.9258 14.0189 19.1401 14.1379 19.3394C14.244 19.5465 14.4076 19.6796 14.6288 19.7389C14.8499 19.7981 15.0632 19.766 15.2687 19.6424C15.4614 19.5265 15.5884 19.354 15.6498 19.1249C15.7112 18.8957 15.6888 18.6776 15.5827 18.4705ZM16.0093 20.9796C15.4442 21.3195 14.85 21.4059 14.2268 21.2389C13.6036 21.0719 13.1373 20.7014 12.8279 20.1272C12.5057 19.5608 12.4311 18.9546 12.6041 18.3088C12.6907 17.9859 12.8702 17.6376 13.1426 17.264C13.4051 16.8877 13.6957 16.5469 14.0145 16.2416C14.3333 15.9363 14.6466 15.6517 14.9543 15.3881C15.2491 15.1321 15.497 14.9306 15.698 14.7835L16.0104 14.5825C16.0512 14.6716 16.1065 14.7869 16.1763 14.9284C16.2433 15.0803 16.3601 15.3684 16.5265 15.7926C16.6902 16.2272 16.8278 16.6381 16.9395 17.0254C17.0384 17.4203 17.111 17.8528 17.1574 18.323C17.2038 18.7932 17.1838 19.1898 17.0972 19.5127C16.9242 20.1585 16.5615 20.6475 16.0093 20.9796Z"
          fill="#DA6736"
          stroke-width="0"/>
      <path
          d="M14.396 20.6085C15.2822 20.846 16.2158 20.2355 16.4812 19.245C16.7466 18.2545 16.2433 17.2591 15.3571 17.0216C14.4709 16.7841 13.5373 17.3946 13.2719 18.3851C13.0065 19.3756 13.5098 20.3711 14.396 20.6085Z"
          fill="#DA6736"
          stroke-width="0"/>
      <path
          d="M13.6419 17.9677C15.2934 17.9677 16.6322 18.7114 16.6322 19.6289C16.6322 20.5464 15.2934 21.2902 13.6419 21.2902C11.9904 21.2902 10.6516 20.5464 10.6516 19.6289C10.6516 18.7114 11.9904 17.9677 13.6419 17.9677Z"
          fill="#DA6736"
          stroke-width="0"/>
    </svg>

    <!-- Displaying elevator icon on the map -->
    <svg width="35" height="52" viewBox="0 0 35 52" fill="none" xmlns="http://www.w3.org/2000/svg" id="elevator1" x="658" y="602">
      <path
          d="M13.0369 22.7613C14.2897 23.9784 15.7774 24.587 17.5 24.587C19.2226 24.587 20.6711 23.9784 21.8456 22.7613C23.0984 21.4629 23.7248 19.9212 23.7248 18.136C23.7248 16.3508 23.0984 14.8496 21.8456 13.6324C20.6711 12.3341 19.2226 11.6849 17.5 11.6849C15.7774 11.6849 14.2897 12.3341 13.0369 13.6324C11.8624 14.8496 11.2752 16.3508 11.2752 18.136C11.2752 19.9212 11.8624 21.4629 13.0369 22.7613ZM5.05034 5.35559C8.49553 1.7852 12.6454 0 17.5 0C22.3546 0 26.4653 1.7852 29.8322 5.35559C33.2774 8.84484 35 13.105 35 18.136C35 20.6515 34.3736 23.5321 33.1208 26.778C31.9463 30.0238 30.4978 33.0667 28.7752 35.9068C27.0526 38.7469 25.33 41.4247 23.6074 43.9402C21.9631 46.3745 20.5537 48.322 19.3792 49.7826L17.5 51.8519C17.0302 51.2838 16.4038 50.5535 15.6208 49.6609C14.8378 48.6872 13.4284 46.8208 11.3926 44.0619C9.35682 41.2218 7.55593 38.5034 5.98993 35.9068C4.50224 33.229 3.13199 30.2266 1.87919 26.8997C0.626398 23.5727 0 20.6515 0 18.136C0 13.105 1.68344 8.84484 5.05034 5.35559Z"
          fill="#666666"
          stroke-width="0"/>
      <path
          d="M17.5 31.9412C24.4036 31.9412 30 25.6863 30 17.9706C30 10.2549 24.4036 4 17.5 4C10.5964 4 5 10.2549 5 17.9706C5 25.6863 10.5964 31.9412 17.5 31.9412Z"
          fill="#F7D6D6"
          stroke-width="0"/>
      <path
          d="M24.6316 10.002H10.3651C9.61228 10.002 9 10.6142 9 11.367V25.6369C9 26.3864 9.61228 26.9986 10.3651 26.9986H24.6349C25.3877 26.9986 26 26.3864 26 25.6336V11.367C25.9967 10.6142 25.3844 10.002 24.6316 10.002ZM17.0266 26.0551H10.3651C10.1342 26.0551 9.94686 25.8678 9.94686 25.6369V11.367C9.94686 11.1362 10.1342 10.9488 10.3651 10.9488H17.0266V26.0551ZM24.6349 26.0518H17.9701V10.9455H24.6316C24.8624 10.9455 25.0498 11.1328 25.0498 11.3637V25.6336H25.0531C25.0531 25.8644 24.8658 26.0518 24.6349 26.0518Z"
          fill="#DA3636"
          stroke-width="0"/>
      <path
          d="M15.3136 18.8647C15.1296 18.6807 14.8318 18.6807 14.6444 18.8647L13.9585 19.5506V16.3085C13.9585 16.0475 13.7478 15.8367 13.4868 15.8367C13.2258 15.8367 13.015 16.0475 13.015 16.3085V19.5506L12.3291 18.868C12.1451 18.684 11.8474 18.684 11.66 18.868C11.476 19.052 11.476 19.3498 11.66 19.5372L13.1522 21.026C13.2459 21.1197 13.3663 21.1632 13.4868 21.1632C13.6072 21.1632 13.7277 21.1164 13.8214 21.026L15.3136 19.5338C15.4976 19.3498 15.4976 19.052 15.3136 18.8647Z"
          fill="#DA3636"
          stroke-width="0"/>
      <path
          d="M23.3368 17.4661L21.8446 15.9739C21.7509 15.8802 21.6305 15.8367 21.51 15.8367C21.3896 15.8367 21.2691 15.8836 21.1755 15.9739L19.6832 17.4661C19.4992 17.6501 19.4992 17.9479 19.6832 18.1353C19.8673 18.3193 20.165 18.3193 20.3524 18.1353L21.0383 17.4494V20.6915C21.0383 20.9524 21.2491 21.1632 21.51 21.1632C21.771 21.1632 21.9818 20.9524 21.9818 20.6915V17.4494L22.6677 18.1353C22.8517 18.3193 23.1495 18.3193 23.3368 18.1353C23.5209 17.9513 23.5209 17.6535 23.3368 17.4661Z"
          fill="#DA3636"
          stroke-width="0"/>
    </svg>

    <svg width="35" height="52" viewBox="0 0 35 52" fill="none" xmlns="http://www.w3.org/2000/svg" id="elevator2" x="658" y="525">
      <path
          d="M13.0369 22.7613C14.2897 23.9784 15.7774 24.587 17.5 24.587C19.2226 24.587 20.6711 23.9784 21.8456 22.7613C23.0984 21.4629 23.7248 19.9212 23.7248 18.136C23.7248 16.3508 23.0984 14.8496 21.8456 13.6324C20.6711 12.3341 19.2226 11.6849 17.5 11.6849C15.7774 11.6849 14.2897 12.3341 13.0369 13.6324C11.8624 14.8496 11.2752 16.3508 11.2752 18.136C11.2752 19.9212 11.8624 21.4629 13.0369 22.7613ZM5.05034 5.35559C8.49553 1.7852 12.6454 0 17.5 0C22.3546 0 26.4653 1.7852 29.8322 5.35559C33.2774 8.84484 35 13.105 35 18.136C35 20.6515 34.3736 23.5321 33.1208 26.778C31.9463 30.0238 30.4978 33.0667 28.7752 35.9068C27.0526 38.7469 25.33 41.4247 23.6074 43.9402C21.9631 46.3745 20.5537 48.322 19.3792 49.7826L17.5 51.8519C17.0302 51.2838 16.4038 50.5535 15.6208 49.6609C14.8378 48.6872 13.4284 46.8208 11.3926 44.0619C9.35682 41.2218 7.55593 38.5034 5.98993 35.9068C4.50224 33.229 3.13199 30.2266 1.87919 26.8997C0.626398 23.5727 0 20.6515 0 18.136C0 13.105 1.68344 8.84484 5.05034 5.35559Z"
          fill="#666666"
          stroke-width="0"/>
      <path
          d="M17.5 31.9412C24.4036 31.9412 30 25.6863 30 17.9706C30 10.2549 24.4036 4 17.5 4C10.5964 4 5 10.2549 5 17.9706C5 25.6863 10.5964 31.9412 17.5 31.9412Z"
          fill="#F7D6D6"
          stroke-width="0"/>
      <path
          d="M24.6316 10.002H10.3651C9.61228 10.002 9 10.6142 9 11.367V25.6369C9 26.3864 9.61228 26.9986 10.3651 26.9986H24.6349C25.3877 26.9986 26 26.3864 26 25.6336V11.367C25.9967 10.6142 25.3844 10.002 24.6316 10.002ZM17.0266 26.0551H10.3651C10.1342 26.0551 9.94686 25.8678 9.94686 25.6369V11.367C9.94686 11.1362 10.1342 10.9488 10.3651 10.9488H17.0266V26.0551ZM24.6349 26.0518H17.9701V10.9455H24.6316C24.8624 10.9455 25.0498 11.1328 25.0498 11.3637V25.6336H25.0531C25.0531 25.8644 24.8658 26.0518 24.6349 26.0518Z"
          fill="#DA3636"
          stroke-width="0"/>
      <path
          d="M15.3136 18.8647C15.1296 18.6807 14.8318 18.6807 14.6444 18.8647L13.9585 19.5506V16.3085C13.9585 16.0475 13.7478 15.8367 13.4868 15.8367C13.2258 15.8367 13.015 16.0475 13.015 16.3085V19.5506L12.3291 18.868C12.1451 18.684 11.8474 18.684 11.66 18.868C11.476 19.052 11.476 19.3498 11.66 19.5372L13.1522 21.026C13.2459 21.1197 13.3663 21.1632 13.4868 21.1632C13.6072 21.1632 13.7277 21.1164 13.8214 21.026L15.3136 19.5338C15.4976 19.3498 15.4976 19.052 15.3136 18.8647Z"
          fill="#DA3636"
          stroke-width="0"/>
      <path
          d="M23.3368 17.4661L21.8446 15.9739C21.7509 15.8802 21.6305 15.8367 21.51 15.8367C21.3896 15.8367 21.2691 15.8836 21.1755 15.9739L19.6832 17.4661C19.4992 17.6501 19.4992 17.9479 19.6832 18.1353C19.8673 18.3193 20.165 18.3193 20.3524 18.1353L21.0383 17.4494V20.6915C21.0383 20.9524 21.2491 21.1632 21.51 21.1632C21.771 21.1632 21.9818 20.9524 21.9818 20.6915V17.4494L22.6677 18.1353C22.8517 18.3193 23.1495 18.3193 23.3368 18.1353C23.5209 17.9513 23.5209 17.6535 23.3368 17.4661Z"
          fill="#DA3636"
          stroke-width="0"/>
    </svg>

    <!-- Displaying washroom icon on the map -->
    <svg width="35" height="52" viewBox="0 0 35 52" fill="none" xmlns="http://www.w3.org/2000/svg" id="restroom_w1" x="615" y="768">
      <path
          d="M13.0369 22.7613C14.2897 23.9784 15.7774 24.587 17.5 24.587C19.2226 24.587 20.6711 23.9784 21.8456 22.7613C23.0984 21.4629 23.7248 19.9212 23.7248 18.136C23.7248 16.3508 23.0984 14.8496 21.8456 13.6324C20.6711 12.3341 19.2226 11.6849 17.5 11.6849C15.7774 11.6849 14.2897 12.3341 13.0369 13.6324C11.8624 14.8496 11.2752 16.3508 11.2752 18.136C11.2752 19.9212 11.8624 21.4629 13.0369 22.7613ZM5.05034 5.35559C8.49553 1.7852 12.6454 0 17.5 0C22.3546 0 26.4653 1.7852 29.8322 5.35559C33.2774 8.84484 35 13.105 35 18.136C35 20.6515 34.3736 23.5321 33.1208 26.778C31.9463 30.0238 30.4978 33.0667 28.7752 35.9068C27.0526 38.7469 25.33 41.4247 23.6074 43.9402C21.9631 46.3745 20.5537 48.322 19.3792 49.7826L17.5 51.8519C17.0302 51.2838 16.4038 50.5535 15.6208 49.6609C14.8378 48.6872 13.4284 46.8208 11.3926 44.0619C9.35682 41.2218 7.55593 38.5034 5.98993 35.9068C4.50224 33.229 3.13199 30.2266 1.87919 26.8997C0.626398 23.5727 0 20.6515 0 18.136C0 13.105 1.68344 8.84484 5.05034 5.35559Z"
          fill="#08648B"
          stroke-width="0"/>
      <path
          d="M17.5 32.9412C24.4036 32.9412 30 26.6863 30 18.9706C30 11.2549 24.4036 5 17.5 5C10.5964 5 5 11.2549 5 18.9706C5 26.6863 10.5964 32.9412 17.5 32.9412Z"
          fill="#F7D6D6"
          stroke-width="0"/>
      <path
          d="M17.84 7C16.3819 7 15.2 8.18196 15.2 9.64001C15.2015 11.0975 16.3826 12.2786 17.84 12.28C19.2981 12.28 20.48 11.0981 20.48 9.64001C20.48 8.18196 19.2981 7 17.84 7ZM17.84 11.4C16.868 11.4 16.0801 10.612 16.0801 9.64001C16.0801 8.668 16.868 7.88001 17.84 7.88001C18.8121 7.88001 19.6 8.668 19.6 9.64001C19.6 10.612 18.8121 11.4 17.84 11.4Z"
          fill="#DA3636"
          stroke-width="0"/>
      <path
          d="M22.6616 22.2738L20.0216 13.4737C19.9658 13.2876 19.7944 13.16 19.6 13.16H16.0801C15.8856 13.16 15.7143 13.2876 15.6584 13.4737L13.0185 22.2738C12.9784 22.4075 13.0042 22.5523 13.088 22.664C13.1711 22.7747 13.3015 22.8401 13.44 22.8401H15.2V28.56C15.2 28.8031 15.3971 29 15.64 29H20.0401C20.2831 29 20.48 28.8031 20.48 28.56V22.8401H22.24C22.483 22.8401 22.6801 22.6431 22.6801 22.4001C22.6801 22.3573 22.6739 22.3147 22.6616 22.2738ZM20.0401 21.96C19.7971 21.96 19.6 22.157 19.6 22.4V28.1201H18.28V21.96H17.4001V28.1201H16.0801V22.4C16.0801 22.157 15.883 21.96 15.64 21.96H14.0314L16.4074 14.04H19.2726L21.6486 21.96H20.0401Z"
          fill="#DA3636"
          stroke-width="0"/>
    </svg>

    <svg width="35" height="52" viewBox="0 0 35 52" fill="none" xmlns="http://www.w3.org/2000/svg" id="restroom_m1" x="705" y="768">
      <path
          d="M13.0369 22.7613C14.2897 23.9784 15.7774 24.587 17.5 24.587C19.2226 24.587 20.6711 23.9784 21.8456 22.7613C23.0984 21.4629 23.7248 19.9212 23.7248 18.136C23.7248 16.3508 23.0984 14.8496 21.8456 13.6324C20.6711 12.3341 19.2226 11.6849 17.5 11.6849C15.7774 11.6849 14.2897 12.3341 13.0369 13.6324C11.8624 14.8496 11.2752 16.3508 11.2752 18.136C11.2752 19.9212 11.8624 21.4629 13.0369 22.7613ZM5.05034 5.35559C8.49553 1.7852 12.6454 0 17.5 0C22.3546 0 26.4653 1.7852 29.8322 5.35559C33.2774 8.84484 35 13.105 35 18.136C35 20.6515 34.3736 23.5321 33.1208 26.778C31.9463 30.0238 30.4978 33.0667 28.7752 35.9068C27.0526 38.7469 25.33 41.4247 23.6074 43.9402C21.9631 46.3745 20.5537 48.322 19.3792 49.7826L17.5 51.8519C17.0302 51.2838 16.4038 50.5535 15.6208 49.6609C14.8378 48.6872 13.4284 46.8208 11.3926 44.0619C9.35682 41.2218 7.55593 38.5034 5.98993 35.9068C4.50224 33.229 3.13199 30.2266 1.87919 26.8997C0.626398 23.5727 0 20.6515 0 18.136C0 13.105 1.68344 8.84484 5.05034 5.35559Z"
          fill="#08648B"
          stroke-width="0"/>
      <path
          d="M17.5 32.9412C24.4036 32.9412 30 26.6863 30 18.9706C30 11.2549 24.4036 5 17.5 5C10.5964 5 5 11.2549 5 18.9706C5 26.6863 10.5964 32.9412 17.5 32.9412Z"
          fill="#F7D6D6"
          stroke-width="0"/>
      <path
          d="M18.0001 8C16.6746 8 15.6001 9.0745 15.6001 10.4C15.6001 11.7255 16.6746 12.8 18.0001 12.8C19.3251 12.7987 20.3988 11.725 20.4001 10.4C20.4001 9.0745 19.3256 8 18.0001 8ZM18.0001 12C17.1165 12 16.4001 11.2837 16.4001 10.4C16.4001 9.51635 17.1165 8.8 18.0001 8.8C18.8838 8.8 19.6001 9.51635 19.6001 10.4C19.6001 11.2837 18.8838 12 18.0001 12Z"
          fill="#DA3636"
          stroke-width="0"/>
      <path
          d="M19.2 13.6H16.8C15.2543 13.6018 14.0018 14.8544 14 16.4V22C14 22.2209 14.1791 22.4 14.4 22.4H15.6V27.6C15.6 27.8209 15.7791 28 16 28H20C20.2209 28 20.4 27.8209 20.4 27.6V22.4H21.6C21.8209 22.4 22 22.2209 22 22V16.4C21.9982 14.8544 20.7457 13.6018 19.2 13.6ZM21.2 21.6H20.4V16.8H19.6V27.2H18.4V21.6H17.6V27.2H16.4V16.8H15.6V21.6H14.8V16.4C14.8013 15.296 15.696 14.4013 16.8 14.4H19.2C20.304 14.4013 21.1987 15.296 21.2 16.4V21.6Z"
          fill="#DA3636"
          stroke-width="0"/>
    </svg>

    <!-- Displaying escalator icon on the map -->
    <svg width="35" height="52" viewBox="0 0 35 52" fill="none" xmlns="http://www.w3.org/2000/svg" id="escalator_up1" x="415" y="500">
      <path
          d="M13.0369 22.7613C14.2897 23.9784 15.7774 24.587 17.5 24.587C19.2226 24.587 20.6711 23.9784 21.8456 22.7613C23.0984 21.4629 23.7248 19.9212 23.7248 18.136C23.7248 16.3508 23.0984 14.8496 21.8456 13.6324C20.6711 12.3341 19.2226 11.6849 17.5 11.6849C15.7774 11.6849 14.2897 12.3341 13.0369 13.6324C11.8624 14.8496 11.2752 16.3508 11.2752 18.136C11.2752 19.9212 11.8624 21.4629 13.0369 22.7613ZM5.05034 5.35559C8.49553 1.7852 12.6454 0 17.5 0C22.3546 0 26.4653 1.7852 29.8322 5.35559C33.2774 8.84484 35 13.105 35 18.136C35 20.6515 34.3736 23.5321 33.1208 26.778C31.9463 30.0238 30.4978 33.0667 28.7752 35.9068C27.0526 38.7469 25.33 41.4247 23.6074 43.9402C21.9631 46.3745 20.5537 48.322 19.3792 49.7826L17.5 51.8519C17.0302 51.2838 16.4038 50.5535 15.6208 49.6609C14.8378 48.6872 13.4284 46.8208 11.3926 44.0619C9.35682 41.2218 7.55593 38.5034 5.98993 35.9068C4.50224 33.229 3.13199 30.2266 1.87919 26.8997C0.626398 23.5727 0 20.6515 0 18.136C0 13.105 1.68344 8.84484 5.05034 5.35559Z"
          fill="#666666"
          stroke-width="0"/>
      <path
          d="M17.5 31.9412C24.4036 31.9412 30 25.6863 30 17.9706C30 10.2548 24.4036 4 17.5 4C10.5964 4 5 10.2548 5 17.9706C5 25.6863 10.5964 31.9412 17.5 31.9412Z"
          fill="#F7D6D6"
          stroke-width="0"/>
      <path
          d="M12.4009 22.2074C12.0799 22.1979 11.7691 22.3213 11.542 22.5484C11.3148 22.7756 11.1915 23.0863 11.2009 23.4074C11.2009 23.5731 11.3353 23.7074 11.5009 23.7074C11.6666 23.7074 11.8009 23.5731 11.8009 23.4074C11.7907 23.245 11.8508 23.0861 11.966 22.9712C12.0813 22.8563 12.2404 22.7966 12.4027 22.8074C12.5684 22.8069 12.7023 22.6722 12.7018 22.5065C12.7013 22.3408 12.5666 22.2069 12.4009 22.2074Z"
          fill="#DA3636"
          stroke-width="0"/>
      <path
          d="M25.6008 15.9074C25.7629 15.8969 25.9217 15.9567 26.0366 16.0716C26.1515 16.1865 26.2113 16.3453 26.2008 16.5074C26.2008 16.6731 26.3351 16.8074 26.5008 16.8074C26.6665 16.8074 26.8008 16.6731 26.8008 16.5074C26.8103 16.1863 26.6869 15.8756 26.4598 15.6484C26.2326 15.4213 25.9219 15.2979 25.6008 15.3074C25.4351 15.3074 25.3008 15.4417 25.3008 15.6074C25.3008 15.7731 25.4351 15.9074 25.6008 15.9074Z"
          fill="#DA3636"
          stroke-width="0"/>
      <path
          d="M19.6009 19.5074C19.4352 19.5074 19.3009 19.6417 19.3009 19.8074V20.4074H18.7009C18.5352 20.4074 18.4009 20.5417 18.4009 20.7074V21.3074H17.8009C17.6352 21.3074 17.5009 21.4417 17.5009 21.6074V22.2074H16.9009C16.7352 22.2074 16.6009 22.3417 16.6009 22.5074V23.1074H16.0009C15.8352 23.1074 15.7009 23.2417 15.7009 23.4074V24.3074C15.7009 24.4731 15.8352 24.6074 16.0009 24.6074C16.1666 24.6074 16.3009 24.4731 16.3009 24.3074V23.7074H16.9009C17.0666 23.7074 17.2009 23.5731 17.2009 23.4074V22.8074H17.8009C17.9666 22.8074 18.1009 22.6731 18.1009 22.5074V21.9074H18.7009C18.8666 21.9074 19.0009 21.7731 19.0009 21.6074V21.0074H19.6009C19.7666 21.0074 19.9009 20.8731 19.9009 20.7074V20.1074H20.5009C20.6666 20.1074 20.8009 19.9731 20.8009 19.8074V19.2074H21.4009C21.5666 19.2074 21.7009 19.0731 21.7009 18.9074V18.3074H22.3009C22.4666 18.3074 22.6009 18.1731 22.6009 18.0074V17.4074H23.2009C23.3666 17.4074 23.5009 17.2731 23.5009 17.1074C23.5009 16.9417 23.3666 16.8074 23.2009 16.8074H22.3009C22.1352 16.8074 22.0009 16.9417 22.0009 17.1074V17.7074H21.4009C21.2352 17.7074 21.1009 17.8417 21.1009 18.0074V18.6074H20.5009C20.3352 18.6074 20.2009 18.7417 20.2009 18.9074V19.5074H19.6009Z"
          fill="#DA3636"
          stroke-width="0"/>
      <path
          d="M14.2009 18.0074V21.0074H12.4009C11.1051 21.0067 10.0427 22.0348 10.0009 23.33C9.98328 23.9672 10.2272 24.5839 10.6759 25.0367C11.1515 25.5269 11.8046 25.8047 12.4876 25.8074H15.8224C16.3796 25.8089 16.9142 25.5874 17.3071 25.1924L23.5042 18.9953C23.5606 18.9393 23.6368 18.9077 23.7163 18.9074H25.5142C26.1972 18.9047 26.8502 18.6269 27.3259 18.1367C27.7745 17.6837 28.0184 17.067 28.0009 16.4297C27.9589 15.1347 26.8966 14.1067 25.6009 14.1074H22.4809C21.9237 14.1059 21.3891 14.3274 20.9962 14.7224L19.9009 15.8174V15.0074C19.9015 14.689 19.7748 14.3837 19.549 14.1593C19.5295 14.1398 19.5067 14.1254 19.486 14.1074C19.8649 13.7795 20.0002 13.2506 19.8252 12.781C19.6502 12.3114 19.2019 12 18.7007 12C18.1996 12 17.7512 12.3114 17.5763 12.781C17.4013 13.2506 17.5365 13.7795 17.9155 14.1074C17.6533 14.3331 17.502 14.6615 17.5009 15.0074V18.2174L16.6009 19.1174V18.0074C16.6016 17.689 16.4748 17.3837 16.249 17.1593C16.2295 17.1398 16.2067 17.1254 16.186 17.1074C16.5649 16.7795 16.7002 16.2506 16.5252 15.781C16.3502 15.3114 15.9019 15 15.4007 15C14.8996 15 14.4512 15.3114 14.2763 15.781C14.1013 16.2506 14.2365 16.7795 14.6155 17.1074C14.3533 17.3331 14.202 17.6615 14.2009 18.0074ZM21.4189 15.1466C21.6999 14.8641 22.0824 14.7059 22.4809 14.7074H25.6009C26.5726 14.7069 27.3693 15.4777 27.4009 16.4489C27.4128 16.9235 27.2303 17.3823 26.8957 17.7191C26.5331 18.0932 26.0351 18.3053 25.5142 18.3074H23.7163C23.4775 18.3068 23.2483 18.4017 23.08 18.5711L16.8829 24.7682C16.6022 25.0503 16.2203 25.2085 15.8224 25.2074H12.4876C11.9672 25.2049 11.4698 24.9928 11.1076 24.6191C10.7724 24.2826 10.5894 23.8237 10.6009 23.3489C10.6325 22.3777 11.4292 21.6069 12.4009 21.6074H14.5855C14.8243 21.608 15.0534 21.5131 15.2218 21.3437L21.4189 15.1466ZM18.1009 13.2074C18.1009 12.876 18.3695 12.6074 18.7009 12.6074C19.0322 12.6074 19.3009 12.876 19.3009 13.2074C19.3009 13.5388 19.0322 13.8074 18.7009 13.8074C18.3695 13.8074 18.1009 13.5388 18.1009 13.2074ZM18.1009 15.0074C18.1009 14.676 18.3695 14.4074 18.7009 14.4074C19.0322 14.4074 19.3009 14.676 19.3009 15.0074V16.4174L18.1009 17.6174V15.0074ZM14.8009 16.2074C14.8009 15.876 15.0695 15.6074 15.4009 15.6074C15.7323 15.6074 16.0009 15.876 16.0009 16.2074C16.0009 16.5388 15.7323 16.8074 15.4009 16.8074C15.0695 16.8074 14.8009 16.5388 14.8009 16.2074ZM15.8248 17.5835C15.9378 17.6956 16.0013 17.8482 16.0009 18.0074V19.7174L14.8009 20.9174V18.0074C14.8012 17.7649 14.9474 17.5465 15.1714 17.4538C15.3954 17.361 15.6532 17.4122 15.8248 17.5835Z"
          fill="#DA3636"
          stroke-width="0"/>
      <path
          d="M12.0878 13.5811C12.2049 13.6982 12.3948 13.6982 12.512 13.5811L14.795 11.2981C14.9081 11.1851 14.9127 11.0033 14.8055 10.8847L14.5469 10.6H16.5689V12.8251L16.2326 12.4561C16.1775 12.3955 16.1 12.3601 16.0181 12.358C15.9356 12.3532 15.8552 12.3854 15.7988 12.4459L13.5878 14.6569C13.5098 14.7322 13.4785 14.8438 13.506 14.9487C13.5334 15.0535 13.6154 15.1354 13.7202 15.1629C13.8251 15.1904 13.9367 15.1591 14.012 15.0811L16.0007 13.0924L16.1252 13.2292C16.2919 13.4124 16.5541 13.4743 16.7851 13.385C17.0162 13.2958 17.1686 13.0737 17.1689 12.826V10.6C17.1689 10.2686 16.9003 10 16.5689 10H14.5469C14.3092 9.99807 14.0934 10.1384 13.9988 10.3564C13.9006 10.573 13.9413 10.8273 14.1023 11.0023L14.1689 11.0758L12.0878 13.1569C11.9707 13.2741 11.9707 13.464 12.0878 13.5811Z"
          fill="#DA3636"
          stroke-width="0"/>
    </svg>
    <!-- Displaying water fountain icon on the map -->
    <svg width="35" height="52" viewBox="0 0 35 52" fill="none" xmlns="http://www.w3.org/2000/svg" id="fountain" x="660" y="770">
      <path
          d="M13.0369 22.7613C14.2897 23.9784 15.7774 24.587 17.5 24.587C19.2226 24.587 20.6711 23.9784 21.8456 22.7613C23.0984 21.4629 23.7248 19.9212 23.7248 18.136C23.7248 16.3508 23.0984 14.8496 21.8456 13.6324C20.6711 12.3341 19.2226 11.6849 17.5 11.6849C15.7774 11.6849 14.2897 12.3341 13.0369 13.6324C11.8624 14.8496 11.2752 16.3508 11.2752 18.136C11.2752 19.9212 11.8624 21.4629 13.0369 22.7613ZM5.05034 5.35559C8.49553 1.7852 12.6454 0 17.5 0C22.3546 0 26.4653 1.7852 29.8322 5.35559C33.2774 8.84484 35 13.105 35 18.136C35 20.6515 34.3736 23.5321 33.1208 26.778C31.9463 30.0238 30.4978 33.0667 28.7752 35.9068C27.0526 38.7469 25.33 41.4247 23.6074 43.9402C21.9631 46.3745 20.5537 48.322 19.3792 49.7826L17.5 51.8519C17.0302 51.2838 16.4038 50.5535 15.6208 49.6609C14.8378 48.6872 13.4284 46.8208 11.3926 44.0619C9.35682 41.2218 7.55593 38.5034 5.98993 35.9068C4.50224 33.229 3.13199 30.2266 1.87919 26.8997C0.626398 23.5727 0 20.6515 0 18.136C0 13.105 1.68344 8.84484 5.05034 5.35559Z"
          fill="#08648B"
          stroke-width="0"/>
      <path
          d="M17.5 32.9412C24.4036 32.9412 30 26.6863 30 18.9706C30 11.2549 24.4036 5 17.5 5C10.5964 5 5 11.2549 5 18.9706C5 26.6863 10.5964 32.9412 17.5 32.9412Z"
          fill="#F7D6D6"
          stroke-width="0"/>
      <path
          d="M18.2752 19.3116C17.9172 18.9638 17.4922 18.79 17 18.79C16.5078 18.79 16.094 18.9638 15.7584 19.3116C15.4004 19.6826 15.2215 20.1231 15.2215 20.6331C15.2215 21.1432 15.4004 21.5721 15.7584 21.9198C16.094 22.2908 16.5078 22.4763 17 22.4763C17.4922 22.4763 17.9172 22.2908 18.2752 21.9198C18.6107 21.5721 18.7785 21.1432 18.7785 20.6331C18.7785 20.1231 18.6107 19.6826 18.2752 19.3116ZM20.557 24.2847C19.5727 25.3048 18.387 25.8148 17 25.8148C15.613 25.8148 14.4385 25.3048 13.4765 24.2847C12.4922 23.2877 12 22.0705 12 20.6331C12 19.9144 12.179 19.0914 12.5369 18.164C12.8725 17.2366 13.2864 16.3672 13.7785 15.5557C14.2707 14.7443 14.7629 13.9792 15.255 13.2605C15.7248 12.565 16.1275 12.0085 16.4631 11.5912L17 11C17.1342 11.1623 17.3132 11.371 17.5369 11.626C17.7606 11.9042 18.1633 12.4374 18.745 13.2257C19.3266 14.0372 19.8412 14.8138 20.2886 15.5557C20.7136 16.3208 21.1051 17.1786 21.4631 18.1292C21.821 19.0798 22 19.9144 22 20.6331C22 22.0705 21.519 23.2877 20.557 24.2847Z"
          fill="#82CBEB"
          stroke-width="0"/>
      <path
          d="M17.0001 24.4118C18.9726 24.4118 20.5716 22.6247 20.5716 20.4202C20.5716 18.2157 18.9726 16.4286 17.0001 16.4286C15.0277 16.4286 13.4287 18.2157 13.4287 20.4202C13.4287 22.6247 15.0277 24.4118 17.0001 24.4118Z"
          fill="#82CBEB"
          stroke-width="0"/>
    </svg>
    <!-- Displaying printer icon on the map -->
    <svg width="35" height="52" viewBox="0 0 35 52" fill="none" xmlns="http://www.w3.org/2000/svg" id="printer" x="520" y="580">
      <path
          d="M13.0369 22.7613C14.2897 23.9784 15.7774 24.587 17.5 24.587C19.2226 24.587 20.6711 23.9784 21.8456 22.7613C23.0984 21.4629 23.7248 19.9212 23.7248 18.136C23.7248 16.3508 23.0984 14.8496 21.8456 13.6324C20.6711 12.3341 19.2226 11.6849 17.5 11.6849C15.7774 11.6849 14.2897 12.3341 13.0369 13.6324C11.8624 14.8496 11.2752 16.3508 11.2752 18.136C11.2752 19.9212 11.8624 21.4629 13.0369 22.7613ZM5.05034 5.35559C8.49553 1.7852 12.6454 0 17.5 0C22.3546 0 26.4653 1.7852 29.8322 5.35559C33.2774 8.84484 35 13.105 35 18.136C35 20.6515 34.3736 23.5321 33.1208 26.778C31.9463 30.0238 30.4978 33.0667 28.7752 35.9068C27.0526 38.7469 25.33 41.4247 23.6074 43.9402C21.9631 46.3745 20.5537 48.322 19.3792 49.7826L17.5 51.8519C17.0302 51.2838 16.4038 50.5535 15.6208 49.6609C14.8378 48.6872 13.4284 46.8208 11.3926 44.0619C9.35682 41.2218 7.55593 38.5034 5.98993 35.9068C4.50224 33.229 3.13199 30.2266 1.87919 26.8997C0.626398 23.5727 0 20.6515 0 18.136C0 13.105 1.68344 8.84484 5.05034 5.35559Z"
          fill="#666666"
          stroke-width="0"/>
      <path
          d="M17.5 32.9412C24.4036 32.9412 30 26.6863 30 18.9706C30 11.2549 24.4036 5 17.5 5C10.5964 5 5 11.2549 5 18.9706C5 26.6863 10.5964 32.9412 17.5 32.9412Z"
          fill="#F7D6D6"
          stroke-width="0"/>
      <path
          d="M23 10V13.9844H11V10H23ZM23.2812 18.7188C23.4688 18.9062 23.7031 19 23.9844 19C24.2656 19 24.5 18.9062 24.6875 18.7188C24.9062 18.5312 25.0156 18.2969 25.0156 18.0156C25.0156 17.7344 24.9062 17.5 24.6875 17.3125C24.5 17.0938 24.2656 16.9844 23.9844 16.9844C23.7031 16.9844 23.4688 17.0938 23.2812 17.3125C23.0938 17.5 23 17.7344 23 18.0156C23 18.2969 23.0938 18.5312 23.2812 18.7188ZM20.9844 25.9844V21.0156H13.0156V25.9844H20.9844ZM23.9844 15.0156C24.7969 15.0156 25.5 15.3125 26.0938 15.9062C26.6875 16.5 26.9844 17.2031 26.9844 18.0156V24.0156H23V28H11V24.0156H7.01562V18.0156C7.01562 17.2031 7.3125 16.5 7.90625 15.9062C8.5 15.3125 9.20312 15.0156 10.0156 15.0156H23.9844Z"
          fill="#DA3636"
          stroke-width="0"/>
    </svg>
    <!-- Displaying study room icon on the map -->
    <svg width="35" height="52" viewBox="0 0 35 52" fill="none" xmlns="http://www.w3.org/2000/svg" id="study" x="660" y="150">
      <path
          d="M13.0369 22.7613C14.2897 23.9784 15.7774 24.587 17.5 24.587C19.2226 24.587 20.6711 23.9784 21.8456 22.7613C23.0984 21.4629 23.7248 19.9212 23.7248 18.136C23.7248 16.3508 23.0984 14.8496 21.8456 13.6324C20.6711 12.3341 19.2226 11.6849 17.5 11.6849C15.7774 11.6849 14.2897 12.3341 13.0369 13.6324C11.8624 14.8496 11.2752 16.3508 11.2752 18.136C11.2752 19.9212 11.8624 21.4629 13.0369 22.7613ZM5.05034 5.35559C8.49553 1.7852 12.6454 0 17.5 0C22.3546 0 26.4653 1.7852 29.8322 5.35559C33.2774 8.84484 35 13.105 35 18.136C35 20.6515 34.3736 23.5321 33.1208 26.778C31.9463 30.0238 30.4978 33.0667 28.7752 35.9068C27.0526 38.7469 25.33 41.4247 23.6074 43.9402C21.9631 46.3745 20.5537 48.322 19.3792 49.7826L17.5 51.8519C17.0302 51.2838 16.4038 50.5535 15.6208 49.6609C14.8378 48.6872 13.4284 46.8208 11.3926 44.0619C9.35682 41.2218 7.55593 38.5034 5.98993 35.9068C4.50224 33.229 3.13199 30.2266 1.87919 26.8997C0.626398 23.5727 0 20.6515 0 18.136C0 13.105 1.68344 8.84484 5.05034 5.35559Z"
          fill="#666666"
          stroke-width="0"/>
      <path
          d="M17.5 32.9412C24.4036 32.9412 30 26.6863 30 18.9706C30 11.2549 24.4036 5 17.5 5C10.5964 5 5 11.2549 5 18.9706C5 26.6863 10.5964 32.9412 17.5 32.9412Z"
          fill="#F7D6D6"
          stroke-width="0"/>
      <path
          d="M15.375 18.7383C15.862 18.7383 16.4264 18.8086 17.0684 18.9492C15.9395 19.6055 15.375 20.4727 15.375 21.5508V23.2383H10.4277V21.375C10.4277 20.8359 10.7266 20.3555 11.3242 19.9336C11.944 19.5117 12.6191 19.207 13.3496 19.0195C14.0801 18.832 14.7552 18.7383 15.375 18.7383ZM18.1309 20.0742C19.0163 19.6992 19.8685 19.5117 20.6875 19.5117C21.5065 19.5117 22.3587 19.6992 23.2441 20.0742C24.1296 20.4492 24.5723 20.9414 24.5723 21.5508V23.2383H16.8027V21.5508C16.8027 20.9414 17.2454 20.4492 18.1309 20.0742ZM16.8691 16.5938C16.4486 17.0391 15.9505 17.2617 15.375 17.2617C14.7995 17.2617 14.3014 17.0391 13.8809 16.5938C13.4603 16.1484 13.25 15.6211 13.25 15.0117C13.25 14.4023 13.4603 13.875 13.8809 13.4297C14.3014 12.9844 14.7995 12.7617 15.375 12.7617C15.9505 12.7617 16.4486 12.9844 16.8691 13.4297C17.2897 13.875 17.5 14.4023 17.5 15.0117C17.5 15.6211 17.2897 16.1484 16.8691 16.5938ZM21.916 17.4727C21.584 17.8242 21.1745 18 20.6875 18C20.2005 18 19.7799 17.8242 19.4258 17.4727C19.0938 17.0977 18.9277 16.6523 18.9277 16.1367C18.9277 15.6211 19.0938 15.1758 19.4258 14.8008C19.7799 14.4258 20.2005 14.2383 20.6875 14.2383C21.1745 14.2383 21.584 14.4258 21.916 14.8008C22.2702 15.1758 22.4473 15.6211 22.4473 16.1367C22.4473 16.6523 22.2702 17.0977 21.916 17.4727Z"
          fill="#DA3636"
          stroke-width="0"/>
    </svg>
    <svg width="35" height="52" viewBox="0 0 35 52" fill="none" xmlns="http://www.w3.org/2000/svg" id="study" x="780" y="770">
      <path
          d="M13.0369 22.7613C14.2897 23.9784 15.7774 24.587 17.5 24.587C19.2226 24.587 20.6711 23.9784 21.8456 22.7613C23.0984 21.4629 23.7248 19.9212 23.7248 18.136C23.7248 16.3508 23.0984 14.8496 21.8456 13.6324C20.6711 12.3341 19.2226 11.6849 17.5 11.6849C15.7774 11.6849 14.2897 12.3341 13.0369 13.6324C11.8624 14.8496 11.2752 16.3508 11.2752 18.136C11.2752 19.9212 11.8624 21.4629 13.0369 22.7613ZM5.05034 5.35559C8.49553 1.7852 12.6454 0 17.5 0C22.3546 0 26.4653 1.7852 29.8322 5.35559C33.2774 8.84484 35 13.105 35 18.136C35 20.6515 34.3736 23.5321 33.1208 26.778C31.9463 30.0238 30.4978 33.0667 28.7752 35.9068C27.0526 38.7469 25.33 41.4247 23.6074 43.9402C21.9631 46.3745 20.5537 48.322 19.3792 49.7826L17.5 51.8519C17.0302 51.2838 16.4038 50.5535 15.6208 49.6609C14.8378 48.6872 13.4284 46.8208 11.3926 44.0619C9.35682 41.2218 7.55593 38.5034 5.98993 35.9068C4.50224 33.229 3.13199 30.2266 1.87919 26.8997C0.626398 23.5727 0 20.6515 0 18.136C0 13.105 1.68344 8.84484 5.05034 5.35559Z"
          fill="#666666"
          stroke-width="0"/>
      <path
          d="M17.5 32.9412C24.4036 32.9412 30 26.6863 30 18.9706C30 11.2549 24.4036 5 17.5 5C10.5964 5 5 11.2549 5 18.9706C5 26.6863 10.5964 32.9412 17.5 32.9412Z"
          fill="#F7D6D6"
          stroke-width="0"/>
      <path
          d="M15.375 18.7383C15.862 18.7383 16.4264 18.8086 17.0684 18.9492C15.9395 19.6055 15.375 20.4727 15.375 21.5508V23.2383H10.4277V21.375C10.4277 20.8359 10.7266 20.3555 11.3242 19.9336C11.944 19.5117 12.6191 19.207 13.3496 19.0195C14.0801 18.832 14.7552 18.7383 15.375 18.7383ZM18.1309 20.0742C19.0163 19.6992 19.8685 19.5117 20.6875 19.5117C21.5065 19.5117 22.3587 19.6992 23.2441 20.0742C24.1296 20.4492 24.5723 20.9414 24.5723 21.5508V23.2383H16.8027V21.5508C16.8027 20.9414 17.2454 20.4492 18.1309 20.0742ZM16.8691 16.5938C16.4486 17.0391 15.9505 17.2617 15.375 17.2617C14.7995 17.2617 14.3014 17.0391 13.8809 16.5938C13.4603 16.1484 13.25 15.6211 13.25 15.0117C13.25 14.4023 13.4603 13.875 13.8809 13.4297C14.3014 12.9844 14.7995 12.7617 15.375 12.7617C15.9505 12.7617 16.4486 12.9844 16.8691 13.4297C17.2897 13.875 17.5 14.4023 17.5 15.0117C17.5 15.6211 17.2897 16.1484 16.8691 16.5938ZM21.916 17.4727C21.584 17.8242 21.1745 18 20.6875 18C20.2005 18 19.7799 17.8242 19.4258 17.4727C19.0938 17.0977 18.9277 16.6523 18.9277 16.1367C18.9277 15.6211 19.0938 15.1758 19.4258 14.8008C19.7799 14.4258 20.2005 14.2383 20.6875 14.2383C21.1745 14.2383 21.584 14.4258 21.916 14.8008C22.2702 15.1758 22.4473 15.6211 22.4473 16.1367C22.4473 16.6523 22.2702 17.0977 21.916 17.4727Z"
          fill="#DA3636"
          stroke-width="0"/>
    </svg>
  </g>
</svg>
