<svg
    width="141"
    height="161"
    viewBox="0 0 141 161"
    fill="none"
    xmlns="http://www.w3.org/2000/svg">

    <path
        d="M99.1777 1.21484V95.8574H1.96484V127.906V153.664H16.6113V159.727H50.4512V127.906H99.1777V128.916H132.779V81.5723H139.346V1.21484H132.779H99.1777Z"
        fill="#F7D6D6"
        stroke="black"
        stroke-width="2" />
    <path
        d="M50.452 127.906H16.6119V159.726H50.452V127.906Z"
        fill="#DA3636"
        stroke="black"
        stroke-width="2" />
    <path
        d="M99.1777 1.21484V128.916H132.779V81.5723H139.346V1.21484H132.779H99.1777Z"
        fill="#DA3636"
        stroke="black"
        stroke-width="2" />
    <path
        d="M16.6119 127.906H1.96466V153.665H16.6119V127.906Z"
        fill="#DA3636"
        stroke="black"
        stroke-width="2" />
    <path
        d="M37.0369 114.761C38.2897 115.978 39.7774 116.587 41.5 116.587C43.2226 116.587 44.6711 115.978 45.8456 114.761C47.0984 113.463 47.7248 111.921 47.7248 110.136C47.7248 108.351 47.0984 106.85 45.8456 105.632C44.6711 104.334 43.2226 103.685 41.5 103.685C39.7774 103.685 38.2897 104.334 37.0369 105.632C35.8624 106.85 35.2752 108.351 35.2752 110.136C35.2752 111.921 35.8624 113.463 37.0369 114.761ZM29.0503 97.3556C32.4955 93.7852 36.6454 92 41.5 92C46.3546 92 50.4653 93.7852 53.8322 97.3556C57.2774 100.845 59 105.105 59 110.136C59 112.651 58.3736 115.532 57.1208 118.778C55.9463 122.024 54.4978 125.067 52.7752 127.907C51.0526 130.747 49.33 133.425 47.6074 135.94C45.9631 138.375 44.5537 140.322 43.3792 141.783L41.5 143.852C41.0302 143.284 40.4038 142.554 39.6208 141.661C38.8378 140.687 37.4284 138.821 35.3926 136.062C33.3568 133.222 31.5559 130.503 29.9899 127.907C28.5022 125.229 27.132 122.227 25.8792 118.9C24.6264 115.573 24 112.651 24 110.136C24 105.105 25.6834 100.845 29.0503 97.3556Z"
        fill="#666666" />
    <path
        d="M41.5 123.941C48.4036 123.941 54 117.686 54 109.971C54 102.255 48.4036 96 41.5 96C34.5964 96 29 102.255 29 109.971C29 117.686 34.5964 123.941 41.5 123.941Z"
        fill="#F7D6D6" />
    <path
        d="M50.2188 102.305H45.6094C45.1779 102.305 44.8282 102.654 44.8282 103.086V106.914H41C40.5686 106.914 40.2188 107.264 40.2188 107.695V111.523H36.3907C35.9592 111.523 35.6094 111.873 35.6094 112.305V116.133H31.7812C31.3498 116.133 31 116.483 31 116.914C31 117.345 31.3498 117.695 31.7812 117.695H36.3907C36.5978 117.695 36.7966 117.613 36.9431 117.466C37.0896 117.32 37.1719 117.121 37.1719 116.914L37.1719 113.086H41C41.2072 113.086 41.406 113.004 41.5525 112.857C41.699 112.711 41.7813 112.512 41.7813 112.305L41.7812 108.477H45.6094C45.8166 108.477 46.0153 108.394 46.1618 108.248C46.3083 108.101 46.3906 107.902 46.3906 107.695V103.867H50.2188C50.6502 103.867 51 103.517 51 103.086C51 102.654 50.6502 102.305 50.2188 102.305Z"
        fill="#DA3636" />
</svg>