<svg
    width="628"
    height="299"
    viewBox="0 0 628 299"
    fill="none"
    xmlns="http://www.w3.org/2000/svg">

    <path
        d="M37.4277 1.28516V101.285H1.71484V147H37.4277V297.715H339.463V124.961H438.457V130.391H486.945V157.16H503.611V297.824H558.16V157.16V127.865H590.285H623.82V85.5723H626.346V12H590.285V1.28516H37.4277Z"
        fill="#F7D6D6"
        stroke="black"
        stroke-width="2" />
    <path
        d="M87.9341 124.961H37.4277V183.929H87.9341V124.961Z"
        fill="#DA3636"
        stroke="black"
        stroke-width="2" />
    <path
        d="M87.9341 183.929H37.4277V244.033H87.9341V183.929Z"
        fill="#DA3636"
        stroke="black"
        stroke-width="2" />
    <path
        d="M37.4277 244.033V297.715H140.967V250.852H106.117V244.033H37.4277Z"
        fill="#DA3636"
        stroke="black"
        stroke-width="2" />
    <path
        d="M140.967 210.445H106.117V250.852H140.967V210.445Z"
        fill="#DA3636"
        stroke="black"
        stroke-width="2" />
    <path
        d="M140.967 169.534H106.117V210.445H140.967V169.534Z"
        fill="#DA3636"
        stroke="black"
        stroke-width="2" />
    <path
        d="M140.967 124.961H106.117V169.534H140.967V124.961Z"
        fill="#DA3636"
        stroke="black"
        stroke-width="2" />
    <path
        d="M140.967 157.664V297.715H291.984V157.664H264.035V162.535H225.465V157.664H206.893V162.535H186V157.664H140.967Z"
        fill="#DA3636"
        stroke="black"
        stroke-width="2" />
    <path
        d="M225.464 143.429H206.893V157.665H225.464V143.429Z"
        fill="#DA3636"
        stroke="black"
        stroke-width="2" />
    <path
        d="M206.893 143.429H186V162.536H206.893V143.429Z"
        fill="#DA3636"
        stroke="black"
        stroke-width="2" />
    <path
        d="M264.036 143.429H225.464V162.536H264.036V143.429Z"
        fill="#DA3636"
        stroke="black"
        stroke-width="2" />
    <path
        d="M503.611 130.391H486.945V157.16H503.611V130.391Z"
        fill="#DA3636"
        stroke="black"
        stroke-width="2" />
    <path
        d="M541.997 137.176H503.611V164.231H541.997V137.176Z"
        fill="#DA3636"
        stroke="black"
        stroke-width="2" />
    <path
        d="M541.997 164.231H503.611V223.83H541.997V164.231Z"
        fill="#DA3636"
        stroke="black"
        stroke-width="2" />
    <path
        d="M541.997 223.83H503.611V297.824H541.997V223.83Z"
        fill="#DA3636"
        stroke="black"
        stroke-width="2" />
    <path
        d="M590.285 12V85.5723V101.854H623.82V85.5723H626.346V12H623.82H590.285Z"
        fill="#DA3636"
        stroke="black"
        stroke-width="2" />
    <path
        d="M590.285 58.9224H555.887V97.4976H590.285V58.9224Z"
        fill="#DA3636"
        stroke="black"
        stroke-width="2" />
    <path
        d="M555.887 66.246H479.116V97.4976H555.887V66.246Z"
        fill="#DA3636"
        stroke="black"
        stroke-width="2" />
    <path
        d="M538.967 1.28516V66.2461H555.887V58.9219H590.285V1.28516H555.887H538.967Z"
        fill="#DA3636"
        stroke="black"
        stroke-width="2" />
    <path
        d="M538.967 1.28516H479.116V44.2751H538.967V1.28516Z"
        fill="#DA3636"
        stroke="black"
        stroke-width="2" />
    <path
        d="M451.589 60.4376H411.183V97.4975H451.589V60.4376Z"
        fill="#DA3636"
        stroke="black"
        stroke-width="2" />
    <path
        d="M411.183 60.4376H338.199V97.4975H411.183V60.4376Z"
        fill="#DA3636"
        stroke="black"
        stroke-width="2" />
    <path
        d="M389.97 1.28516H338.199V60.4376H389.97V1.28516Z"
        fill="#DA3636"
        stroke="black"
        stroke-width="2" />
    <path
        d="M389.969 1.28516V60.4375H451.59V66.2461V97.498H479.115V66.2461H538.967V44.2754H479.115V1.28516H389.969Z"
        fill="#DA3636"
        stroke="black"
        stroke-width="2" />
    <path d="M338.199 43.0125H307.137V97.4976H338.199V43.0125Z"
        fill="#DA3636"
        stroke="black"
        stroke-width="2" />
    <path
        d="M288.955 1.28516V43.0117V63.9727H307.137V43.0117H338.199V1.28516H288.955Z"
        fill="#DA3636"
        stroke="black"
        stroke-width="2" />
    <path
        d="M288.955 1.28516V43.0117V63.9727H270.773V43.0117H239.711V1.28516H288.955Z"
        fill="#DA3636"
        stroke="black"
        stroke-width="2" />
    <path
        d="M307.137 63.9727H270.773V97.4976H307.137V63.9727Z"
        fill="#DA3636"
        stroke="black"
        stroke-width="2" />
    <path
        d="M270.773 43.0117H239.711V97.4975H270.773V43.0117Z"
        fill="#DA3636"
        stroke="black"
        stroke-width="2" />
    <path
        d="M239.711 43.0117H214.203V70.7916H239.711V43.0117Z"
        fill="#DA3636"
        stroke="black"
        stroke-width="2" />
    <path
        d="M239.711 70.7916H214.203V97.4975H239.711V70.7916Z"
        fill="#DA3636"
        stroke="black"
        stroke-width="2" />
    <path
        d="M239.711 1.28516H189.454V43.0117H239.711V1.28516Z"
        fill="#DA3636"
        stroke="black"
        stroke-width="2" />
    <path
        d="M214.203 43.0117H189.454V97.4976H214.203V43.0117Z"
        fill="#DA3636"
        stroke="black"
        stroke-width="2" />
    <path
        d="M189.454 59.1749H139.452V97.4975H189.454V59.1749Z"
        fill="#DA3636"
        stroke="black"
        stroke-width="2" />
    <path
        d="M189.454 1.28516H139.452V59.1749H189.454V1.28516Z"
        fill="#DA3636"
        stroke="black"
        stroke-width="2" />
    <path
        d="M87.6816 1.28516V63.7207H105.611V41.498H139.451V1.28516H87.6816Z"
        fill="#DA3636"
        stroke="black"
        stroke-width="2" />
    <path
        d="M139.452 41.498H105.611V97.4975H139.452V41.498Z"
        fill="#DA3636" stroke="black"
        stroke-width="2" />
    <path
        d="M37.4277 1.28516V41.75H70.7617V63.7207H87.6816V1.28516H37.4277Z"
        fill="#DA3636"
        stroke="black"
        stroke-width="2" />
    <path
        d="M105.611 63.7207H70.7617V97.4975H105.611V63.7207Z"
        fill="#DA3636"
        stroke="black"
        stroke-width="2" />
    <path
        d="M70.7617 41.75H37.4277V97.4976H70.7617V41.75Z"
        fill="#DA3636"
        stroke="black"
        stroke-width="2" />
    <path
        d="M604.037 64.7613C605.29 65.9784 606.777 66.587 608.5 66.587C610.223 66.587 611.671 65.9784 612.846 64.7613C614.098 63.4629 614.725 61.9212 614.725 60.136C614.725 58.3508 614.098 56.8496 612.846 55.6324C611.671 54.3341 610.223 53.6849 608.5 53.6849C606.777 53.6849 605.29 54.3341 604.037 55.6324C602.862 56.8496 602.275 58.3508 602.275 60.136C602.275 61.9212 602.862 63.4629 604.037 64.7613ZM596.05 47.3556C599.496 43.7852 603.645 42 608.5 42C613.355 42 617.465 43.7852 620.832 47.3556C624.277 50.8448 626 55.105 626 60.136C626 62.6515 625.374 65.5321 624.121 68.778C622.946 72.0238 621.498 75.0667 619.775 77.9068C618.053 80.7469 616.33 83.4247 614.607 85.9402C612.963 88.3745 611.554 90.322 610.379 91.7826L608.5 93.8519C608.03 93.2838 607.404 92.5535 606.621 91.6609C605.838 90.6872 604.428 88.8208 602.393 86.0619C600.357 83.2218 598.556 80.5034 596.99 77.9068C595.502 75.229 594.132 72.2266 592.879 68.8997C591.626 65.5727 591 62.6515 591 60.136C591 55.105 592.683 50.8448 596.05 47.3556Z"
        fill="#666666" />
    <path
        d="M608.5 73.9412C615.404 73.9412 621 67.6863 621 59.9706C621 52.2549 615.404 46 608.5 46C601.596 46 596 52.2549 596 59.9706C596 67.6863 601.596 73.9412 608.5 73.9412Z"
        fill="#F7D6D6" />
    <path
        d="M617.219 52.3047H612.609C612.178 52.3047 611.828 52.6544 611.828 53.0859V56.9141H608C607.569 56.9141 607.219 57.2638 607.219 57.6953V61.5234H603.391C602.959 61.5234 602.609 61.8732 602.609 62.3047V66.1328H598.781C598.35 66.1328 598 66.4826 598 66.9141C598 67.3455 598.35 67.6953 598.781 67.6953H603.391C603.598 67.6953 603.797 67.613 603.943 67.4665C604.09 67.32 604.172 67.1212 604.172 66.9141L604.172 63.0859H608C608.207 63.0859 608.406 63.0036 608.552 62.8571C608.699 62.7106 608.781 62.5119 608.781 62.3047L608.781 58.4766H612.609C612.817 58.4766 613.015 58.3943 613.162 58.2477C613.308 58.1012 613.391 57.9025 613.391 57.6953V53.8672H617.219C617.65 53.8672 618 53.5174 618 53.0859C618 52.6544 617.65 52.3047 617.219 52.3047Z"
        fill="#DA3636" />
    <path
        d="M49.0369 52.7613C50.2897 53.9784 51.7774 54.587 53.5 54.587C55.2226 54.587 56.6711 53.9784 57.8456 52.7613C59.0984 51.4629 59.7248 49.9212 59.7248 48.136C59.7248 46.3508 59.0984 44.8496 57.8456 43.6324C56.6711 42.3341 55.2226 41.6849 53.5 41.6849C51.7774 41.6849 50.2897 42.3341 49.0369 43.6324C47.8624 44.8496 47.2752 46.3508 47.2752 48.136C47.2752 49.9212 47.8624 51.4629 49.0369 52.7613ZM41.0503 35.3556C44.4955 31.7852 48.6454 30 53.5 30C58.3546 30 62.4653 31.7852 65.8322 35.3556C69.2774 38.8448 71 43.105 71 48.136C71 50.6515 70.3736 53.5321 69.1208 56.778C67.9463 60.0238 66.4978 63.0667 64.7752 65.9068C63.0526 68.7469 61.33 71.4247 59.6074 73.9402C57.9631 76.3745 56.5537 78.322 55.3792 79.7826L53.5 81.8519C53.0302 81.2838 52.4038 80.5535 51.6208 79.6609C50.8378 78.6872 49.4284 76.8208 47.3926 74.0619C45.3568 71.2218 43.5559 68.5034 41.9899 65.9068C40.5022 63.229 39.132 60.2266 37.8792 56.8997C36.6264 53.5727 36 50.6515 36 48.136C36 43.105 37.6834 38.8448 41.0503 35.3556Z"
        fill="#08648B" />
    <path
        d="M53.5 62.9412C60.4036 62.9412 66 56.6863 66 48.9706C66 41.2549 60.4036 35 53.5 35C46.5964 35 41 41.2549 41 48.9706C41 56.6863 46.5964 62.9412 53.5 62.9412Z"
        fill="#F7D6D6" />
    <path
        d="M54.0001 38C52.6746 38 51.6001 39.0745 51.6001 40.4C51.6001 41.7255 52.6746 42.8 54.0001 42.8C55.3251 42.7987 56.3988 41.725 56.4001 40.4C56.4001 39.0745 55.3256 38 54.0001 38ZM54.0001 42C53.1165 42 52.4001 41.2837 52.4001 40.4C52.4001 39.5164 53.1165 38.8 54.0001 38.8C54.8838 38.8 55.6001 39.5164 55.6001 40.4C55.6001 41.2837 54.8838 42 54.0001 42Z"
        fill="#DA3636" />
    <path
        d="M55.2 43.6H52.8C51.2543 43.6018 50.0018 44.8544 50 46.4V52C50 52.2209 50.1791 52.4 50.4 52.4H51.6V57.6C51.6 57.8209 51.7791 58 52 58H56C56.2209 58 56.4 57.8209 56.4 57.6V52.4H57.6C57.8209 52.4 58 52.2209 58 52V46.4C57.9982 44.8544 56.7457 43.6018 55.2 43.6ZM57.2 51.6H56.4V46.8H55.6V57.2H54.4V51.6H53.6V57.2H52.4V46.8H51.6V51.6H50.8V46.4C50.8013 45.296 51.696 44.4013 52.8 44.4H55.2C56.304 44.4013 57.1987 45.296 57.2 46.4V51.6Z"
        fill="#DA3636" />
    <path
        d="M119.037 60.7613C120.29 61.9784 121.777 62.587 123.5 62.587C125.223 62.587 126.671 61.9784 127.846 60.7613C129.098 59.4629 129.725 57.9212 129.725 56.136C129.725 54.3508 129.098 52.8496 127.846 51.6324C126.671 50.3341 125.223 49.6849 123.5 49.6849C121.777 49.6849 120.29 50.3341 119.037 51.6324C117.862 52.8496 117.275 54.3508 117.275 56.136C117.275 57.9212 117.862 59.4629 119.037 60.7613ZM111.05 43.3556C114.496 39.7852 118.645 38 123.5 38C128.355 38 132.465 39.7852 135.832 43.3556C139.277 46.8448 141 51.105 141 56.136C141 58.6515 140.374 61.5321 139.121 64.778C137.946 68.0238 136.498 71.0667 134.775 73.9068C133.053 76.7469 131.33 79.4247 129.607 81.9402C127.963 84.3745 126.554 86.322 125.379 87.7826L123.5 89.8519C123.03 89.2838 122.404 88.5535 121.621 87.6609C120.838 86.6872 119.428 84.8208 117.393 82.0619C115.357 79.2218 113.556 76.5034 111.99 73.9068C110.502 71.229 109.132 68.2266 107.879 64.8997C106.626 61.5727 106 58.6515 106 56.136C106 51.105 107.683 46.8448 111.05 43.3556Z"
        fill="#08648B" />
    <path
        d="M123.5 70.9412C130.404 70.9412 136 64.6863 136 56.9706C136 49.2549 130.404 43 123.5 43C116.596 43 111 49.2549 111 56.9706C111 64.6863 116.596 70.9412 123.5 70.9412Z"
        fill="#F7D6D6" />
    <path
        d="M123.84 45C122.382 45 121.2 46.182 121.2 47.64C121.201 49.0975 122.383 50.2786 123.84 50.28C125.298 50.28 126.48 49.0981 126.48 47.64C126.48 46.182 125.298 45 123.84 45ZM123.84 49.4C122.868 49.4 122.08 48.612 122.08 47.64C122.08 46.668 122.868 45.88 123.84 45.88C124.812 45.88 125.6 46.668 125.6 47.64C125.6 48.612 124.812 49.4 123.84 49.4Z"
        fill="#DA3636" />
    <path
        d="M128.662 60.2738L126.022 51.4737C125.966 51.2876 125.794 51.16 125.6 51.16H122.08C121.886 51.16 121.714 51.2876 121.658 51.4737L119.018 60.2738C118.978 60.4075 119.004 60.5523 119.088 60.664C119.171 60.7747 119.302 60.8401 119.44 60.8401H121.2V66.56C121.2 66.8031 121.397 67 121.64 67H126.04C126.283 67 126.48 66.8031 126.48 66.56V60.8401H128.24C128.483 60.8401 128.68 60.6431 128.68 60.4001C128.68 60.3573 128.674 60.3147 128.662 60.2738ZM126.04 59.96C125.797 59.96 125.6 60.157 125.6 60.4V66.1201H124.28V59.96H123.4V66.1201H122.08V60.4C122.08 60.157 121.883 59.96 121.64 59.96H120.031L122.407 52.04H125.273L127.649 59.96H126.04Z"
        fill="#DA3636" />
</svg>
