<svg
    width="1024"
    height="1024"
    viewBox="0 0 1024 1024"
    fill="none"
    xmlns="http://www.w3.org/2000/svg">

    <path
        d="M208.092 17.8887V119.715H188.572V171.143H205.715V332.572H187.143V381.143H200V456.857H154.285V512.572H102.857V568.285H54.2852V629.715H31.4277V856.857H60V924H30V965.428H355.715V924V856.857V805.807H392.949V826.01H830.346H851.785V566.143H935.715H948.215H975.715V525.428H948.215V350.785H935.715V345.428H863.572V91.8574H847.143V122.572H830.346V17.8887H355.715H208.092V17.8887Z"
        fill="#F7D6D6"
        stroke="black"
        stroke-width="2" />
    <path
        d="M98.5714 924H30V965.428H98.5714V924Z"
        fill="#DA3636"
        stroke="black"
        stroke-width="2" />
    <path
        d="M355.715 902.571H298.572V965.428H355.715V902.571Z"
        fill="#DA3636"
        stroke="black"
        stroke-width="2" />
    <path
        d="M355.715 844H298.572V902.571H355.715V844Z"
        fill="#DA3636"
        stroke="black"
        stroke-width="2" />
    <path
        d="M644.286 733.286H595.714V826.01H644.286V733.286Z"
        fill="#DA3636"
        stroke="black"
        stroke-width="2" />
    <path
        d="M644.286 664H595.714V733.286H644.286V664Z"
        fill="#DA3636"
        stroke="black"
        stroke-width="2" />
    <path
        d="M696.429 775.429H644.286V826.01H696.429V775.429Z"
        fill="#DA3636"
        stroke="black"
        stroke-width="2" />
    <path
        d="M644.285 664V775.428H696.428V826.01H752.857V734H727.857V664H644.285Z"
        fill="#DA3636"
        stroke="black"
        stroke-width="2" />
    <path
        d="M727.857 566.143V693.176V734H761.654V693.176H778.322V566.143H761.654H727.857Z"
        fill="#DA3636"
        stroke="black"
        stroke-width="2" />
    <path
        d="M851.785 733.076H792.97V826.01H851.785V733.076Z"
        fill="#DA3636"
        stroke="black"
        stroke-width="2" />
    <path
        d="M851.785 566.143H792.857V623.286H851.785V566.143Z"
        fill="#DA3636"
        stroke="black"
        stroke-width="2" />
    <path
        d="M792.857 623.285V677.518H826.305V733.076H851.785V677.518V623.285H792.857Z"
        fill="#DA3636"
        stroke="black"
        stroke-width="2" />
    <path
        d="M826.305 677.518H792.857V705.297H826.305V677.518Z"
        fill="#DA3636"
        stroke="black"
        stroke-width="2" />
    <path
        d="M792.97 752.774H752.857V826.01H792.97V752.774Z"
        fill="#DA3636"
        stroke="black"
        stroke-width="2" />
    <path
        d="M792.857 413.363H742.967V463.87H792.857V413.363Z"
        fill="#DA3636"
        stroke="black"
        stroke-width="2" />
    <path
        d="M792.857 366.391H742.967V413.363H792.857V366.391Z"
        fill="#DA3636"
        stroke="black"
        stroke-width="2" />
    <path
        d="M792.857 334.823H758.372V366.391H792.857V334.823Z"
        fill="#DA3636"
        stroke="black"
        stroke-width="2" />
    <path
        d="M792.857 266.386H707.612V334.823H792.857V266.386Z"
        fill="#DA3636"
        stroke="black"
        stroke-width="2" />
    <path
        d="M792.857 200.726H707.612V266.386H792.857V200.726Z"
        fill="#DA3636"
        stroke="black"
        stroke-width="2" />
    <path
        d="M847.143 334.571H823.779V381.038H847.143V334.571Z"
        fill="#DA3636"
        stroke="black"
        stroke-width="2" />
    <path
        d="M847.143 183.553H823.779V317.398H847.143V183.553Z"
        fill="#DA3636"
        stroke="black"
        stroke-width="2" />
    <path
        d="M847.143 169.916H823.779V183.553H847.143V169.916Z"
        fill="#DA3636"
        stroke="black"
        stroke-width="2" />
    <path
        d="M847.143 122.572H823.779V169.916H847.143V122.572Z"
        fill="#DA3636"
        stroke="black"
        stroke-width="2" />
    <path
        d="M847.143 317.398H823.779V334.571H847.143V317.398Z"
        fill="#DA3636"
        stroke="black"
        stroke-width="2" />
    <path
        d="M790.178 42.2148H725.29V137.086H790.178V42.2148Z"
        fill="#DA3636"
        stroke="black"
        stroke-width="2" />
    <path
        d="M725.289 42.2148H574.777V137.086H725.289V42.2148Z"
        fill="#DA3636"
        stroke="black"
        stroke-width="2" />
    <path
        d="M661.145 264.871V282.043H642.457V334.824H707.611V264.871H661.145Z"
        fill="#DA3636"
        stroke="black"
        stroke-width="2" />
    <path
        d="M642.457 194.16V244.162H661.145V264.871H707.611V194.16H642.457V194.16Z"
        fill="#DA3636"
        stroke="black"
        stroke-width="2" />
    <path
        d="M661.145 244.162H642.457V282.043H661.145V244.162Z"
        fill="#DA3636"
        stroke="black"
        stroke-width="2" />
    <path
        d="M690.944 167.391H642.457V194.16H690.944V167.391Z"
        fill="#DA3636"
        stroke="black"
        stroke-width="2" />
    <path
        d="M543.462 165.37H394.97V336.591H543.462V165.37Z"
        fill="#DA3636"
        stroke="black"
        stroke-width="2" />
    <path
        d="M320.219 165.371V214.867H242.941V336.592H394.969V165.371H320.219V165.371Z"
        fill="#DA3636"
        stroke="black"
        stroke-width="2" />
    <path
        d="M320.219 165.371H242.941V214.867H320.219V165.371Z"
        fill="#DA3636"
        stroke="black"
        stroke-width="2" />
    <path
        d="M574.777 96.1749H541.947V137.086H574.777V96.1749Z"
        fill="#DA3636"
        stroke="black"
        stroke-width="2" />
    <path
        d="M574.777 42.2148H526.29V96.1749H574.777V42.2148Z"
        fill="#DA3636"
        stroke="black"
        stroke-width="2" />
    <path
        d="M526.289 42.2148H475.782V96.1749H526.289V42.2148Z"
        fill="#DA3636"
        stroke="black"
        stroke-width="2" />
    <path
        d="M475.782 42.2148H425.274V96.1749H475.782V42.2148Z"
        fill="#DA3636"
        stroke="black"
        stroke-width="2" />
    <path
        d="M425.274 42.2148H375.777V96.1749H425.274V42.2148Z"
        fill="#DA3636"
        stroke="black"
        stroke-width="2" />
    <path
    d="M241.426 42.2148V136.076H375.777H393.959V96.1758H375.777V42.2148H241.426V42.2148Z"
        fill="#DA3636"
        stroke="black"
        stroke-width="2" />
    <path
        d="M541.947 96.1749H494.47V137.086H541.947V96.1749Z"
        fill="#DA3636"
        stroke="black"
        stroke-width="2" />
    <path
        d="M208.092 119.715H188.572V171.143H208.092V119.715Z"
        fill="#DA3636"
        stroke="black"
        stroke-width="2" />
    <path
        d="M590.714 176.5H543.462V327.929H590.714V176.5Z"
        fill="#DA3636"
        stroke="black"
        stroke-width="2" />
    <path
        d="M295.714 364.714H242.941V413.286H295.714V364.714Z"
        fill="#DA3636"
        stroke="black"
        stroke-width="2" />
    <path
        d="M295.714 413.286H242.941V461.143H295.714V413.286Z"
        fill="#DA3636"
        stroke="black"
        stroke-width="2" />
    <path
        d="M495 364.714H295.714V461.143H495V364.714Z"
        fill="#DA3636"
        stroke="black"
        stroke-width="2" />
    <path
        d="M200 386.857V456.857H154.285V512.572H200H242.941V386.857H200Z"
        fill="#DA3636"
        stroke="black"
        stroke-width="2" />
    <path
        d="M242.941 512.572H215.357V544.714H242.941V512.572Z"
        fill="#DA3636"
        stroke="black"
        stroke-width="2" />
    <path
        d="M242.941 544.714H215.357V568.285H242.941V544.714Z"
        fill="#DA3636"
        stroke="black"
        stroke-width="2" />
    <path
        d="M154.285 512.572H102.857V568.285H154.285V512.572Z"
        fill="#DA3636"
        stroke="black"
        stroke-width="2" />
    <path
        d="M154.285 512.572V568.285H194.643V629.715H242.941V568.285H215.357V512.572H154.285Z"
        fill="#DA3636"
        stroke="black"
        stroke-width="2" />
    <path
        d="M127.5 568.285V608.285H102.857V629.715H194.643V568.285H127.5Z"
        fill="#DA3636"
        stroke="black"
        stroke-width="2" />
    <path
        d="M127.5 568.285H102.857V608.285H127.5V568.285Z"
        fill="#DA3636"
        stroke="black"
        stroke-width="2" />
    <path
        d="M54.2852 568.285V629.715H31.4277V696.143H91.4277V629.715H102.857V568.285H54.2852V568.285Z"
        fill="#DA3636"
        stroke="black"
        stroke-width="2" />
    <path
        d="M91.4277 696.143H31.4277V730.786H91.4277V696.143Z"
        fill="#DA3636"
        stroke="black"
        stroke-width="2" />
    <path
        d="M91.4277 730.786H31.4277V780.071H91.4277V730.786Z"
        fill="#DA3636"
        stroke="black"
        stroke-width="2" />
    <path
        d="M91.4277 780.071H31.4277V829H91.4277V780.071Z"
        fill="#DA3636"
        stroke="black"
        stroke-width="2" />
    <path
        d="M91.4277 829H31.4277V856.857H91.4277V829Z"
        fill="#DA3636"
        stroke="black"
        stroke-width="2" />
    <path
        d="M690.944 167.391V137.086Z"
        fill="#DA3636" />
    <path
        d="M690.944 167.391V137.086"
        stroke="black"
        stroke-width="2" />
    <path
        d="M508.928 165.37V137.086Z"
        fill="#DA3636" />
    <path
        d="M508.928 165.37V137.086"
        stroke="black"
        stroke-width="2" />
    <path
        d="M274.286 165.371V136.076Z"
        fill="#DA3636" />
    <path
        d="M274.286 165.371V136.076"
        stroke="black"
        stroke-width="2" />
    <path
        d="M241.426 136.076H208.092Z"
        fill="#DA3636" />
    <path
        d="M241.426 136.076H208.092"
        stroke="black"
        stroke-width="2" />
    <path
        d="M242.941 187.571H205.715Z"
        fill="#DA3636" />
    <path
        d="M242.941 187.571H205.715"
        stroke="black"
        stroke-width="2" />
    <path
        d="M187.143 332.572V381.143H200V386.857H205.715V381.143V332.572H187.143Z"
        fill="#DA3636"
        stroke="black"
        stroke-width="2" />
    <path
        d="M242.941 364.714H205.715Z"
        fill="#DA3636" />
    <path
        d="M242.941 364.714H205.715"
        stroke="black"
        stroke-width="2" />
    <path
        d="M823.779 169.916H739.937V200.726"
        stroke="black"
        stroke-width="2" />
    <path
        d="M792.857 463.87V566.143Z"
        fill="#DA3636" />
    <path
        d="M792.857 463.87V566.143"
        stroke="black"
        stroke-width="2" />
    <path
        d="M762.143 463.87V566.143Z"
        fill="#DA3636" />
    <path
        d="M762.143 463.87V566.143"
        stroke="black"
        stroke-width="2" />
    <path
        d="M778.322 566.143H792.857Z"
        fill="#DA3636" />
    <path
        d="M778.322 566.143H792.857"
        stroke="black"
        stroke-width="2" />
    <path
        d="M520 491.143C530.714 530.429 550 558.286 572.857 574"
        stroke="black"
        stroke-width="2" />
    <path
        d="M600.714 589.714C642.5 606.857 685 598.286 717.857 574"
        stroke="black"
        stroke-width="2" />
    <path
        d="M478.928 501.5C485.714 532.929 501.428 559.357 501.428 559.357"
        stroke="black"
        stroke-width="2" />
    <path
        d="M507.5 569.357C528.214 600.071 548.571 614 548.571 614"
        stroke="black"
        stroke-width="2" />
    <path
        d="M671.037 296.761C672.29 297.978 673.777 298.587 675.5 298.587C677.223 298.587 678.671 297.978 679.846 296.761C681.098 295.463 681.725 293.921 681.725 292.136C681.725 290.351 681.098 288.85 679.846 287.632C678.671 286.334 677.223 285.685 675.5 285.685C673.777 285.685 672.29 286.334 671.037 287.632C669.862 288.85 669.275 290.351 669.275 292.136C669.275 293.921 669.862 295.463 671.037 296.761ZM663.05 279.356C666.496 275.785 670.645 274 675.5 274C680.355 274 684.465 275.785 687.832 279.356C691.277 282.845 693 287.105 693 292.136C693 294.651 692.374 297.532 691.121 300.778C689.946 304.024 688.498 307.067 686.775 309.907C685.053 312.747 683.33 315.425 681.607 317.94C679.963 320.375 678.554 322.322 677.379 323.783L675.5 325.852C675.03 325.284 674.404 324.554 673.621 323.661C672.838 322.687 671.428 320.821 669.393 318.062C667.357 315.222 665.556 312.503 663.99 309.907C662.502 307.229 661.132 304.227 659.879 300.9C658.626 297.573 658 294.651 658 292.136C658 287.105 659.683 282.845 663.05 279.356Z"
        fill="#08648B" />
    <path
        d="M675.5 306.941C682.404 306.941 688 300.686 688 292.971C688 285.255 682.404 279 675.5 279C668.596 279 663 285.255 663 292.971C663 300.686 668.596 306.941 675.5 306.941Z"
        fill="#F7D6D6" />
    <path
        d="M675.84 281C674.382 281 673.2 282.182 673.2 283.64C673.201 285.097 674.383 286.279 675.84 286.28C677.298 286.28 678.48 285.098 678.48 283.64C678.48 282.182 677.298 281 675.84 281ZM675.84 285.4C674.868 285.4 674.08 284.612 674.08 283.64C674.08 282.668 674.868 281.88 675.84 281.88C676.812 281.88 677.6 282.668 677.6 283.64C677.6 284.612 676.812 285.4 675.84 285.4Z"
        fill="#DA3636" />
    <path
        d="M680.662 296.274L678.022 287.474C677.966 287.288 677.794 287.16 677.6 287.16H674.08C673.886 287.16 673.714 287.288 673.658 287.474L671.018 296.274C670.978 296.407 671.004 296.552 671.088 296.664C671.171 296.775 671.302 296.84 671.44 296.84H673.2V302.56C673.2 302.803 673.397 303 673.64 303H678.04C678.283 303 678.48 302.803 678.48 302.56V296.84H680.24C680.483 296.84 680.68 296.643 680.68 296.4C680.68 296.357 680.674 296.315 680.662 296.274ZM678.04 295.96C677.797 295.96 677.6 296.157 677.6 296.4V302.12H676.28V295.96H675.4V302.12H674.08V296.4C674.08 296.157 673.883 295.96 673.64 295.96H672.031L674.407 288.04H677.273L679.649 295.96H678.04Z"
        fill="#DA3636" />
    <path
        d="M671.037 221.761C672.29 222.978 673.777 223.587 675.5 223.587C677.223 223.587 678.671 222.978 679.846 221.761C681.098 220.463 681.725 218.921 681.725 217.136C681.725 215.351 681.098 213.85 679.846 212.632C678.671 211.334 677.223 210.685 675.5 210.685C673.777 210.685 672.29 211.334 671.037 212.632C669.862 213.85 669.275 215.351 669.275 217.136C669.275 218.921 669.862 220.463 671.037 221.761ZM663.05 204.356C666.496 200.785 670.645 199 675.5 199C680.355 199 684.465 200.785 687.832 204.356C691.277 207.845 693 212.105 693 217.136C693 219.651 692.374 222.532 691.121 225.778C689.946 229.024 688.498 232.067 686.775 234.907C685.053 237.747 683.33 240.425 681.607 242.94C679.963 245.375 678.554 247.322 677.379 248.783L675.5 250.852C675.03 250.284 674.404 249.554 673.621 248.661C672.838 247.687 671.428 245.821 669.393 243.062C667.357 240.222 665.556 237.503 663.99 234.907C662.502 232.229 661.132 229.227 659.879 225.9C658.626 222.573 658 219.651 658 217.136C658 212.105 659.683 207.845 663.05 204.356Z"
        fill="#08648B" />
    <path
        d="M675.5 231.941C682.404 231.941 688 225.686 688 217.971C688 210.255 682.404 204 675.5 204C668.596 204 663 210.255 663 217.971C663 225.686 668.596 231.941 675.5 231.941Z"
        fill="#F7D6D6" />
    <path
        d="M676 207C674.675 207 673.6 208.075 673.6 209.4C673.6 210.726 674.675 211.8 676 211.8C677.325 211.799 678.399 210.725 678.4 209.4C678.4 208.075 677.326 207 676 207ZM676 211C675.116 211 674.4 210.284 674.4 209.4C674.4 208.516 675.116 207.8 676 207.8C676.884 207.8 677.6 208.516 677.6 209.4C677.6 210.284 676.884 211 676 211Z"
        fill="#DA3636" />
    <path
        d="M677.2 212.6H674.8C673.254 212.602 672.002 213.854 672 215.4V221C672 221.221 672.179 221.4 672.4 221.4H673.6V226.6C673.6 226.821 673.779 227 674 227H678C678.221 227 678.4 226.821 678.4 226.6V221.4H679.6C679.821 221.4 680 221.221 680 221V215.4C679.998 213.854 678.746 212.602 677.2 212.6ZM679.2 220.6H678.4V215.8H677.6V226.2H676.4V220.6H675.6V226.2H674.4V215.8H673.6V220.6H672.8V215.4C672.801 214.296 673.696 213.401 674.8 213.4H677.2C678.304 213.401 679.199 214.296 679.2 215.4V220.6Z"
        fill="#DA3636" />
    <path
        d="M563.037 252.761C564.29 253.978 565.777 254.587 567.5 254.587C569.223 254.587 570.671 253.978 571.846 252.761C573.098 251.463 573.725 249.921 573.725 248.136C573.725 246.351 573.098 244.85 571.846 243.632C570.671 242.334 569.223 241.685 567.5 241.685C565.777 241.685 564.29 242.334 563.037 243.632C561.862 244.85 561.275 246.351 561.275 248.136C561.275 249.921 561.862 251.463 563.037 252.761ZM555.05 235.356C558.496 231.785 562.645 230 567.5 230C572.355 230 576.465 231.785 579.832 235.356C583.277 238.845 585 243.105 585 248.136C585 250.651 584.374 253.532 583.121 256.778C581.946 260.024 580.498 263.067 578.775 265.907C577.053 268.747 575.33 271.425 573.607 273.94C571.963 276.375 570.554 278.322 569.379 279.783L567.5 281.852C567.03 281.284 566.404 280.554 565.621 279.661C564.838 278.687 563.428 276.821 561.393 274.062C559.357 271.222 557.556 268.503 555.99 265.907C554.502 263.229 553.132 260.227 551.879 256.9C550.626 253.573 550 250.651 550 248.136C550 243.105 551.683 238.845 555.05 235.356Z"
        fill="#666666" />
    <path
        d="M567.5 261.941C574.404 261.941 580 255.686 580 247.971C580 240.255 574.404 234 567.5 234C560.596 234 555 240.255 555 247.971C555 255.686 560.596 261.941 567.5 261.941Z"
        fill="#F7D6D6" />
    <path
        d="M576.219 240.305H571.609C571.178 240.305 570.828 240.654 570.828 241.086V244.914H567C566.569 244.914 566.219 245.264 566.219 245.695V249.523H562.391C561.959 249.523 561.609 249.873 561.609 250.305V254.133H557.781C557.35 254.133 557 254.483 557 254.914C557 255.345 557.35 255.695 557.781 255.695H562.391C562.598 255.695 562.797 255.613 562.943 255.466C563.09 255.32 563.172 255.121 563.172 254.914L563.172 251.086H567C567.207 251.086 567.406 251.004 567.552 250.857C567.699 250.711 567.781 250.512 567.781 250.305L567.781 246.477H571.609C571.817 246.477 572.015 246.394 572.162 246.248C572.308 246.101 572.391 245.902 572.391 245.695V241.867H576.219C576.65 241.867 577 241.517 577 241.086C577 240.654 576.65 240.305 576.219 240.305Z"
        fill="#DA3636" />
    <path
        d="M225.037 511.761C226.29 512.978 227.777 513.587 229.5 513.587C231.223 513.587 232.671 512.978 233.846 511.761C235.098 510.463 235.725 508.921 235.725 507.136C235.725 505.351 235.098 503.85 233.846 502.632C232.671 501.334 231.223 500.685 229.5 500.685C227.777 500.685 226.29 501.334 225.037 502.632C223.862 503.85 223.275 505.351 223.275 507.136C223.275 508.921 223.862 510.463 225.037 511.761ZM217.05 494.356C220.496 490.785 224.645 489 229.5 489C234.355 489 238.465 490.785 241.832 494.356C245.277 497.845 247 502.105 247 507.136C247 509.651 246.374 512.532 245.121 515.778C243.946 519.024 242.498 522.067 240.775 524.907C239.053 527.747 237.33 530.425 235.607 532.94C233.963 535.375 232.554 537.322 231.379 538.783L229.5 540.852C229.03 540.284 228.404 539.554 227.621 538.661C226.838 537.687 225.428 535.821 223.393 533.062C221.357 530.222 219.556 527.503 217.99 524.907C216.502 522.229 215.132 519.227 213.879 515.9C212.626 512.573 212 509.651 212 507.136C212 502.105 213.683 497.845 217.05 494.356Z"
        fill="#666666" />
    <path
        d="M229.5 520.941C236.404 520.941 242 514.686 242 506.971C242 499.255 236.404 493 229.5 493C222.596 493 217 499.255 217 506.971C217 514.686 222.596 520.941 229.5 520.941Z"
        fill="#F7D6D6" />
    <path
        d="M236.632 499.002H222.365C221.612 499.002 221 499.614 221 500.367V514.637C221 515.386 221.612 515.999 222.365 515.999H236.635C237.388 515.999 238 515.386 238 514.634V500.367C237.997 499.614 237.384 499.002 236.632 499.002ZM229.027 515.055H222.365C222.134 515.055 221.947 514.868 221.947 514.637V500.367C221.947 500.136 222.134 499.949 222.365 499.949H229.027V515.055ZM236.635 515.052H229.97V499.945H236.632C236.862 499.945 237.05 500.133 237.05 500.364V514.634H237.053C237.053 514.864 236.866 515.052 236.635 515.052Z"
        fill="#DA3636" />
    <path
        d="M227.314 507.865C227.13 507.681 226.832 507.681 226.644 507.865L225.959 508.551V505.308C225.959 505.047 225.748 504.837 225.487 504.837C225.226 504.837 225.015 505.047 225.015 505.308V508.551L224.329 507.868C224.145 507.684 223.847 507.684 223.66 507.868C223.476 508.052 223.476 508.35 223.66 508.537L225.152 510.026C225.246 510.12 225.366 510.163 225.487 510.163C225.607 510.163 225.728 510.116 225.821 510.026L227.314 508.534C227.498 508.35 227.498 508.052 227.314 507.865Z"
        fill="#DA3636" />
    <path
        d="M235.337 506.466L233.845 504.974C233.751 504.88 233.63 504.837 233.51 504.837C233.39 504.837 233.269 504.884 233.175 504.974L231.683 506.466C231.499 506.65 231.499 506.948 231.683 507.135C231.867 507.319 232.165 507.319 232.352 507.135L233.038 506.449V509.691C233.038 509.952 233.249 510.163 233.51 510.163C233.771 510.163 233.982 509.952 233.982 509.691V506.449L234.668 507.135C234.852 507.319 235.149 507.319 235.337 507.135C235.521 506.951 235.521 506.653 235.337 506.466Z"
        fill="#DA3636" />
    <path
        d="M265.037 420.761C266.29 421.978 267.777 422.587 269.5 422.587C271.223 422.587 272.671 421.978 273.846 420.761C275.098 419.463 275.725 417.921 275.725 416.136C275.725 414.351 275.098 412.85 273.846 411.632C272.671 410.334 271.223 409.685 269.5 409.685C267.777 409.685 266.29 410.334 265.037 411.632C263.862 412.85 263.275 414.351 263.275 416.136C263.275 417.921 263.862 419.463 265.037 420.761ZM257.05 403.356C260.496 399.785 264.645 398 269.5 398C274.355 398 278.465 399.785 281.832 403.356C285.277 406.845 287 411.105 287 416.136C287 418.651 286.374 421.532 285.121 424.778C283.946 428.024 282.498 431.067 280.775 433.907C279.053 436.747 277.33 439.425 275.607 441.94C273.963 444.375 272.554 446.322 271.379 447.783L269.5 449.852C269.03 449.284 268.404 448.554 267.621 447.661C266.838 446.687 265.428 444.821 263.393 442.062C261.357 439.222 259.556 436.503 257.99 433.907C256.502 431.229 255.132 428.227 253.879 424.9C252.626 421.573 252 418.651 252 416.136C252 411.105 253.683 406.845 257.05 403.356Z"
        fill="#666666" />
    <path
        d="M269.5 429.941C276.404 429.941 282 423.686 282 415.971C282 408.255 276.404 402 269.5 402C262.596 402 257 408.255 257 415.971C257 423.686 262.596 429.941 269.5 429.941Z"
        fill="#F7D6D6" />
    <path
        d="M278.219 408.305H273.609C273.178 408.305 272.828 408.654 272.828 409.086V412.914H269C268.569 412.914 268.219 413.264 268.219 413.695V417.523H264.391C263.959 417.523 263.609 417.873 263.609 418.305V422.133H259.781C259.35 422.133 259 422.483 259 422.914C259 423.345 259.35 423.695 259.781 423.695H264.391C264.598 423.695 264.797 423.613 264.943 423.466C265.09 423.32 265.172 423.121 265.172 422.914L265.172 419.086H269C269.207 419.086 269.406 419.004 269.552 418.857C269.699 418.711 269.781 418.512 269.781 418.305L269.781 414.477H273.609C273.817 414.477 274.015 414.394 274.162 414.248C274.308 414.101 274.391 413.902 274.391 413.695V409.867H278.219C278.65 409.867 279 409.517 279 409.086C279 408.654 278.65 408.305 278.219 408.305Z"
        fill="#DA3636" />
</svg>