<svg
    width="1024"
    height="1024"
    viewBox="0 0 1024 1024"
    fill="none"
    xmlns="http://www.w3.org/2000/svg">

    <path
        d="M208.092 17.8887V119.715H188.572V171.143H205.715V332.572H187.143V381.143H200V456.857H154.285V512.572H102.857V568.285H54.2852V629.715H31.4277V856.857H60V924H30V965.428H355.715V924V856.857V805.807H392.949V826.01H830.346H851.785V566.143H935.715H948.215H975.715V525.428H948.215V350.785H935.715V345.428H863.572V91.8574H847.143V122.572H830.346V17.8887H355.715H208.092V17.8887Z"
        fill="#F7D6D6"
        stroke="black"
        stroke-width="2" />
    <path
        d="M98.5714 924H30V965.428H98.5714V924Z"
        fill="#DA3636"
        stroke="black"
        stroke-width="2" />
    <path
        d="M764.643 724.357V752.773H792.969V826.01H851.785V733.076H792.971V724.357H764.643V724.357Z"
        fill="#DA3636"
        stroke="black"
        stroke-width="2" />
    <path
        d="M792.857 623.285V677.518H826.305V733.076H851.785V677.518V623.285H792.857Z"
        fill="#DA3636"
        stroke="black"
        stroke-width="2" />
    <path
        d="M826.305 677.518H792.857V705.297H826.305V677.518Z"
        fill="#DA3636"
        stroke="black"
        stroke-width="2" />
    <path
        d="M792.97 752.774H752.857V826.01H792.97V752.774Z"
        fill="#DA3636"
        stroke="black"
        stroke-width="2" />
    <path
        d="M661.145 264.871V282.043H642.457V334.824H707.611V264.871H661.145Z"
        fill="#DA3636"
        stroke="black"
        stroke-width="2" />
    <path
        d="M642.457 194.16V244.162H661.145V264.871H707.611V194.16H642.457V194.16Z"
        fill="#DA3636"
        stroke="black"
        stroke-width="2" />
    <path
        d="M661.145 244.162H642.457V282.043H661.145V244.162Z"
        fill="#DA3636"
        stroke="black"
        stroke-width="2" />
    <path
        d="M690.944 167.391H642.457V194.16H690.944V167.391Z"
        fill="#DA3636"
        stroke="black"
        stroke-width="2" />
    <path
        d="M590.714 176.5H543.462V327.929H590.714V176.5Z"
        fill="#DA3636"
        stroke="black"
        stroke-width="2" />
    <path
        d="M295.714 364.714H242.941V470.429H295.714V364.714Z"
        fill="#DA3636"
        stroke="black"
        stroke-width="2" />
    <path
        d="M200 386.857V456.857H154.285V512.572H200H242.941V386.857H200Z"
        fill="#DA3636"
        stroke="black"
        stroke-width="2" />
    <path
        d="M242.941 512.572H204.643V544.714H242.941V512.572Z"
        fill="#DA3636"
        stroke="black"
        stroke-width="2" />
    <path
        d="M84.2849 821.143H31.4277V856.857H84.2849V821.143Z"
        fill="#DA3636"
        stroke="black"
        stroke-width="2" />
    <path
        d="M187.143 332.572V381.143H200V386.857H205.715V381.143V332.572H187.143Z"
        fill="#DA3636"
        stroke="black"
        stroke-width="2" />
    <path
        d="M242.941 364.714H205.715Z"
        fill="#FF8080" />
    <path
        d="M242.941 364.714H205.715"
        stroke="black"
        stroke-width="2" />
    <path
        d="M792.857 463.87V566.143Z"
        fill="#DA3636" />
    <path
        d="M792.857 463.87V566.143"
        stroke="black"
        stroke-width="2" />
    <path
        d="M543.462 327.929V334.714H241.429V311.857H205.715"
        stroke="black"
        stroke-width="2" />
    <path
        d="M543.462 176.5V161.961H642.457V167.391"
        stroke="black"
        stroke-width="2" />
    <path
        d="M717.967 360.834V395.055H727.311V463.871H792.857V360.834H727.311H717.967Z"
        fill="#DA3636"
        stroke="black"
        stroke-width="2" />
    <path
        d="M682.105 360.834V395.055V396.189V450.99H727.311V395.055H717.967V360.834H682.105Z"
        fill="#DA3636"
        stroke="black"
        stroke-width="2" />
    <path
        d="M682.106 360.834H645.993V409.07H682.106V360.834Z"
        fill="#DA3636"
        stroke="black"
        stroke-width="2" />
    <path
        d="M682.106 409.07H645.993V458.315H682.106V409.07Z"
        fill="#DA3636"
        stroke="black"
        stroke-width="2" />
    <path
        d="M695.237 458.315H645.993V507.054H695.237V458.315Z"
        fill="#DA3636"
        stroke="black"
        stroke-width="2" />
    <path
        d="M695.238 450.99V463.871V496.953V507.055H645.992V590.785V607.412C645.992 640.147 672.345 666.5 705.08 666.5H719.285H733.77H792.857V607.412V590.785V566.143V507.055V463.871H727.311V450.99H695.238V450.99Z"
        fill="#DA3636"
        stroke="black"
        stroke-width="2" />
    <path
        d="M792.857 615.429H771.786V666.5H792.857V615.429Z"
        fill="#DA3636"
        stroke="black"
        stroke-width="2" />
    <path
        d="M826.305 705.297H792.971V733.076H826.305V705.297Z"
        fill="#DA3636"
        stroke="black"
        stroke-width="2" />
    <path
        d="M707.611 334.824H775.292V360.834"
        stroke="black"
        stroke-width="2" />
    <path
        d="M762.16 164.865V334.824H827.82V314.367H852.568V183.049H827.82V164.865H762.16Z"
        fill="#DA3636"
        stroke="black"
        stroke-width="2" />
    <path
        d="M218.037 505.761C219.29 506.978 220.777 507.587 222.5 507.587C224.223 507.587 225.671 506.978 226.846 505.761C228.098 504.463 228.725 502.921 228.725 501.136C228.725 499.351 228.098 497.85 226.846 496.632C225.671 495.334 224.223 494.685 222.5 494.685C220.777 494.685 219.29 495.334 218.037 496.632C216.862 497.85 216.275 499.351 216.275 501.136C216.275 502.921 216.862 504.463 218.037 505.761ZM210.05 488.356C213.496 484.785 217.645 483 222.5 483C227.355 483 231.465 484.785 234.832 488.356C238.277 491.845 240 496.105 240 501.136C240 503.651 239.374 506.532 238.121 509.778C236.946 513.024 235.498 516.067 233.775 518.907C232.053 521.747 230.33 524.425 228.607 526.94C226.963 529.375 225.554 531.322 224.379 532.783L222.5 534.852C222.03 534.284 221.404 533.554 220.621 532.661C219.838 531.687 218.428 529.821 216.393 527.062C214.357 524.222 212.556 521.503 210.99 518.907C209.502 516.229 208.132 513.227 206.879 509.9C205.626 506.573 205 503.651 205 501.136C205 496.105 206.683 491.845 210.05 488.356Z"
        fill="#666666" />
    <path
        d="M222.5 514.941C229.404 514.941 235 508.686 235 500.971C235 493.255 229.404 487 222.5 487C215.596 487 210 493.255 210 500.971C210 508.686 215.596 514.941 222.5 514.941Z"
        fill="#F7D6D6" />
    <path
        d="M229.632 493.002H215.365C214.612 493.002 214 493.614 214 494.367V508.637C214 509.386 214.612 509.999 215.365 509.999H229.635C230.388 509.999 231 509.386 231 508.634V494.367C230.997 493.614 230.384 493.002 229.632 493.002ZM222.027 509.055H215.365C215.134 509.055 214.947 508.868 214.947 508.637V494.367C214.947 494.136 215.134 493.949 215.365 493.949H222.027V509.055ZM229.635 509.052H222.97V493.945H229.632C229.862 493.945 230.05 494.133 230.05 494.364V508.634H230.053C230.053 508.864 229.866 509.052 229.635 509.052Z"
        fill="#DA3636" />
    <path
        d="M220.313 501.865C220.129 501.681 219.832 501.681 219.644 501.865L218.958 502.551V499.308C218.958 499.047 218.748 498.837 218.487 498.837C218.226 498.837 218.015 499.047 218.015 499.308V502.551L217.329 501.868C217.145 501.684 216.847 501.684 216.66 501.868C216.476 502.052 216.476 502.35 216.66 502.537L218.152 504.026C218.246 504.12 218.366 504.163 218.487 504.163C218.607 504.163 218.728 504.116 218.821 504.026L220.313 502.534C220.497 502.35 220.497 502.052 220.313 501.865Z"
        fill="#DA3636" />
    <path
        d="M228.337 500.466L226.845 498.974C226.751 498.88 226.63 498.837 226.51 498.837C226.39 498.837 226.269 498.884 226.175 498.974L224.683 500.466C224.499 500.65 224.499 500.948 224.683 501.135C224.867 501.319 225.165 501.319 225.352 501.135L226.038 500.449V503.691C226.038 503.952 226.249 504.163 226.51 504.163C226.771 504.163 226.982 503.952 226.982 503.691V500.449L227.668 501.135C227.852 501.319 228.149 501.319 228.337 501.135C228.521 500.951 228.521 500.653 228.337 500.466Z"
        fill="#DA3636" />
    <path
        d="M265.037 428.761C266.29 429.978 267.777 430.587 269.5 430.587C271.223 430.587 272.671 429.978 273.846 428.761C275.098 427.463 275.725 425.921 275.725 424.136C275.725 422.351 275.098 420.85 273.846 419.632C272.671 418.334 271.223 417.685 269.5 417.685C267.777 417.685 266.29 418.334 265.037 419.632C263.862 420.85 263.275 422.351 263.275 424.136C263.275 425.921 263.862 427.463 265.037 428.761ZM257.05 411.356C260.496 407.785 264.645 406 269.5 406C274.355 406 278.465 407.785 281.832 411.356C285.277 414.845 287 419.105 287 424.136C287 426.651 286.374 429.532 285.121 432.778C283.946 436.024 282.498 439.067 280.775 441.907C279.053 444.747 277.33 447.425 275.607 449.94C273.963 452.375 272.554 454.322 271.379 455.783L269.5 457.852C269.03 457.284 268.404 456.554 267.621 455.661C266.838 454.687 265.428 452.821 263.393 450.062C261.357 447.222 259.556 444.503 257.99 441.907C256.502 439.229 255.132 436.227 253.879 432.9C252.626 429.573 252 426.651 252 424.136C252 419.105 253.683 414.845 257.05 411.356Z"
        fill="#666666" />
    <path
        d="M269.5 437.941C276.404 437.941 282 431.686 282 423.971C282 416.255 276.404 410 269.5 410C262.596 410 257 416.255 257 423.971C257 431.686 262.596 437.941 269.5 437.941Z"
        fill="#F7D6D6" />
    <path
        d="M278.219 416.305H273.609C273.178 416.305 272.828 416.654 272.828 417.086V420.914H269C268.569 420.914 268.219 421.264 268.219 421.695V425.523H264.391C263.959 425.523 263.609 425.873 263.609 426.305V430.133H259.781C259.35 430.133 259 430.483 259 430.914C259 431.345 259.35 431.695 259.781 431.695H264.391C264.598 431.695 264.797 431.613 264.943 431.466C265.09 431.32 265.172 431.121 265.172 430.914L265.172 427.086H269C269.207 427.086 269.406 427.004 269.552 426.857C269.699 426.711 269.781 426.512 269.781 426.305L269.781 422.477H273.609C273.817 422.477 274.015 422.394 274.162 422.248C274.308 422.101 274.391 421.902 274.391 421.695V417.867H278.219C278.65 417.867 279 417.517 279 417.086C279 416.654 278.65 416.305 278.219 416.305Z"
        fill="#DA3636" />
    <path
        d="M563.037 246.761C564.29 247.978 565.777 248.587 567.5 248.587C569.223 248.587 570.671 247.978 571.846 246.761C573.098 245.463 573.725 243.921 573.725 242.136C573.725 240.351 573.098 238.85 571.846 237.632C570.671 236.334 569.223 235.685 567.5 235.685C565.777 235.685 564.29 236.334 563.037 237.632C561.862 238.85 561.275 240.351 561.275 242.136C561.275 243.921 561.862 245.463 563.037 246.761ZM555.05 229.356C558.496 225.785 562.645 224 567.5 224C572.355 224 576.465 225.785 579.832 229.356C583.277 232.845 585 237.105 585 242.136C585 244.651 584.374 247.532 583.121 250.778C581.946 254.024 580.498 257.067 578.775 259.907C577.053 262.747 575.33 265.425 573.607 267.94C571.963 270.375 570.554 272.322 569.379 273.783L567.5 275.852C567.03 275.284 566.404 274.554 565.621 273.661C564.838 272.687 563.428 270.821 561.393 268.062C559.357 265.222 557.556 262.503 555.99 259.907C554.502 257.229 553.132 254.227 551.879 250.9C550.626 247.573 550 244.651 550 242.136C550 237.105 551.683 232.845 555.05 229.356Z"
        fill="#666666" />
    <path
        d="M567.5 255.941C574.404 255.941 580 249.686 580 241.971C580 234.255 574.404 228 567.5 228C560.596 228 555 234.255 555 241.971C555 249.686 560.596 255.941 567.5 255.941Z"
        fill="#F7D6D6" />
    <path
        d="M576.219 234.305H571.609C571.178 234.305 570.828 234.654 570.828 235.086V238.914H567C566.569 238.914 566.219 239.264 566.219 239.695V243.523H562.391C561.959 243.523 561.609 243.873 561.609 244.305V248.133H557.781C557.35 248.133 557 248.483 557 248.914C557 249.345 557.35 249.695 557.781 249.695H562.391C562.598 249.695 562.797 249.613 562.943 249.466C563.09 249.32 563.172 249.121 563.172 248.914L563.172 245.086H567C567.207 245.086 567.406 245.004 567.552 244.857C567.699 244.711 567.781 244.512 567.781 244.305L567.781 240.477H571.609C571.817 240.477 572.015 240.394 572.162 240.248C572.308 240.101 572.391 239.902 572.391 239.695V235.867H576.219C576.65 235.867 577 235.517 577 235.086C577 234.654 576.65 234.305 576.219 234.305Z"
        fill="#DA3636" />
    <path
        d="M669.037 212.761C670.29 213.978 671.777 214.587 673.5 214.587C675.223 214.587 676.671 213.978 677.846 212.761C679.098 211.463 679.725 209.921 679.725 208.136C679.725 206.351 679.098 204.85 677.846 203.632C676.671 202.334 675.223 201.685 673.5 201.685C671.777 201.685 670.29 202.334 669.037 203.632C667.862 204.85 667.275 206.351 667.275 208.136C667.275 209.921 667.862 211.463 669.037 212.761ZM661.05 195.356C664.496 191.785 668.645 190 673.5 190C678.355 190 682.465 191.785 685.832 195.356C689.277 198.845 691 203.105 691 208.136C691 210.651 690.374 213.532 689.121 216.778C687.946 220.024 686.498 223.067 684.775 225.907C683.053 228.747 681.33 231.425 679.607 233.94C677.963 236.375 676.554 238.322 675.379 239.783L673.5 241.852C673.03 241.284 672.404 240.554 671.621 239.661C670.838 238.687 669.428 236.821 667.393 234.062C665.357 231.222 663.556 228.503 661.99 225.907C660.502 223.229 659.132 220.227 657.879 216.9C656.626 213.573 656 210.651 656 208.136C656 203.105 657.683 198.845 661.05 195.356Z"
        fill="#08648B" />
    <path
        d="M673.5 222.941C680.404 222.941 686 216.686 686 208.971C686 201.255 680.404 195 673.5 195C666.596 195 661 201.255 661 208.971C661 216.686 666.596 222.941 673.5 222.941Z"
        fill="#F7D6D6" />
    <path
        d="M674 198C672.675 198 671.6 199.075 671.6 200.4C671.6 201.726 672.675 202.8 674 202.8C675.325 202.799 676.399 201.725 676.4 200.4C676.4 199.075 675.326 198 674 198ZM674 202C673.116 202 672.4 201.284 672.4 200.4C672.4 199.516 673.116 198.8 674 198.8C674.884 198.8 675.6 199.516 675.6 200.4C675.6 201.284 674.884 202 674 202Z"
        fill="#DA3636" />
    <path
        d="M675.2 203.6H672.8C671.254 203.602 670.002 204.854 670 206.4V212C670 212.221 670.179 212.4 670.4 212.4H671.6V217.6C671.6 217.821 671.779 218 672 218H676C676.221 218 676.4 217.821 676.4 217.6V212.4H677.6C677.821 212.4 678 212.221 678 212V206.4C677.998 204.854 676.746 203.602 675.2 203.6ZM677.2 211.6H676.4V206.8H675.6V217.2H674.4V211.6H673.6V217.2H672.4V206.8H671.6V211.6H670.8V206.4C670.801 205.296 671.696 204.401 672.8 204.4H675.2C676.304 204.401 677.199 205.296 677.2 206.4V211.6Z"
        fill="#DA3636" />
    <path
        d="M677.037 285.761C678.29 286.978 679.777 287.587 681.5 287.587C683.223 287.587 684.671 286.978 685.846 285.761C687.098 284.463 687.725 282.921 687.725 281.136C687.725 279.351 687.098 277.85 685.846 276.632C684.671 275.334 683.223 274.685 681.5 274.685C679.777 274.685 678.29 275.334 677.037 276.632C675.862 277.85 675.275 279.351 675.275 281.136C675.275 282.921 675.862 284.463 677.037 285.761ZM669.05 268.356C672.496 264.785 676.645 263 681.5 263C686.355 263 690.465 264.785 693.832 268.356C697.277 271.845 699 276.105 699 281.136C699 283.651 698.374 286.532 697.121 289.778C695.946 293.024 694.498 296.067 692.775 298.907C691.053 301.747 689.33 304.425 687.607 306.94C685.963 309.375 684.554 311.322 683.379 312.783L681.5 314.852C681.03 314.284 680.404 313.554 679.621 312.661C678.838 311.687 677.428 309.821 675.393 307.062C673.357 304.222 671.556 301.503 669.99 298.907C668.502 296.229 667.132 293.227 665.879 289.9C664.626 286.573 664 283.651 664 281.136C664 276.105 665.683 271.845 669.05 268.356Z"
        fill="#08648B" />
    <path
        d="M681.5 295.941C688.404 295.941 694 289.686 694 281.971C694 274.255 688.404 268 681.5 268C674.596 268 669 274.255 669 281.971C669 289.686 674.596 295.941 681.5 295.941Z"
        fill="#F7D6D6" />
    <path
        d="M681.84 270C680.382 270 679.2 271.182 679.2 272.64C679.201 274.097 680.383 275.279 681.84 275.28C683.298 275.28 684.48 274.098 684.48 272.64C684.48 271.182 683.298 270 681.84 270ZM681.84 274.4C680.868 274.4 680.08 273.612 680.08 272.64C680.08 271.668 680.868 270.88 681.84 270.88C682.812 270.88 683.6 271.668 683.6 272.64C683.6 273.612 682.812 274.4 681.84 274.4Z"
        fill="#DA3636" />
    <path
        d="M686.662 285.274L684.022 276.474C683.966 276.288 683.794 276.16 683.6 276.16H680.08C679.886 276.16 679.714 276.288 679.658 276.474L677.018 285.274C676.978 285.408 677.004 285.552 677.088 285.664C677.171 285.775 677.302 285.84 677.44 285.84H679.2V291.56C679.2 291.803 679.397 292 679.64 292H684.04C684.283 292 684.48 291.803 684.48 291.56V285.84H686.24C686.483 285.84 686.68 285.643 686.68 285.4C686.68 285.357 686.674 285.315 686.662 285.274ZM684.04 284.96C683.797 284.96 683.6 285.157 683.6 285.4V291.12H682.28V284.96H681.4V291.12H680.08V285.4C680.08 285.157 679.883 284.96 679.64 284.96H678.031L680.407 277.04H683.273L685.649 284.96H684.04Z"
        fill="#DA3636" />
</svg>